<svg width="198" height="32" viewBox="0 0 198 32" fill="none" xmlns="http://www.w3.org/2000/svg">
<path d="M0 0.517578H6.44128V24.5051H21.0289V30.4955H0V0.517578Z" fill="white"/>
<path d="M59.285 15.5906V15.5C59.285 6.98664 65.84 0 74.8704 0C83.9008 0 90.38 6.89608 90.38 15.4224V15.5129C90.38 24.0392 83.8124 31.0129 74.782 31.0129C65.7642 31 59.285 24.1169 59.285 15.5906ZM83.6482 15.5906V15.5C83.6482 10.3635 79.9729 6.08097 74.782 6.08097C69.5911 6.08097 66.0042 10.273 66.0042 15.4224V15.5129C66.0042 20.6494 69.6795 24.932 74.8704 24.932C80.0613 24.932 83.6482 20.727 83.6482 15.5906Z" fill="white"/>
<path d="M99.4609 0.517578H105.902V24.5051H120.49V30.4955H99.4609V0.517578Z" fill="white"/>
<path d="M138.714 0.296875H144.65L157.192 30.4947H150.46L147.783 23.7668H135.405L132.728 30.4947H126.16L138.714 0.296875ZM145.484 17.9446L141.594 8.22801L137.704 17.9446H145.484Z" fill="white"/>
<path d="M165.047 0.517578H177.007C183.992 0.517578 188.21 4.76132 188.21 10.8811V10.9717C188.21 17.9066 182.944 21.5034 176.376 21.5034H171.488V30.4955H165.047V0.517578ZM176.591 15.6294C179.811 15.6294 181.693 13.6628 181.693 11.0881V11.0105C181.693 8.06057 179.685 6.46916 176.464 6.46916H171.488V15.6294H176.591Z" fill="white"/>
<path d="M191.219 23.6367H197.988V30.494H191.219V23.6367Z" fill="white"/>
<path d="M35.6173 24.6211H29.2266V30.495H51.5058V24.6211H35.6173Z" fill="white"/>
<path d="M35.6173 0.517578H29.2266V6.3786H51.5058V0.517578H35.6173Z" fill="white"/>
<path d="M35.6173 12.5762H29.2266V18.4372H51.5058V12.5762H35.6173Z" fill="white"/>
</svg>
