<svg width="2146" height="232" viewBox="0 0 2146 232" fill="none" xmlns="http://www.w3.org/2000/svg">
<g filter="url(#filter0_d_215_1106)">
<mask id="path-1-inside-1_215_1106" fill="white">
<path fill-rule="evenodd" clip-rule="evenodd" d="M70 28C47.9086 28 30 45.9086 30 68V132C30 154.091 47.9086 172 70 172H326.531L372.454 198.514C375.121 200.054 378.454 198.129 378.454 195.05V171.482C397.477 168.396 412 151.894 412 132V68C412 45.9086 394.091 28 372 28H70Z"/>
</mask>
<path fill-rule="evenodd" clip-rule="evenodd" d="M70 28C47.9086 28 30 45.9086 30 68V132C30 154.091 47.9086 172 70 172H326.531L372.454 198.514C375.121 200.054 378.454 198.129 378.454 195.05V171.482C397.477 168.396 412 151.894 412 132V68C412 45.9086 394.091 28 372 28H70Z" fill="white"/>
<path d="M326.531 172L327.031 171.134L326.799 171H326.531V172ZM372.454 198.514L372.954 197.648L372.454 198.514ZM378.454 171.482L378.294 170.495L377.454 170.631V171.482H378.454ZM31 68C31 46.4609 48.4609 29 70 29V27C47.3563 27 29 45.3563 29 68H31ZM31 132V68H29V132H31ZM70 171C48.4609 171 31 153.539 31 132H29C29 154.644 47.3563 173 70 173V171ZM326.531 171H70V173H326.531V171ZM372.954 197.648L327.031 171.134L326.031 172.866L371.954 199.38L372.954 197.648ZM377.454 195.05C377.454 197.359 374.954 198.803 372.954 197.648L371.954 199.38C375.287 201.304 379.454 198.899 379.454 195.05H377.454ZM377.454 171.482V195.05H379.454V171.482H377.454ZM411 132C411 151.396 396.84 167.486 378.294 170.495L378.614 172.469C398.113 169.306 413 152.392 413 132H411ZM411 68V132H413V68H411ZM372 29C393.539 29 411 46.4609 411 68H413C413 45.3563 394.644 27 372 27V29ZM70 29H372V27H70V29Z" fill="#D2D7DC" mask="url(#path-1-inside-1_215_1106)"/>
</g>
<path d="M68.52 75.82V77.96H80.26V75.82H68.52ZM66.82 88.4V90.56H83.56V88.4H66.82ZM72.74 82.04V89.46H75.4V82.04H72.74ZM79.3 75.82V77.6C79.3 79.82 79.3 82.5 78.56 86.18L81.22 86.48C81.96 82.52 81.96 79.92 81.96 77.6V75.82H79.3ZM98.0584 74.26V85.1H100.578V74.26H98.0584ZM95.7984 78.52V80.68H98.7584V78.52H95.7984ZM94.0184 74.6V85.04H96.4984V74.6H94.0184ZM87.7384 85.86V87.98H97.9384V92.78H100.578V85.86H87.7384ZM90.1584 75.54V76.54C90.1584 79.58 88.5384 81.82 84.5984 83.28L85.8384 85.22C90.6384 83.34 92.8184 80.22 92.8184 75.54H90.1584ZM85.4784 75.54V77.66H91.0184V75.54H85.4784ZM115.497 74.24V92.82H118.177V74.24H115.497ZM108.197 75.54C105.397 75.54 103.337 78.1 103.337 82.14C103.337 86.22 105.397 88.78 108.197 88.78C110.997 88.78 113.057 86.22 113.057 82.14C113.057 78.1 110.997 75.54 108.197 75.54ZM108.197 77.96C109.577 77.96 110.497 79.42 110.497 82.14C110.497 84.9 109.577 86.38 108.197 86.38C106.817 86.38 105.877 84.9 105.877 82.14C105.877 79.42 106.817 77.96 108.197 77.96ZM134.267 80.04V82.18H139.147V80.04H134.267ZM129.227 75.68V78.36C129.227 81.88 127.827 85.46 124.667 86.92L126.327 89.06C129.807 87.32 131.387 83.02 131.387 78.36V75.68H129.227ZM129.787 75.68V78.36C129.787 82.98 131.247 87.06 134.727 88.74L136.307 86.62C133.247 85.26 131.907 81.88 131.907 78.36V75.68H129.787ZM137.827 74.24V92.82H140.467V74.24H137.827ZM155.625 74.24V92.82H158.305V74.24H155.625ZM143.845 75.72V88.5H152.945V75.72H150.305V80.22H146.485V75.72H143.845ZM146.485 82.28H150.305V86.36H146.485V82.28ZM167.803 75.32V76.66C167.803 79.32 165.503 82.26 161.323 82.98L162.463 85.18C167.263 84.24 170.123 80.68 170.123 76.66V75.32H167.803ZM168.343 75.32V76.66C168.343 80.74 171.183 84.24 175.983 85.18L177.123 82.98C172.923 82.26 170.643 79.38 170.643 76.66V75.32H168.343ZM160.943 88.36V90.52H177.703V88.36H160.943ZM195.753 74.24V92.82H198.433V74.24H195.753ZM188.453 75.54C185.653 75.54 183.593 78.1 183.593 82.14C183.593 86.22 185.653 88.78 188.453 88.78C191.253 88.78 193.313 86.22 193.313 82.14C193.313 78.1 191.253 75.54 188.453 75.54ZM188.453 77.96C189.833 77.96 190.753 79.42 190.753 82.14C190.753 84.9 189.833 86.38 188.453 86.38C187.073 86.38 186.133 84.9 186.133 82.14C186.133 79.42 187.073 77.96 188.453 77.96ZM204.812 80.46V83.86H207.472V80.46H204.812ZM211.332 80.46V83.86H213.972V80.46H211.332ZM201.052 83.04V85.14H217.792V83.04H201.052ZM209.392 86.08C205.372 86.08 202.952 87.28 202.952 89.42C202.952 91.58 205.372 92.78 209.392 92.78C213.392 92.78 215.812 91.58 215.812 89.42C215.812 87.28 213.392 86.08 209.392 86.08ZM209.392 88.08C211.872 88.08 213.132 88.5 213.132 89.42C213.132 90.36 211.872 90.78 209.392 90.78C206.912 90.78 205.652 90.36 205.652 89.42C205.652 88.5 206.912 88.08 209.392 88.08ZM209.432 74.52C205.332 74.52 202.732 75.88 202.732 78.1C202.732 80.3 205.332 81.62 209.432 81.62C213.512 81.62 216.132 80.3 216.132 78.1C216.132 75.88 213.512 74.52 209.432 74.52ZM209.432 76.56C211.972 76.56 213.392 77.06 213.392 78.1C213.392 79.12 211.972 79.62 209.432 79.62C206.892 79.62 205.472 79.12 205.472 78.1C205.472 77.06 206.892 76.56 209.432 76.56ZM226.45 81.08V83.22H229.49V81.08H226.45ZM232.43 74.26V92.78H234.97V74.26H232.43ZM228.65 74.54V91.94H231.15V74.54H228.65ZM223.21 75.56C220.77 75.56 219.21 78.1 219.21 82.28C219.21 86.48 220.77 89.02 223.21 89.02C225.67 89.02 227.25 86.48 227.25 82.28C227.25 78.1 225.67 75.56 223.21 75.56ZM223.21 78.06C224.25 78.06 224.83 79.46 224.83 82.28C224.83 85.12 224.25 86.5 223.21 86.5C222.21 86.5 221.63 85.12 221.63 82.28C221.63 79.46 222.21 78.06 223.21 78.06ZM248.2 83.2V85.78H250.86V83.2H248.2ZM243.32 74.54V80.74H255.8V74.54H253.16V75.76H245.94V74.54H243.32ZM245.94 77.7H253.16V78.78H245.94V77.7ZM241.18 81.7V83.8H257.92V81.7H241.18ZM243.1 84.96V86.9H253.28V87.84H243.12V91.34H245.74V89.66H255.9V84.96H243.1ZM243.12 90.68V92.66H256.38V90.68H243.12ZM272.018 74.26V87.9H274.678V74.26H272.018ZM259.638 75.58V77.7H269.418V75.58H259.638ZM259.438 85.7C262.378 85.7 266.358 85.62 269.798 85.04L269.658 83.1C266.318 83.48 262.158 83.52 259.178 83.52L259.438 85.7ZM261.098 77.44V83.78H263.658V77.44H261.098ZM265.398 77.44V83.78H267.938V77.44H265.398ZM269.778 77.5V79.62H273.458V77.5H269.778ZM269.778 81.22V83.36H273.458V81.22H269.778ZM262.438 90.34V92.46H275.098V90.34H262.438ZM262.438 86.9V91.94H265.118V86.9H262.438ZM285.557 74.52C281.317 74.52 278.857 75.64 278.857 77.68C278.857 79.72 281.317 80.84 285.557 80.84C289.777 80.84 292.257 79.72 292.257 77.68C292.257 75.64 289.777 74.52 285.557 74.52ZM285.557 76.46C288.237 76.46 289.497 76.86 289.497 77.68C289.497 78.54 288.237 78.9 285.557 78.9C282.877 78.9 281.617 78.54 281.617 77.68C281.617 76.86 282.877 76.46 285.557 76.46ZM277.177 81.7V83.8H293.917V81.7H277.177ZM279.097 84.84V86.82H289.277V87.76H279.117V91.24H281.737V89.6H291.897V84.84H279.097ZM279.117 90.66V92.66H292.377V90.66H279.117ZM301.186 82.44V84.6H314.306V82.44H301.186ZM299.326 88.42V90.6H316.086V88.42H299.326ZM301.186 75.88V83.32H303.846V75.88H301.186ZM330.045 74.26V92.78H332.705V74.26H330.045ZM320.585 76.14V76.46C320.585 81.12 319.905 84.12 317.185 87.18L319.225 88.72C322.445 85.16 323.085 81.18 323.085 76.14H320.585ZM318.065 76.14V78.3H321.605V76.14H318.065ZM325.745 76.14V76.44C325.745 81.48 325.125 84.98 322.465 88.48L324.625 89.9C327.665 86 328.245 81.42 328.245 76.14H325.745ZM323.745 76.14V78.3H326.805V76.14H323.745ZM337.383 79.26V81.36H350.223V79.26H337.383ZM335.303 83.28V85.4H352.083V83.28H335.303ZM337.383 74.92V80.3H340.023V74.92H337.383ZM337.203 90.26V92.38H350.323V90.26H337.203ZM337.203 86.88V90.82H339.863V86.88H337.203ZM366.682 74.26V92.78H369.222V74.26H366.682ZM359.642 81.02V83.16H363.942V81.02H359.642ZM362.862 74.58V91.96H365.342V74.58H362.862ZM353.842 86.48V88.68H355.122C357.822 88.68 359.662 88.6 361.722 88.18L361.522 86.02C359.482 86.42 357.742 86.48 355.122 86.48H353.842ZM353.842 76.34V87.4H356.462V78.46H360.902V76.34H353.842ZM71.88 111.54C69.1 111.54 67.1 114.1 67.1 118.14C67.1 122.22 69.1 124.78 71.88 124.78C74.64 124.78 76.66 122.22 76.66 118.14C76.66 114.1 74.64 111.54 71.88 111.54ZM71.88 113.96C73.24 113.96 74.12 115.42 74.12 118.14C74.12 120.9 73.24 122.38 71.88 122.38C70.54 122.38 69.64 120.9 69.64 118.14C69.64 115.42 70.54 113.96 71.88 113.96ZM79.7 110.24V128.82H82.34V110.24H79.7ZM75.88 116.92V119.06H80.82V116.92H75.88ZM87.6384 126.34V128.46H100.938V126.34H87.6384ZM87.6384 122.54V127.66H90.3184V122.54H87.6384ZM97.8384 110.28V123.68H100.478V110.28H97.8384ZM95.3984 115.14V117.26H100.118V115.14H95.3984ZM85.0584 118.96V121.08H85.9984C87.6584 121.08 88.7784 121.08 90.2184 120.78L90.0184 118.64C88.6584 118.92 87.5584 118.96 85.9984 118.96H85.0584ZM85.0584 111.66V119.36H87.6784V113.78H89.9184V111.66H85.0584ZM90.7984 118.96V121.08H91.7984C94.2384 121.08 95.2984 121.04 96.5784 120.76L96.3584 118.62C95.1584 118.92 94.1384 118.96 91.7984 118.96H90.7984ZM90.7984 111.66V119.34H93.3984V113.78H95.9384V111.66H90.7984ZM116.948 114.52V116.68H120.468V114.52H116.948ZM119.768 110.26V120.96H122.428V110.26H119.768ZM110.088 121.72V128.58H122.428V121.72H110.088ZM119.828 123.8V126.48H112.708V123.8H119.828ZM111.208 111.98V113.14C111.208 115.48 109.888 117.9 106.828 118.9L108.168 121C111.728 119.84 113.368 116.64 113.368 113.14V111.98H111.208ZM111.768 111.98V113.14C111.768 116.44 113.348 119.52 116.788 120.66L118.088 118.56C115.168 117.58 113.908 115.3 113.908 113.14V111.98H111.768ZM107.548 111.2V113.3H117.508V111.2H107.548ZM133.307 110.52C129.067 110.52 126.607 111.64 126.607 113.68C126.607 115.72 129.067 116.84 133.307 116.84C137.527 116.84 140.007 115.72 140.007 113.68C140.007 111.64 137.527 110.52 133.307 110.52ZM133.307 112.46C135.987 112.46 137.247 112.86 137.247 113.68C137.247 114.54 135.987 114.9 133.307 114.9C130.627 114.9 129.367 114.54 129.367 113.68C129.367 112.86 130.627 112.46 133.307 112.46ZM124.927 117.7V119.8H141.667V117.7H124.927ZM126.847 120.84V122.82H137.027V123.76H126.867V127.24H129.487V125.6H139.647V120.84H126.847ZM126.867 126.66V128.66H140.127V126.66H126.867ZM183.033 113.04V115.16H191.893V113.04H183.033ZM187.493 115.98C185.153 115.98 183.433 117.8 183.433 120.4C183.433 122.98 185.153 124.8 187.493 124.8C189.853 124.8 191.553 122.98 191.553 120.4C191.553 117.8 189.853 115.98 187.493 115.98ZM187.493 118.2C188.493 118.2 189.213 119 189.213 120.4C189.213 121.8 188.493 122.58 187.493 122.58C186.493 122.58 185.793 121.8 185.793 120.4C185.793 119 186.493 118.2 187.493 118.2ZM196.433 110.26V128.78H198.973V110.26H196.433ZM194.213 117.78V119.92H197.273V117.78H194.213ZM192.553 110.6V128H195.033V110.6H192.553ZM186.193 110.76V114.38H188.813V110.76H186.193ZM206.012 111.54C203.192 111.54 201.152 114.1 201.152 118.14C201.152 122.22 203.192 124.78 206.012 124.78C208.832 124.78 210.872 122.22 210.872 118.14C210.872 114.1 208.832 111.54 206.012 111.54ZM206.012 113.96C207.392 113.96 208.332 115.42 208.332 118.14C208.332 120.9 207.392 122.38 206.012 122.38C204.632 122.38 203.712 120.9 203.712 118.14C203.712 115.42 204.632 113.96 206.012 113.96ZM214.852 114.56V116.76H218.112V114.56H214.852ZM214.852 120V122.18H218.112V120H214.852ZM212.892 110.26V128.78H215.572V110.26H212.892ZM235.061 110.26V128.78H237.701V110.26H235.061ZM237.101 117.48V119.7H240.381V117.48H237.101ZM223.101 113V115.12H233.881V113H223.101ZM228.521 116.16C225.821 116.16 223.821 118 223.821 120.58C223.821 123.16 225.821 125 228.521 125C231.221 125 233.221 123.16 233.221 120.58C233.221 118 231.221 116.16 228.521 116.16ZM228.521 118.32C229.781 118.32 230.681 119.16 230.681 120.58C230.681 122 229.781 122.84 228.521 122.84C227.261 122.84 226.361 122 226.361 120.58C226.361 119.16 227.261 118.32 228.521 118.32ZM227.181 110.56V113.8H229.841V110.56H227.181ZM243.26 115.26V117.36H256.1V115.26H243.26ZM241.18 119.28V121.4H257.96V119.28H241.18ZM243.26 110.92V116.3H245.9V110.92H243.26ZM243.08 126.26V128.38H256.2V126.26H243.08ZM243.08 122.88V126.82H245.74V122.88H243.08ZM276.149 110.26V128.78H278.809V110.26H276.149ZM272.569 117.36V119.52H277.429V117.36H272.569ZM270.069 112.18V112.66C270.069 117.56 268.329 120.92 263.089 123.52L264.489 125.6C270.909 122.38 272.689 117.8 272.689 112.18H270.069ZM263.969 112.18V114.28H271.469V112.18H263.969ZM285.768 113.18V115.26C285.768 118.4 284.268 121.82 281.168 123.2L282.668 125.3C286.148 123.72 287.888 119.54 287.888 115.26V113.18H285.768ZM286.368 113.18V115.26C286.368 119.38 288.088 123.32 291.608 124.84L293.048 122.74C289.948 121.46 288.468 118.26 288.468 115.26V113.18H286.368ZM281.908 112.04V114.22H292.288V112.04H281.908ZM294.008 110.26V128.78H296.688V110.26H294.008ZM302.026 121.96H304.606C304.306 119.14 307.786 118.2 307.786 115.36C307.786 112.78 306.026 111.54 303.606 111.54C301.866 111.54 300.446 112.36 299.406 113.54L301.026 115.04C301.686 114.36 302.386 113.92 303.266 113.92C304.306 113.92 304.966 114.54 304.966 115.56C304.966 117.46 301.546 118.74 302.026 121.96ZM303.326 127.28C304.366 127.28 305.166 126.46 305.166 125.36C305.166 124.26 304.366 123.46 303.326 123.46C302.266 123.46 301.506 124.26 301.506 125.36C301.506 126.46 302.266 127.28 303.326 127.28Z" fill="#111111"/>
<path d="M160.376 110.26V128.78H162.916V110.26H160.376ZM158.036 117.24V119.36H161.096V117.24H158.036ZM152.516 112.52V113.08C152.516 117.52 151.036 120.64 146.816 123.14L148.356 124.98C153.536 121.96 155.056 117.74 155.056 112.52H152.516ZM147.756 112.52V114.66H153.296V112.52H147.756ZM156.276 110.74V127.98H158.756V110.74H156.276ZM174.515 114.2V116.34H178.815V114.2H174.515ZM169.295 111.4V113.4C169.295 116.02 168.015 118.58 164.955 119.6L166.355 121.68C169.855 120.4 171.435 117.18 171.435 113.4V111.4H169.295ZM169.875 111.4V113.42C169.875 116.92 171.395 120.02 174.715 121.22L176.135 119.18C173.215 118.18 171.995 115.8 171.995 113.42V111.4H169.875ZM177.895 110.28V123.94H180.555V110.28H177.895ZM168.295 126.34V128.46H180.955V126.34H168.295ZM168.295 122.56V127.52H170.975V122.56H168.295Z" fill="#12E300"/>
<g filter="url(#filter1_d_215_1106)">
<mask id="path-4-inside-2_215_1106" fill="white">
<path fill-rule="evenodd" clip-rule="evenodd" d="M592 28C569.909 28 552 45.9086 552 68V132C552 154.091 569.909 172 592 172H697.531L743.454 198.514C746.121 200.054 749.454 198.129 749.454 195.05V171.482C768.477 168.396 783 151.894 783 132V68C783 45.9086 765.091 28 743 28H592Z"/>
</mask>
<path fill-rule="evenodd" clip-rule="evenodd" d="M592 28C569.909 28 552 45.9086 552 68V132C552 154.091 569.909 172 592 172H697.531L743.454 198.514C746.121 200.054 749.454 198.129 749.454 195.05V171.482C768.477 168.396 783 151.894 783 132V68C783 45.9086 765.091 28 743 28H592Z" fill="white"/>
<path d="M697.531 172L698.031 171.134L697.799 171H697.531V172ZM743.454 198.514L742.954 199.38L743.454 198.514ZM749.454 171.482L749.294 170.495L748.454 170.631V171.482H749.454ZM553 68C553 46.4609 570.461 29 592 29V27C569.356 27 551 45.3563 551 68H553ZM553 132V68H551V132H553ZM592 171C570.461 171 553 153.539 553 132H551C551 154.644 569.356 173 592 173V171ZM697.531 171H592V173H697.531V171ZM743.954 197.648L698.031 171.134L697.031 172.866L742.954 199.38L743.954 197.648ZM748.454 195.05C748.454 197.359 745.954 198.803 743.954 197.648L742.954 199.38C746.287 201.304 750.454 198.899 750.454 195.05H748.454ZM748.454 171.482V195.05H750.454V171.482H748.454ZM782 132C782 151.396 767.84 167.486 749.294 170.495L749.614 172.469C769.113 169.306 784 152.392 784 132H782ZM782 68V132H784V68H782ZM743 29C764.539 29 782 46.4609 782 68H784C784 45.3563 765.644 27 743 27V29ZM592 29H743V27H592V29Z" fill="#D2D7DC" mask="url(#path-4-inside-2_215_1106)"/>
</g>
<path d="M592 83.48V87.22H594.48V83.48H592ZM588.88 88.82C591.18 88.82 594.96 88.74 597.86 88.16L597.68 86.24C594.88 86.64 590.96 86.68 588.56 86.68L588.88 88.82ZM602.28 74.26V92.78H604.8V74.26H602.28ZM600.04 81.62V83.78H603.02V81.62H600.04ZM598.44 74.56V91.94H600.92V74.56H598.44ZM593.24 75.88C590.74 75.88 588.96 77.52 588.96 79.94C588.96 82.36 590.74 84.02 593.24 84.02C595.74 84.02 597.52 82.36 597.52 79.94C597.52 77.52 595.74 75.88 593.24 75.88ZM593.24 78C594.32 78 595.08 78.72 595.08 79.94C595.08 81.2 594.32 81.86 593.24 81.86C592.14 81.86 591.38 81.2 591.38 79.94C591.38 78.72 592.14 78 593.24 78ZM624.25 74.26V92.78H626.79V74.26H624.25ZM621.83 81.4V83.52H624.91V81.4H621.83ZM620.11 74.58V91.9H622.59V74.58H620.11ZM611.65 76.3V87H614.31V76.3H611.65ZM611.65 86V88.28H612.93C614.81 88.28 616.93 88.18 619.35 87.74L619.09 85.46C616.79 85.9 614.71 86 612.93 86H611.65ZM642.399 80.04V82.18H647.279V80.04H642.399ZM637.359 75.68V78.36C637.359 81.88 635.959 85.46 632.799 86.92L634.459 89.06C637.939 87.32 639.519 83.02 639.519 78.36V75.68H637.359ZM637.919 75.68V78.36C637.919 82.98 639.379 87.06 642.859 88.74L644.439 86.62C641.379 85.26 640.039 81.88 640.039 78.36V75.68H637.919ZM645.959 74.24V92.82H648.599V74.24H645.959ZM663.758 74.24V92.82H666.438V74.24H663.758ZM651.978 75.72V88.5H661.078V75.72H658.438V80.22H654.618V75.72H651.978ZM654.618 82.28H658.438V86.36H654.618V82.28ZM675.936 75.32V76.66C675.936 79.32 673.636 82.26 669.456 82.98L670.596 85.18C675.396 84.24 678.256 80.68 678.256 76.66V75.32H675.936ZM676.476 75.32V76.66C676.476 80.74 679.316 84.24 684.116 85.18L685.256 82.98C681.056 82.26 678.776 79.38 678.776 76.66V75.32H676.476ZM669.076 88.36V90.52H685.836V88.36H669.076ZM693.015 75.48C690.115 75.48 687.895 77.38 687.895 80.04C687.895 82.72 690.115 84.62 693.015 84.62C695.935 84.62 698.115 82.72 698.115 80.04C698.115 77.38 695.935 75.48 693.015 75.48ZM693.015 77.76C694.435 77.76 695.515 78.6 695.515 80.04C695.515 81.5 694.435 82.34 693.015 82.34C691.595 82.34 690.515 81.5 690.515 80.04C690.515 78.6 691.595 77.76 693.015 77.76ZM699.855 74.24V92.82H702.515V74.24H699.855ZM687.455 89.06C690.655 89.06 695.015 89.02 699.035 88.22L698.835 86.3C694.935 86.88 690.395 86.92 687.135 86.92L687.455 89.06ZM592.58 121.96V128.78H595.3V121.96H592.58ZM598.98 121.96V128.78H601.7V121.96H598.98ZM588.8 120.56V122.7H605.58V120.56H588.8ZM597.14 110.88C593.2 110.88 590.46 112.5 590.46 115.04C590.46 117.54 593.2 119.16 597.14 119.16C601.1 119.16 603.84 117.54 603.84 115.04C603.84 112.5 601.1 110.88 597.14 110.88ZM597.14 113C599.58 113 601.1 113.72 601.1 115.04C601.1 116.34 599.58 117.06 597.14 117.06C594.72 117.06 593.18 116.34 593.18 115.04C593.18 113.72 594.72 113 597.14 113ZM619.678 110.24V128.82H622.338V110.24H619.678ZM616.438 116.72V118.86H620.298V116.72H616.438ZM611.078 113.18V114.82C611.078 118.26 609.618 121.8 606.518 123.26L608.078 125.36C611.538 123.66 613.178 119.34 613.178 114.82V113.18H611.078ZM611.698 113.18V114.82C611.698 119.2 613.298 123.34 616.778 124.98L618.318 122.9C615.218 121.5 613.778 118.08 613.778 114.82V113.18H611.698ZM607.278 112.04V114.18H617.578V112.04H607.278ZM624.817 117.44V119.54H641.577V117.44H624.817ZM626.877 114.36V116.44H639.597V114.36H626.877ZM626.877 110.6V116.16H629.517V112.72H639.437V110.6H626.877ZM626.717 120.58V122.58H636.897V123.6H626.737V127.08H629.357V125.48H639.517V120.58H626.717ZM626.737 126.6V128.64H639.997V126.6H626.737ZM655.495 110.24V128.82H658.175V110.24H655.495ZM648.195 111.54C645.395 111.54 643.335 114.1 643.335 118.14C643.335 122.22 645.395 124.78 648.195 124.78C650.995 124.78 653.055 122.22 653.055 118.14C653.055 114.1 650.995 111.54 648.195 111.54ZM648.195 113.96C649.575 113.96 650.495 115.42 650.495 118.14C650.495 120.9 649.575 122.38 648.195 122.38C646.815 122.38 645.875 120.9 645.875 118.14C645.875 115.42 646.815 113.96 648.195 113.96ZM665.345 122.04V124.2H666.265C668.005 124.2 669.045 124.18 670.325 123.9L670.065 121.74C668.865 122.02 667.865 122.04 666.265 122.04H665.345ZM665.345 111.96V122.96H667.965V114.08H670.105V111.96H665.345ZM670.965 122.04V124.2H672.005C674.225 124.2 675.365 124.18 676.745 123.84L676.545 121.7C675.225 122 674.105 122.04 672.005 122.04H670.965ZM670.965 111.96V123.02H673.605V114.08H676.005V111.96H670.965ZM677.985 110.26V128.78H680.645V110.26H677.985ZM675.245 116.68V118.86H678.865V116.68H675.245ZM696.743 117.26V119.44H700.003V117.26H696.743ZM694.763 110.24V128.76H697.443V110.24H694.763ZM683.483 112.02V123.52H686.143V112.02H683.483ZM683.483 122.04V124.24H685.083C687.803 124.24 690.783 124.08 693.843 123.44L693.563 121.26C690.583 121.86 687.723 122.04 685.083 122.04H683.483ZM712.842 110.26V119.5H715.502V110.26H712.842ZM714.762 113.92V116.1H717.962V113.92H714.762ZM707.542 110.94V112.52C707.542 114.84 705.522 116.96 700.822 117.82L701.782 120C707.362 118.86 710.482 115.88 710.482 110.94H707.542ZM701.742 110.94V113.06H709.242V110.94H701.742ZM703.262 120.22V122.3H712.882V123.38H703.302V127.58H705.942V125.34H715.502V120.22H703.262ZM703.302 126.52V128.6H716.042V126.52H703.302ZM730.98 110.26V128.78H733.64V110.26H730.98ZM732.82 117.5V119.7H736.04V117.5H732.82ZM721.9 112.14V112.46C721.9 117.16 721.4 120.24 718.54 123.4L720.62 124.9C723.9 121.22 724.38 117.28 724.38 112.14H721.9ZM719.36 112.14V114.3H722.94V112.14H719.36ZM727 112.14V112.44C727 117.5 726.54 121.06 723.74 124.6L725.82 126.08C729.04 122.06 729.48 117.52 729.48 112.14H727ZM725 112.14V114.3H728.1V112.14H725ZM739.639 121.96H742.219C741.919 119.14 745.399 118.2 745.399 115.36C745.399 112.78 743.639 111.54 741.219 111.54C739.479 111.54 738.059 112.36 737.019 113.54L738.639 115.04C739.299 114.36 739.999 113.92 740.879 113.92C741.919 113.92 742.579 114.54 742.579 115.56C742.579 117.46 739.159 118.74 739.639 121.96ZM740.939 127.28C741.979 127.28 742.779 126.46 742.779 125.36C742.779 124.26 741.979 123.46 740.939 123.46C739.879 123.46 739.119 124.26 739.119 125.36C739.119 126.46 739.879 127.28 740.939 127.28Z" fill="#111111"/>
<g filter="url(#filter2_d_215_1106)">
<mask id="path-7-inside-3_215_1106" fill="white">
<path fill-rule="evenodd" clip-rule="evenodd" d="M963 28C940.909 28 923 45.9086 923 68V132C923 154.091 940.909 172 963 172H1184.53L1230.45 198.514C1233.12 200.054 1236.45 198.129 1236.45 195.05V171.482C1255.48 168.396 1270 151.894 1270 132V68C1270 45.9086 1252.09 28 1230 28H963Z"/>
</mask>
<path fill-rule="evenodd" clip-rule="evenodd" d="M963 28C940.909 28 923 45.9086 923 68V132C923 154.091 940.909 172 963 172H1184.53L1230.45 198.514C1233.12 200.054 1236.45 198.129 1236.45 195.05V171.482C1255.48 168.396 1270 151.894 1270 132V68C1270 45.9086 1252.09 28 1230 28H963Z" fill="white"/>
<path d="M1184.53 172L1185.03 171.134L1184.8 171H1184.53V172ZM1230.45 198.514L1230.95 197.648L1230.45 198.514ZM1236.45 171.482L1236.29 170.495L1235.45 170.631V171.482H1236.45ZM924 68C924 46.4609 941.461 29 963 29V27C940.356 27 922 45.3563 922 68H924ZM924 132V68H922V132H924ZM963 171C941.461 171 924 153.539 924 132H922C922 154.644 940.356 173 963 173V171ZM1184.53 171H963V173H1184.53V171ZM1230.95 197.648L1185.03 171.134L1184.03 172.866L1229.95 199.38L1230.95 197.648ZM1235.45 195.05C1235.45 197.359 1232.95 198.803 1230.95 197.648L1229.95 199.38C1233.29 201.304 1237.45 198.899 1237.45 195.05H1235.45ZM1235.45 171.482V195.05H1237.45V171.482H1235.45ZM1269 132C1269 151.396 1254.84 167.486 1236.29 170.495L1236.61 172.469C1256.11 169.306 1271 152.392 1271 132H1269ZM1269 68V132H1271V68H1269ZM1230 29C1251.54 29 1269 46.4609 1269 68H1271C1271 45.3563 1252.64 27 1230 27V29ZM963 29H1230V27H963V29Z" fill="#D2D7DC" mask="url(#path-7-inside-3_215_1106)"/>
</g>
<path d="M972.64 74.28V88.38H975.3V74.28H972.64ZM970.22 78.86V80.98H973.64V78.86H970.22ZM970.22 82.84V84.94H973.64V82.84H970.22ZM959.86 76.2V78.28H970.02V76.2H959.86ZM965.06 78.94C962.54 78.94 960.72 80.44 960.72 82.58C960.72 84.72 962.54 86.22 965.06 86.22C967.58 86.22 969.4 84.72 969.4 82.58C969.4 80.44 967.58 78.94 965.06 78.94ZM965.06 80.98C966.14 80.98 966.9 81.56 966.9 82.58C966.9 83.62 966.14 84.18 965.06 84.18C963.98 84.18 963.22 83.62 963.22 82.58C963.22 81.56 963.98 80.98 965.06 80.98ZM963.74 74.22V77.48H966.4V74.22H963.74ZM963.04 90.34V92.46H975.7V90.34H963.04ZM963.04 87.22V91.32H965.72V87.22H963.04ZM991.318 74.26V92.78H993.838V74.26H991.318ZM989.098 81.36V83.52H992.178V81.36H989.098ZM987.338 74.54V91.94H989.818V74.54H987.338ZM981.098 77.14V78.78C981.098 82.34 980.218 85.62 977.438 87.22L979.038 89.26C982.118 87.4 983.118 83.36 983.118 78.78V77.14H981.098ZM981.638 77.14V78.78C981.638 83.08 982.738 86.9 985.858 88.58L987.378 86.56C984.618 85.12 983.678 82.04 983.678 78.78V77.14H981.638ZM978.038 76.14V78.28H986.458V76.14H978.038ZM1003.71 85.96V92.78H1006.43V85.96H1003.71ZM1010.11 85.96V92.78H1012.83V85.96H1010.11ZM999.928 84.56V86.7H1016.71V84.56H999.928ZM1008.27 74.88C1004.33 74.88 1001.59 76.5 1001.59 79.04C1001.59 81.54 1004.33 83.16 1008.27 83.16C1012.23 83.16 1014.97 81.54 1014.97 79.04C1014.97 76.5 1012.23 74.88 1008.27 74.88ZM1008.27 77C1010.71 77 1012.23 77.72 1012.23 79.04C1012.23 80.34 1010.71 81.06 1008.27 81.06C1005.85 81.06 1004.31 80.34 1004.31 79.04C1004.31 77.72 1005.85 77 1008.27 77ZM1030.81 74.24V92.82H1033.47V74.24H1030.81ZM1027.57 80.72V82.86H1031.43V80.72H1027.57ZM1022.21 77.18V78.82C1022.21 82.26 1020.75 85.8 1017.65 87.26L1019.21 89.36C1022.67 87.66 1024.31 83.34 1024.31 78.82V77.18H1022.21ZM1022.83 77.18V78.82C1022.83 83.2 1024.43 87.34 1027.91 88.98L1029.45 86.9C1026.35 85.5 1024.91 82.08 1024.91 78.82V77.18H1022.83ZM1018.41 76.04V78.18H1028.71V76.04H1018.41ZM1035.95 81.44V83.54H1052.71V81.44H1035.95ZM1038.01 78.36V80.44H1050.73V78.36H1038.01ZM1038.01 74.6V80.16H1040.65V76.72H1050.57V74.6H1038.01ZM1037.85 84.58V86.58H1048.03V87.6H1037.87V91.08H1040.49V89.48H1050.65V84.58H1037.85ZM1037.87 90.6V92.64H1051.13V90.6H1037.87ZM1066.62 74.24V92.82H1069.3V74.24H1066.62ZM1059.32 75.54C1056.52 75.54 1054.46 78.1 1054.46 82.14C1054.46 86.22 1056.52 88.78 1059.32 88.78C1062.12 88.78 1064.18 86.22 1064.18 82.14C1064.18 78.1 1062.12 75.54 1059.32 75.54ZM1059.32 77.96C1060.7 77.96 1061.62 79.42 1061.62 82.14C1061.62 84.9 1060.7 86.38 1059.32 86.38C1057.94 86.38 1057 84.9 1057 82.14C1057 79.42 1057.94 77.96 1059.32 77.96ZM1079.39 75.38V77.52C1079.39 79.6 1078.37 81.88 1075.79 83.02L1077.19 85.08C1080.21 83.8 1081.47 80.66 1081.47 77.52V75.38H1079.39ZM1079.87 75.38V77.52C1079.87 80.54 1081.09 83.34 1083.97 84.48L1085.39 82.46C1082.95 81.5 1081.95 79.5 1081.95 77.52V75.38H1079.87ZM1089.31 74.28V85.58H1091.83V74.28H1089.31ZM1087.09 78.76V80.9H1090.03V78.76H1087.09ZM1085.39 74.62V85H1087.87V74.62H1085.39ZM1085.55 85.84C1081.65 85.84 1079.19 87.14 1079.19 89.32C1079.19 91.48 1081.65 92.78 1085.55 92.78C1089.43 92.78 1091.93 91.48 1091.93 89.32C1091.93 87.14 1089.43 85.84 1085.55 85.84ZM1085.55 87.84C1087.93 87.84 1089.25 88.34 1089.25 89.32C1089.25 90.3 1087.93 90.78 1085.55 90.78C1083.17 90.78 1081.83 90.3 1081.83 89.32C1081.83 88.34 1083.17 87.84 1085.55 87.84ZM1105.97 74.26V85H1108.63V74.26H1105.97ZM1107.89 78.56V80.76H1111.09V78.56H1107.89ZM1100.65 75.3V76.62C1100.65 79.42 1098.37 81.8 1093.81 82.96L1094.89 85C1100.39 83.58 1103.47 80.24 1103.47 75.3H1100.65ZM1094.73 75.3V77.4H1102.25V75.3H1094.73ZM1096.27 85.78V87.88H1105.97V92.78H1108.63V85.78H1096.27ZM1123.93 74.26V92.78H1126.57V74.26H1123.93ZM1125.97 81.48V83.7H1129.25V81.48H1125.97ZM1111.97 77V79.12H1122.75V77H1111.97ZM1117.39 80.16C1114.69 80.16 1112.69 82 1112.69 84.58C1112.69 87.16 1114.69 89 1117.39 89C1120.09 89 1122.09 87.16 1122.09 84.58C1122.09 82 1120.09 80.16 1117.39 80.16ZM1117.39 82.32C1118.65 82.32 1119.55 83.16 1119.55 84.58C1119.55 86 1118.65 86.84 1117.39 86.84C1116.13 86.84 1115.23 86 1115.23 84.58C1115.23 83.16 1116.13 82.32 1117.39 82.32ZM1116.05 74.56V77.8H1118.71V74.56H1116.05ZM1132.13 79.26V81.36H1144.97V79.26H1132.13ZM1130.05 83.28V85.4H1146.83V83.28H1130.05ZM1132.13 74.92V80.3H1134.77V74.92H1132.13ZM1131.95 90.26V92.38H1145.07V90.26H1131.95ZM1131.95 86.88V90.82H1134.61V86.88H1131.95ZM959.8 120.62V122.76H976.58V120.62H959.8ZM966.8 122V128.8H969.44V122H966.8ZM968.14 110.88C964.2 110.88 961.46 112.52 961.46 115.06C961.46 117.58 964.2 119.2 968.14 119.2C972.1 119.2 974.84 117.58 974.84 115.06C974.84 112.52 972.1 110.88 968.14 110.88ZM968.14 113C970.58 113 972.1 113.72 972.1 115.06C972.1 116.38 970.58 117.1 968.14 117.1C965.72 117.1 964.18 116.38 964.18 115.06C964.18 113.72 965.72 113 968.14 113ZM990.558 110.24V128.82H993.218V110.24H990.558ZM978.798 122.34V124.5H980.438C983.818 124.5 986.538 124.4 989.538 123.86L989.278 121.72C986.338 122.22 983.718 122.34 980.438 122.34H978.798ZM978.778 111.82V113.94H984.798V116.88H978.798V123.14H981.498V118.98H987.518V111.82H978.778ZM1141.89 110.24V128.76H1144.57V110.24H1141.89ZM1143.87 117.32V119.5H1147.13V117.32H1143.87ZM1137.03 112.16V112.62C1137.03 117.64 1134.73 121.04 1129.87 123.56L1131.35 125.58C1137.51 122.48 1139.63 117.72 1139.63 112.16H1137.03ZM1130.89 112.16V114.3H1138.39V112.16H1130.89ZM1154.24 110.92V113.02H1165.98V110.92H1154.24ZM1152.2 117.32V119.44H1168.96V117.32H1152.2ZM1159.22 118.78V122.48H1161.88V118.78H1159.22ZM1164.38 110.92V112.38C1164.38 113.94 1164.38 115.64 1163.8 118.02L1166.42 118.26C1167 115.84 1167 113.98 1167 112.38V110.92H1164.38ZM1160.56 121.64C1156.52 121.64 1154.04 122.96 1154.04 125.22C1154.04 127.5 1156.52 128.8 1160.56 128.8C1164.58 128.8 1167.06 127.5 1167.06 125.22C1167.06 122.96 1164.58 121.64 1160.56 121.64ZM1160.56 123.76C1163.08 123.76 1164.38 124.22 1164.38 125.22C1164.38 126.22 1163.08 126.7 1160.56 126.7C1158.04 126.7 1156.72 126.22 1156.72 125.22C1156.72 124.22 1158.04 123.76 1160.56 123.76ZM1172.24 111.08V113.2H1183.98V111.08H1172.24ZM1170.2 117.74V119.86H1186.96V117.74H1170.2ZM1182.38 111.08V112.56C1182.38 114.14 1182.38 115.84 1181.8 118.24L1184.44 118.28C1185 115.88 1185 114.16 1185 112.56V111.08H1182.38ZM1172.16 121.8V128.58H1184.92V121.8H1172.16ZM1182.3 123.86V126.48H1174.76V123.86H1182.3ZM1200.1 110.28V124.12H1202.76V110.28H1200.1ZM1202 115.92V118.1H1205.22V115.92H1202ZM1188.18 112.2V114.28H1199.08V112.2H1188.18ZM1193.64 114.94C1190.96 114.94 1189.08 116.4 1189.08 118.52C1189.08 120.64 1190.96 122.08 1193.64 122.08C1196.3 122.08 1198.18 120.64 1198.18 118.52C1198.18 116.4 1196.3 114.94 1193.64 114.94ZM1193.64 116.96C1194.82 116.96 1195.64 117.52 1195.64 118.52C1195.64 119.52 1194.82 120.06 1193.64 120.06C1192.46 120.06 1191.64 119.52 1191.64 118.52C1191.64 117.52 1192.46 116.96 1193.64 116.96ZM1192.3 110.24V113.22H1194.96V110.24H1192.3ZM1190.82 126.34V128.46H1203.42V126.34H1190.82ZM1190.82 123.08V127.26H1193.48V123.08H1190.82ZM1219.55 110.26V128.78H1222.09V110.26H1219.55ZM1212.51 117.02V119.16H1216.81V117.02H1212.51ZM1215.73 110.58V127.96H1218.21V110.58H1215.73ZM1206.71 122.48V124.68H1207.99C1210.69 124.68 1212.53 124.6 1214.59 124.18L1214.39 122.02C1212.35 122.42 1210.61 122.48 1207.99 122.48H1206.71ZM1206.71 112.34V123.4H1209.33V114.46H1213.77V112.34H1206.71ZM1226.89 121.96H1229.47C1229.17 119.14 1232.65 118.2 1232.65 115.36C1232.65 112.78 1230.89 111.54 1228.47 111.54C1226.73 111.54 1225.31 112.36 1224.27 113.54L1225.89 115.04C1226.55 114.36 1227.25 113.92 1228.13 113.92C1229.17 113.92 1229.83 114.54 1229.83 115.56C1229.83 117.46 1226.41 118.74 1226.89 121.96ZM1228.19 127.28C1229.23 127.28 1230.03 126.46 1230.03 125.36C1230.03 124.26 1229.23 123.46 1228.19 123.46C1227.13 123.46 1226.37 124.26 1226.37 125.36C1226.37 126.46 1227.13 127.28 1228.19 127.28Z" fill="#111111"/>
<path d="M999.948 124.4V126.58H1016.71V124.4H999.948ZM1001.71 111.46V121.34H1014.89V111.46H1012.25V114.46H1004.35V111.46H1001.71ZM1004.35 116.52H1012.25V119.24H1004.35V116.52ZM1031.19 110.26V124H1033.71V110.26H1031.19ZM1028.95 115.52V117.66H1031.89V115.52H1028.95ZM1027.23 110.6V123.64H1029.71V110.6H1027.23ZM1021.25 126.34V128.46H1034.19V126.34H1021.25ZM1021.25 122.72V127.14H1023.91V122.72H1021.25ZM1018.67 119.4V121.5H1019.95C1022.69 121.5 1024.49 121.44 1026.59 121.06L1026.37 118.96C1024.33 119.34 1022.61 119.4 1019.95 119.4H1018.67ZM1018.65 111.76V113.84H1023.11V115.6H1018.67V120.58H1021.25V117.54H1025.67V111.76H1018.65ZM1037.89 118.8V120.92H1050.91V118.8H1037.89ZM1035.95 124.38V126.56H1052.71V124.38H1035.95ZM1037.89 111.78V119.68H1040.53V113.94H1050.77V111.78H1037.89ZM1059.88 111.48C1056.98 111.48 1054.76 113.38 1054.76 116.04C1054.76 118.72 1056.98 120.62 1059.88 120.62C1062.8 120.62 1064.98 118.72 1064.98 116.04C1064.98 113.38 1062.8 111.48 1059.88 111.48ZM1059.88 113.76C1061.3 113.76 1062.38 114.6 1062.38 116.04C1062.38 117.5 1061.3 118.34 1059.88 118.34C1058.46 118.34 1057.38 117.5 1057.38 116.04C1057.38 114.6 1058.46 113.76 1059.88 113.76ZM1066.72 110.24V128.82H1069.38V110.24H1066.72ZM1054.32 125.06C1057.52 125.06 1061.88 125.02 1065.9 124.22L1065.7 122.3C1061.8 122.88 1057.26 122.92 1054 122.92L1054.32 125.06ZM1085.51 114.2V116.34H1089.81V114.2H1085.51ZM1080.29 111.4V113.4C1080.29 116.02 1079.01 118.58 1075.95 119.6L1077.35 121.68C1080.85 120.4 1082.43 117.18 1082.43 113.4V111.4H1080.29ZM1080.87 111.4V113.42C1080.87 116.92 1082.39 120.02 1085.71 121.22L1087.13 119.18C1084.21 118.18 1082.99 115.8 1082.99 113.42V111.4H1080.87ZM1088.89 110.28V123.94H1091.55V110.28H1088.89ZM1079.29 126.34V128.46H1091.95V126.34H1079.29ZM1079.29 122.56V127.52H1081.97V122.56H1079.29ZM1094.77 112.56V114.68H1110.05V112.56H1094.77ZM1094.07 124.78V126.92H1110.83V124.78H1094.07ZM1101.09 122.34V125.62H1103.73V122.34H1101.09ZM1102.39 115.48C1098.53 115.48 1096.11 116.82 1096.11 119.1C1096.11 121.38 1098.53 122.72 1102.39 122.72C1106.25 122.72 1108.67 121.38 1108.67 119.1C1108.67 116.82 1106.25 115.48 1102.39 115.48ZM1102.39 117.54C1104.71 117.54 1105.95 118.04 1105.95 119.1C1105.95 120.16 1104.71 120.64 1102.39 120.64C1100.07 120.64 1098.83 120.16 1098.83 119.1C1098.83 118.04 1100.07 117.54 1102.39 117.54ZM1101.09 110.46V113.88H1103.73V110.46H1101.09ZM1114.01 118.52V120.64H1127.03V118.52H1114.01ZM1112.07 124.52V126.7H1128.83V124.52H1112.07ZM1119.09 119.48V125.22H1121.75V119.48H1119.09ZM1114.01 111.52V119.44H1116.67V113.66H1126.89V111.52H1114.01Z" fill="#12E300"/>
<g filter="url(#filter3_d_215_1106)">
<mask id="path-10-inside-4_215_1106" fill="white">
<path fill-rule="evenodd" clip-rule="evenodd" d="M1450 28C1427.91 28 1410 45.9086 1410 68V132C1410 154.091 1427.91 172 1450 172H1589.53L1635.45 198.514C1638.12 200.054 1641.45 198.129 1641.45 195.05V171.482C1660.48 168.396 1675 151.894 1675 132V68C1675 45.9086 1657.09 28 1635 28H1450Z"/>
</mask>
<path fill-rule="evenodd" clip-rule="evenodd" d="M1450 28C1427.91 28 1410 45.9086 1410 68V132C1410 154.091 1427.91 172 1450 172H1589.53L1635.45 198.514C1638.12 200.054 1641.45 198.129 1641.45 195.05V171.482C1660.48 168.396 1675 151.894 1675 132V68C1675 45.9086 1657.09 28 1635 28H1450Z" fill="white"/>
<path d="M1589.53 172L1590.03 171.134L1589.8 171H1589.53V172ZM1635.45 198.514L1634.95 199.38L1635.45 198.514ZM1641.45 171.482L1641.29 170.495L1640.45 170.631V171.482H1641.45ZM1411 68C1411 46.4609 1428.46 29 1450 29V27C1427.36 27 1409 45.3563 1409 68H1411ZM1411 132V68H1409V132H1411ZM1450 171C1428.46 171 1411 153.539 1411 132H1409C1409 154.644 1427.36 173 1450 173V171ZM1589.53 171H1450V173H1589.53V171ZM1635.95 197.648L1590.03 171.134L1589.03 172.866L1634.95 199.38L1635.95 197.648ZM1640.45 195.05C1640.45 197.359 1637.95 198.803 1635.95 197.648L1634.95 199.38C1638.29 201.304 1642.45 198.899 1642.45 195.05H1640.45ZM1640.45 171.482V195.05H1642.45V171.482H1640.45ZM1674 132C1674 151.396 1659.84 167.486 1641.29 170.495L1641.61 172.469C1661.11 169.306 1676 152.392 1676 132H1674ZM1674 68V132H1676V68H1674ZM1635 29C1656.54 29 1674 46.4609 1674 68H1676C1676 45.3563 1657.64 27 1635 27V29ZM1450 29H1635V27H1450V29Z" fill="#D2D7DC" mask="url(#path-10-inside-4_215_1106)"/>
</g>
<path d="M1458.72 74.26V83.46H1461.38V74.26H1458.72ZM1460.32 78.12V80.3H1463.84V78.12H1460.32ZM1447.34 75.4V83.14H1456.16V75.4H1447.34ZM1453.54 77.48V81.06H1449.96V77.48H1453.54ZM1448.44 90.18V92.3H1449.46C1451.28 92.3 1452.72 92.22 1454.26 91.68L1453.86 89.6C1452.5 90.06 1451.08 90.18 1449.46 90.18H1448.44ZM1448.44 85.04V90.7H1451.02V85.04H1448.44ZM1453.6 85.22V87.1H1462.86V85.22H1453.6ZM1458.24 87.58C1456.12 87.58 1454.66 88.6 1454.66 90.18C1454.66 91.78 1456.12 92.78 1458.24 92.78C1460.34 92.78 1461.8 91.78 1461.8 90.18C1461.8 88.6 1460.34 87.58 1458.24 87.58ZM1458.24 89.38C1458.92 89.38 1459.44 89.64 1459.44 90.18C1459.44 90.74 1458.92 91 1458.24 91C1457.52 91 1457.02 90.74 1457.02 90.18C1457.02 89.64 1457.52 89.38 1458.24 89.38ZM1456.96 83.9V86.6H1459.54V83.9H1456.96ZM1464.8 83.7V85.82H1481.54V83.7H1464.8ZM1466.82 90.34V92.46H1479.66V90.34H1466.82ZM1466.82 87.06V91.02H1469.48V87.06H1466.82ZM1473.18 74.8C1469.14 74.8 1466.48 76.26 1466.48 78.62C1466.48 80.98 1469.14 82.44 1473.18 82.44C1477.2 82.44 1479.88 80.98 1479.88 78.62C1479.88 76.26 1477.2 74.8 1473.18 74.8ZM1473.18 76.92C1475.68 76.92 1477.14 77.5 1477.14 78.62C1477.14 79.76 1475.68 80.32 1473.18 80.32C1470.68 80.32 1469.22 79.76 1469.22 78.62C1469.22 77.5 1470.68 76.92 1473.18 76.92ZM1491.45 75.68V78.38C1491.45 81.98 1489.93 85.54 1486.71 86.94L1488.29 89.14C1491.97 87.44 1493.61 83.14 1493.61 78.38V75.68H1491.45ZM1491.97 75.68V78.38C1491.97 82.94 1493.61 87.06 1497.19 88.7L1498.75 86.56C1495.59 85.2 1494.13 81.8 1494.13 78.38V75.68H1491.97ZM1499.63 74.24V92.82H1502.31V74.24H1499.63ZM1516.83 74.26V87.52H1519.51V74.26H1516.83ZM1518.75 79.42V81.6H1521.97V79.42H1518.75ZM1511.67 75.64V76.96C1511.67 79.9 1509.33 82.38 1504.79 83.62L1505.91 85.74C1511.43 84.14 1514.51 80.68 1514.51 75.64H1511.67ZM1505.59 75.64V77.78H1513.11V75.64H1505.59ZM1507.53 90.34V92.46H1520.13V90.34H1507.53ZM1507.53 86.18V91.28H1510.21V86.18H1507.53ZM1531.31 74.52C1527.07 74.52 1524.61 75.64 1524.61 77.68C1524.61 79.72 1527.07 80.84 1531.31 80.84C1535.53 80.84 1538.01 79.72 1538.01 77.68C1538.01 75.64 1535.53 74.52 1531.31 74.52ZM1531.31 76.46C1533.99 76.46 1535.25 76.86 1535.25 77.68C1535.25 78.54 1533.99 78.9 1531.31 78.9C1528.63 78.9 1527.37 78.54 1527.37 77.68C1527.37 76.86 1528.63 76.46 1531.31 76.46ZM1522.93 81.7V83.8H1539.67V81.7H1522.93ZM1524.85 84.84V86.82H1535.03V87.76H1524.87V91.24H1527.49V89.6H1537.65V84.84H1524.85ZM1524.87 90.66V92.66H1538.13V90.66H1524.87ZM1545.07 81.44V83.54H1561.83V81.44H1545.07ZM1547.13 78.36V80.44H1559.85V78.36H1547.13ZM1547.13 74.6V80.16H1549.77V76.72H1559.69V74.6H1547.13ZM1546.97 84.58V86.58H1557.15V87.6H1546.99V91.08H1549.61V89.48H1559.77V84.58H1546.97ZM1546.99 90.6V92.64H1560.25V90.6H1546.99ZM1575.75 74.24V92.82H1578.43V74.24H1575.75ZM1568.45 75.54C1565.65 75.54 1563.59 78.1 1563.59 82.14C1563.59 86.22 1565.65 88.78 1568.45 88.78C1571.25 88.78 1573.31 86.22 1573.31 82.14C1573.31 78.1 1571.25 75.54 1568.45 75.54ZM1568.45 77.96C1569.83 77.96 1570.75 79.42 1570.75 82.14C1570.75 84.9 1569.83 86.38 1568.45 86.38C1567.07 86.38 1566.13 84.9 1566.13 82.14C1566.13 79.42 1567.07 77.96 1568.45 77.96ZM1585.51 77.18V79.26C1585.51 82.4 1584.01 85.82 1580.91 87.2L1582.41 89.3C1585.89 87.72 1587.63 83.54 1587.63 79.26V77.18H1585.51ZM1586.11 77.18V79.26C1586.11 83.38 1587.83 87.32 1591.35 88.84L1592.79 86.74C1589.69 85.46 1588.21 82.26 1588.21 79.26V77.18H1586.11ZM1581.65 76.04V78.22H1592.03V76.04H1581.65ZM1593.75 74.26V92.78H1596.43V74.26H1593.75ZM1608.24 75.14C1605.42 75.14 1603.3 76.94 1603.3 79.46C1603.3 82 1605.42 83.8 1608.24 83.8C1611.08 83.8 1613.18 82 1613.18 79.46C1613.18 76.94 1611.08 75.14 1608.24 75.14ZM1608.24 77.3C1609.6 77.3 1610.62 78.12 1610.62 79.46C1610.62 80.82 1609.6 81.64 1608.24 81.64C1606.9 81.64 1605.88 80.82 1605.88 79.46C1605.88 78.12 1606.9 77.3 1608.24 77.3ZM1615.1 74.26V83.38H1617.76V74.26H1615.1ZM1616.7 78.1V80.26H1620.22V78.1H1616.7ZM1604.82 90.18V92.3H1605.84C1607.66 92.3 1609.1 92.22 1610.64 91.68L1610.24 89.6C1608.88 90.06 1607.46 90.18 1605.84 90.18H1604.82ZM1604.82 85.16V90.82H1607.4V85.16H1604.82ZM1609.98 85.22V87.12H1619.24V85.22H1609.98ZM1614.62 87.58C1612.5 87.58 1611.04 88.6 1611.04 90.2C1611.04 91.8 1612.5 92.8 1614.62 92.8C1616.72 92.8 1618.18 91.8 1618.18 90.2C1618.18 88.6 1616.72 87.58 1614.62 87.58ZM1614.62 89.4C1615.3 89.4 1615.82 89.66 1615.82 90.2C1615.82 90.74 1615.3 91 1614.62 91C1613.9 91 1613.4 90.74 1613.4 90.2C1613.4 89.66 1613.9 89.4 1614.62 89.4ZM1613.34 83.9V86.64H1615.92V83.9H1613.34ZM1622.9 75.82V77.96H1634.64V75.82H1622.9ZM1621.2 88.4V90.56H1637.94V88.4H1621.2ZM1627.12 82.04V89.46H1629.78V82.04H1627.12ZM1633.68 75.82V77.6C1633.68 79.82 1633.68 82.5 1632.94 86.18L1635.6 86.48C1636.34 82.52 1636.34 79.92 1636.34 77.6V75.82H1633.68ZM1446.8 119.4V121.52H1463.56V119.4H1446.8ZM1454.06 120.74V124.64H1456.74V120.74H1454.06ZM1448.86 111.04V117.92H1461.44V111.04H1448.86ZM1458.82 113.12V115.84H1451.46V113.12H1458.82ZM1448.74 126.34V128.46H1461.72V126.34H1448.74ZM1448.74 123.08V127.04H1451.38V123.08H1448.74ZM1478.18 110.26V128.78H1480.7V110.26H1478.18ZM1472.08 116.58V118.74H1475.14V116.58H1472.08ZM1474.44 110.56V127.94H1476.92V110.56H1474.44ZM1468.08 113.28V115.18C1468.08 118.34 1467.14 121.66 1464.42 123.36L1466 125.32C1468.94 123.48 1470.08 119.34 1470.08 115.18V113.28H1468.08ZM1468.68 113.28V115.18C1468.68 119.26 1469.76 123.14 1472.7 124.88L1474.26 122.94C1471.58 121.38 1470.66 118.26 1470.66 115.18V113.28H1468.68ZM1465.12 112.12V114.26H1473.38V112.12H1465.12ZM1492.82 114.52V116.68H1496.34V114.52H1492.82ZM1495.64 110.26V120.96H1498.3V110.26H1495.64ZM1485.96 121.72V128.58H1498.3V121.72H1485.96ZM1495.7 123.8V126.48H1488.58V123.8H1495.7ZM1487.08 111.98V113.14C1487.08 115.48 1485.76 117.9 1482.7 118.9L1484.04 121C1487.6 119.84 1489.24 116.64 1489.24 113.14V111.98H1487.08ZM1487.64 111.98V113.14C1487.64 116.44 1489.22 119.52 1492.66 120.66L1493.96 118.56C1491.04 117.58 1489.78 115.3 1489.78 113.14V111.98H1487.64ZM1483.42 111.2V113.3H1493.38V111.2H1483.42ZM1509.18 110.52C1504.94 110.52 1502.48 111.64 1502.48 113.68C1502.48 115.72 1504.94 116.84 1509.18 116.84C1513.4 116.84 1515.88 115.72 1515.88 113.68C1515.88 111.64 1513.4 110.52 1509.18 110.52ZM1509.18 112.46C1511.86 112.46 1513.12 112.86 1513.12 113.68C1513.12 114.54 1511.86 114.9 1509.18 114.9C1506.5 114.9 1505.24 114.54 1505.24 113.68C1505.24 112.86 1506.5 112.46 1509.18 112.46ZM1500.8 117.7V119.8H1517.54V117.7H1500.8ZM1502.72 120.84V122.82H1512.9V123.76H1502.74V127.24H1505.36V125.6H1515.52V120.84H1502.72ZM1502.74 126.66V128.66H1516V126.66H1502.74ZM1534.85 110.26V119.5H1537.51V110.26H1534.85ZM1536.43 113.8V115.98H1539.95V113.8H1536.43ZM1525.27 120.24V122.28H1534.89V123.4H1525.31V127.52H1527.95V125.32H1537.51V120.24H1525.27ZM1525.31 126.5V128.58H1538.05V126.5H1525.31ZM1527.99 110.8C1525.17 110.8 1523.05 112.54 1523.05 115C1523.05 117.44 1525.17 119.2 1527.99 119.2C1530.83 119.2 1532.93 117.44 1532.93 115C1532.93 112.54 1530.83 110.8 1527.99 110.8ZM1527.99 112.94C1529.37 112.94 1530.37 113.7 1530.37 115C1530.37 116.3 1529.37 117.08 1527.99 117.08C1526.63 117.08 1525.63 116.3 1525.63 115C1525.63 113.7 1526.63 112.94 1527.99 112.94ZM1542.64 111.82V113.96H1554.38V111.82H1542.64ZM1540.94 124.4V126.56H1557.68V124.4H1540.94ZM1546.86 118.04V125.46H1549.52V118.04H1546.86ZM1553.42 111.82V113.6C1553.42 115.82 1553.42 118.5 1552.68 122.18L1555.34 122.48C1556.08 118.52 1556.08 115.92 1556.08 113.6V111.82H1553.42ZM1575.77 110.28V120.52H1578.45V110.28H1575.77ZM1567.39 110.9V112.68C1567.39 114.94 1566.07 117.26 1562.95 118.2L1564.25 120.28C1567.87 119.18 1569.59 116.1 1569.59 112.68V110.9H1567.39ZM1567.93 110.9V112.68C1567.93 116.04 1569.59 118.92 1573.15 119.98L1574.43 117.88C1571.41 117.02 1570.11 114.88 1570.11 112.68V110.9H1567.93ZM1565.93 121.36V123.46H1578.53V121.36H1565.93ZM1565.75 126.48V128.58H1578.71V126.48H1565.75ZM1568.11 122.14V127.72H1570.71V122.14H1568.11ZM1573.75 122.14V127.72H1576.37V122.14H1573.75ZM1586.13 111.54C1583.35 111.54 1581.35 114.1 1581.35 118.14C1581.35 122.22 1583.35 124.78 1586.13 124.78C1588.89 124.78 1590.91 122.22 1590.91 118.14C1590.91 114.1 1588.89 111.54 1586.13 111.54ZM1586.13 113.96C1587.49 113.96 1588.37 115.42 1588.37 118.14C1588.37 120.9 1587.49 122.38 1586.13 122.38C1584.79 122.38 1583.89 120.9 1583.89 118.14C1583.89 115.42 1584.79 113.96 1586.13 113.96ZM1593.95 110.24V128.82H1596.59V110.24H1593.95ZM1590.13 116.92V119.06H1595.07V116.92H1590.13ZM1600.99 121.96H1602.91L1603.33 114.58L1603.41 111.8H1600.47L1600.55 114.58L1600.99 121.96ZM1601.93 127.28C1602.99 127.28 1603.77 126.46 1603.77 125.36C1603.77 124.26 1602.99 123.46 1601.93 123.46C1600.89 123.46 1600.11 124.26 1600.11 125.36C1600.11 126.46 1600.89 127.28 1601.93 127.28Z" fill="#111111"/>
<g filter="url(#filter4_d_215_1106)">
<mask id="path-13-inside-5_215_1106" fill="white">
<path fill-rule="evenodd" clip-rule="evenodd" d="M1855 28C1832.91 28 1815 45.9086 1815 68V132C1815 154.091 1832.91 172 1855 172H2030.53L2076.45 198.514C2079.12 200.054 2082.45 198.129 2082.45 195.05V171.482C2101.48 168.396 2116 151.894 2116 132V68C2116 45.9086 2098.09 28 2076 28H1855Z"/>
</mask>
<path fill-rule="evenodd" clip-rule="evenodd" d="M1855 28C1832.91 28 1815 45.9086 1815 68V132C1815 154.091 1832.91 172 1855 172H2030.53L2076.45 198.514C2079.12 200.054 2082.45 198.129 2082.45 195.05V171.482C2101.48 168.396 2116 151.894 2116 132V68C2116 45.9086 2098.09 28 2076 28H1855Z" fill="white"/>
<path d="M2030.53 172L2031.03 171.134L2030.8 171H2030.53V172ZM2076.45 198.514L2076.95 197.648L2076.45 198.514ZM2082.45 171.482L2082.29 170.495L2081.45 170.631V171.482H2082.45ZM1816 68C1816 46.4609 1833.46 29 1855 29V27C1832.36 27 1814 45.3563 1814 68H1816ZM1816 132V68H1814V132H1816ZM1855 171C1833.46 171 1816 153.539 1816 132H1814C1814 154.644 1832.36 173 1855 173V171ZM2030.53 171H1855V173H2030.53V171ZM2076.95 197.648L2031.03 171.134L2030.03 172.866L2075.95 199.38L2076.95 197.648ZM2081.45 195.05C2081.45 197.359 2078.95 198.803 2076.95 197.648L2075.95 199.38C2079.29 201.304 2083.45 198.899 2083.45 195.05H2081.45ZM2081.45 171.482V195.05H2083.45V171.482H2081.45ZM2115 132C2115 151.396 2100.84 167.486 2082.29 170.495L2082.61 172.469C2102.11 169.306 2117 152.392 2117 132H2115ZM2115 68V132H2117V68H2115ZM2076 29C2097.54 29 2115 46.4609 2115 68H2117C2117 45.3563 2098.64 27 2076 27V29ZM1855 29H2076V27H1855V29Z" fill="#D2D7DC" mask="url(#path-13-inside-5_215_1106)"/>
</g>
<path d="M1856.88 75.54C1854.1 75.54 1852.1 78.1 1852.1 82.14C1852.1 86.22 1854.1 88.78 1856.88 88.78C1859.64 88.78 1861.66 86.22 1861.66 82.14C1861.66 78.1 1859.64 75.54 1856.88 75.54ZM1856.88 77.96C1858.24 77.96 1859.12 79.42 1859.12 82.14C1859.12 84.9 1858.24 86.38 1856.88 86.38C1855.54 86.38 1854.64 84.9 1854.64 82.14C1854.64 79.42 1855.54 77.96 1856.88 77.96ZM1864.7 74.24V92.82H1867.34V74.24H1864.7ZM1860.88 80.92V83.06H1865.82V80.92H1860.88ZM1872.64 90.34V92.46H1885.94V90.34H1872.64ZM1872.64 86.54V91.66H1875.32V86.54H1872.64ZM1882.84 74.28V87.68H1885.48V74.28H1882.84ZM1880.4 79.14V81.26H1885.12V79.14H1880.4ZM1870.06 82.96V85.08H1871C1872.66 85.08 1873.78 85.08 1875.22 84.78L1875.02 82.64C1873.66 82.92 1872.56 82.96 1871 82.96H1870.06ZM1870.06 75.66V83.36H1872.68V77.78H1874.92V75.66H1870.06ZM1875.8 82.96V85.08H1876.8C1879.24 85.08 1880.3 85.04 1881.58 84.76L1881.36 82.62C1880.16 82.92 1879.14 82.96 1876.8 82.96H1875.8ZM1875.8 75.66V83.34H1878.4V77.78H1880.94V75.66H1875.8ZM1893.65 75.82V77.96H1905.39V75.82H1893.65ZM1891.95 88.4V90.56H1908.69V88.4H1891.95ZM1897.87 82.04V89.46H1900.53V82.04H1897.87ZM1904.43 75.82V77.6C1904.43 79.82 1904.43 82.5 1903.69 86.18L1906.35 86.48C1907.09 82.52 1907.09 79.92 1907.09 77.6V75.82H1904.43ZM1923.19 74.26V85.1H1925.71V74.26H1923.19ZM1920.93 78.52V80.68H1923.89V78.52H1920.93ZM1919.15 74.6V85.04H1921.63V74.6H1919.15ZM1912.87 85.86V87.98H1923.07V92.78H1925.71V85.86H1912.87ZM1915.29 75.54V76.54C1915.29 79.58 1913.67 81.82 1909.73 83.28L1910.97 85.22C1915.77 83.34 1917.95 80.22 1917.95 75.54H1915.29ZM1910.61 75.54V77.66H1916.15V75.54H1910.61ZM1927.95 81.44V83.54H1944.71V81.44H1927.95ZM1930.01 78.36V80.44H1942.73V78.36H1930.01ZM1930.01 74.6V80.16H1932.65V76.72H1942.57V74.6H1930.01ZM1929.85 84.58V86.58H1940.03V87.6H1929.87V91.08H1932.49V89.48H1942.65V84.58H1929.85ZM1929.87 90.6V92.64H1943.13V90.6H1929.87ZM1958.62 74.24V92.82H1961.3V74.24H1958.62ZM1951.32 75.54C1948.52 75.54 1946.46 78.1 1946.46 82.14C1946.46 86.22 1948.52 88.78 1951.32 88.78C1954.12 88.78 1956.18 86.22 1956.18 82.14C1956.18 78.1 1954.12 75.54 1951.32 75.54ZM1951.32 77.96C1952.7 77.96 1953.62 79.42 1953.62 82.14C1953.62 84.9 1952.7 86.38 1951.32 86.38C1949.94 86.38 1949 84.9 1949 82.14C1949 79.42 1949.94 77.96 1951.32 77.96ZM1968.05 84.62V86.76H1984.83V84.62H1968.05ZM1975.05 86V92.8H1977.69V86H1975.05ZM1976.39 74.88C1972.45 74.88 1969.71 76.52 1969.71 79.06C1969.71 81.58 1972.45 83.2 1976.39 83.2C1980.35 83.2 1983.09 81.58 1983.09 79.06C1983.09 76.52 1980.35 74.88 1976.39 74.88ZM1976.39 77C1978.83 77 1980.35 77.72 1980.35 79.06C1980.35 80.38 1978.83 81.1 1976.39 81.1C1973.97 81.1 1972.43 80.38 1972.43 79.06C1972.43 77.72 1973.97 77 1976.39 77ZM1998.81 74.24V92.82H2001.47V74.24H1998.81ZM1987.05 86.34V88.5H1988.69C1992.07 88.5 1994.79 88.4 1997.79 87.86L1997.53 85.72C1994.59 86.22 1991.97 86.34 1988.69 86.34H1987.05ZM1987.03 75.82V77.94H1993.05V80.88H1987.05V87.14H1989.75V82.98H1995.77V75.82H1987.03ZM2017.52 80.04V82.18H2022.4V80.04H2017.52ZM2012.48 75.68V78.36C2012.48 81.88 2011.08 85.46 2007.92 86.92L2009.58 89.06C2013.06 87.32 2014.64 83.02 2014.64 78.36V75.68H2012.48ZM2013.04 75.68V78.36C2013.04 82.98 2014.5 87.06 2017.98 88.74L2019.56 86.62C2016.5 85.26 2015.16 81.88 2015.16 78.36V75.68H2013.04ZM2021.08 74.24V92.82H2023.72V74.24H2021.08ZM2038.88 74.24V92.82H2041.56V74.24H2038.88ZM2027.1 75.72V88.5H2036.2V75.72H2033.56V80.22H2029.74V75.72H2027.1ZM2029.74 82.28H2033.56V86.36H2029.74V82.28ZM2051.06 75.32V76.66C2051.06 79.32 2048.76 82.26 2044.58 82.98L2045.72 85.18C2050.52 84.24 2053.38 80.68 2053.38 76.66V75.32H2051.06ZM2051.6 75.32V76.66C2051.6 80.74 2054.44 84.24 2059.24 85.18L2060.38 82.98C2056.18 82.26 2053.9 79.38 2053.9 76.66V75.32H2051.6ZM2044.2 88.36V90.52H2060.96V88.36H2044.2ZM2069.58 81.08V83.22H2072.62V81.08H2069.58ZM2075.56 74.26V92.78H2078.1V74.26H2075.56ZM2071.78 74.54V91.94H2074.28V74.54H2071.78ZM2066.34 75.56C2063.9 75.56 2062.34 78.1 2062.34 82.28C2062.34 86.48 2063.9 89.02 2066.34 89.02C2068.8 89.02 2070.38 86.48 2070.38 82.28C2070.38 78.1 2068.8 75.56 2066.34 75.56ZM2066.34 78.06C2067.38 78.06 2067.96 79.46 2067.96 82.28C2067.96 85.12 2067.38 86.5 2066.34 86.5C2065.34 86.5 2064.76 85.12 2064.76 82.28C2064.76 79.46 2065.34 78.06 2066.34 78.06ZM1852.62 111.6V113.74H1860.54V111.6H1852.62ZM1854.9 115.92V120.56H1857.54V115.92H1854.9ZM1859.5 111.6V112.76C1859.5 114.04 1859.5 115.64 1859.1 117.92L1861.68 118.2C1862.12 115.9 1862.12 114.06 1862.12 112.76V111.6H1859.5ZM1863.92 110.26V124.12H1866.6V110.26H1863.92ZM1865.54 115.9V118.08H1868.8V115.9H1865.54ZM1854.24 126.34V128.46H1867.18V126.34H1854.24ZM1854.24 122.88V127H1856.9V122.88H1854.24ZM1851.78 121.64C1854.96 121.64 1859.26 121.56 1863.08 120.84L1862.92 118.96C1859.2 119.48 1854.74 119.54 1851.54 119.54L1851.78 121.64ZM1882.52 110.28V120.72H1885.2V110.28H1882.52ZM1872.88 121.58V128.58H1885.2V121.58H1872.88ZM1882.58 123.66V126.48H1875.48V123.66H1882.58ZM1874.14 110.94V112.72C1874.14 115 1872.82 117.36 1869.72 118.32L1871 120.42C1874.62 119.28 1876.34 116.16 1876.34 112.72V110.94H1874.14ZM1874.68 110.94V112.72C1874.68 116.12 1876.34 119.02 1879.88 120.08L1881.16 118.02C1878.16 117.12 1876.86 114.96 1876.86 112.72V110.94H1874.68ZM1896.18 110.52C1891.94 110.52 1889.48 111.64 1889.48 113.68C1889.48 115.72 1891.94 116.84 1896.18 116.84C1900.4 116.84 1902.88 115.72 1902.88 113.68C1902.88 111.64 1900.4 110.52 1896.18 110.52ZM1896.18 112.46C1898.86 112.46 1900.12 112.86 1900.12 113.68C1900.12 114.54 1898.86 114.9 1896.18 114.9C1893.5 114.9 1892.24 114.54 1892.24 113.68C1892.24 112.86 1893.5 112.46 1896.18 112.46ZM1887.8 117.7V119.8H1904.54V117.7H1887.8ZM1889.72 120.84V122.82H1899.9V123.76H1889.74V127.24H1892.36V125.6H1902.52V120.84H1889.72ZM1889.74 126.66V128.66H1903V126.66H1889.74ZM1921.77 110.24V128.76H1924.45V110.24H1921.77ZM1923.75 117.32V119.5H1927.01V117.32H1923.75ZM1916.91 112.16V112.62C1916.91 117.64 1914.61 121.04 1909.75 123.56L1911.23 125.58C1917.39 122.48 1919.51 117.72 1919.51 112.16H1916.91ZM1910.77 112.16V114.3H1918.27V112.16H1910.77ZM1940.65 110.26V119.74H1943.33V110.26H1940.65ZM1930.97 120.48V122.5H1940.69V123.6H1931.01V127.4H1933.61V125.46H1943.33V120.48H1930.97ZM1931.01 126.62V128.66H1943.79V126.62H1931.01ZM1932.43 112.02V112.74C1932.43 114.86 1931.09 117.02 1928.01 117.88L1929.23 119.96C1932.85 118.94 1934.59 116.02 1934.59 112.74V112.02H1932.43ZM1933 112.02V112.74C1933 115.84 1934.71 118.62 1938.27 119.58L1939.49 117.54C1936.47 116.72 1935.15 114.7 1935.15 112.74V112.02H1933ZM1928.71 111.1V113.2H1938.79V111.1H1928.71ZM1950.38 113.18V115.26C1950.38 118.4 1948.88 121.82 1945.78 123.2L1947.28 125.3C1950.76 123.72 1952.5 119.54 1952.5 115.26V113.18H1950.38ZM1950.98 113.18V115.26C1950.98 119.38 1952.7 123.32 1956.22 124.84L1957.66 122.74C1954.56 121.46 1953.08 118.26 1953.08 115.26V113.18H1950.98ZM1946.52 112.04V114.22H1956.9V112.04H1946.52ZM1958.62 110.26V128.78H1961.3V110.26H1958.62ZM1979.97 110.26V119.5H1982.63V110.26H1979.97ZM1981.55 113.8V115.98H1985.07V113.8H1981.55ZM1970.39 120.24V122.28H1980.01V123.4H1970.43V127.52H1973.07V125.32H1982.63V120.24H1970.39ZM1970.43 126.5V128.58H1983.17V126.5H1970.43ZM1973.11 110.8C1970.29 110.8 1968.17 112.54 1968.17 115C1968.17 117.44 1970.29 119.2 1973.11 119.2C1975.95 119.2 1978.05 117.44 1978.05 115C1978.05 112.54 1975.95 110.8 1973.11 110.8ZM1973.11 112.94C1974.49 112.94 1975.49 113.7 1975.49 115C1975.49 116.3 1974.49 117.08 1973.11 117.08C1971.75 117.08 1970.75 116.3 1970.75 115C1970.75 113.7 1971.75 112.94 1973.11 112.94ZM1987.77 111.82V113.96H1999.51V111.82H1987.77ZM1986.07 124.4V126.56H2002.81V124.4H1986.07ZM1991.99 118.04V125.46H1994.65V118.04H1991.99ZM1998.55 111.82V113.6C1998.55 115.82 1998.55 118.5 1997.81 122.18L2000.47 122.48C2001.21 118.52 2001.21 115.92 2001.21 113.6V111.82H1998.55ZM2020.9 110.28V120.52H2023.58V110.28H2020.9ZM2012.52 110.9V112.68C2012.52 114.94 2011.2 117.26 2008.08 118.2L2009.38 120.28C2013 119.18 2014.72 116.1 2014.72 112.68V110.9H2012.52ZM2013.06 110.9V112.68C2013.06 116.04 2014.72 118.92 2018.28 119.98L2019.56 117.88C2016.54 117.02 2015.24 114.88 2015.24 112.68V110.9H2013.06ZM2011.06 121.36V123.46H2023.66V121.36H2011.06ZM2010.88 126.48V128.58H2023.84V126.48H2010.88ZM2013.24 122.14V127.72H2015.84V122.14H2013.24ZM2018.88 122.14V127.72H2021.5V122.14H2018.88ZM2031.26 111.54C2028.48 111.54 2026.48 114.1 2026.48 118.14C2026.48 122.22 2028.48 124.78 2031.26 124.78C2034.02 124.78 2036.04 122.22 2036.04 118.14C2036.04 114.1 2034.02 111.54 2031.26 111.54ZM2031.26 113.96C2032.62 113.96 2033.5 115.42 2033.5 118.14C2033.5 120.9 2032.62 122.38 2031.26 122.38C2029.92 122.38 2029.02 120.9 2029.02 118.14C2029.02 115.42 2029.92 113.96 2031.26 113.96ZM2039.08 110.24V128.82H2041.72V110.24H2039.08ZM2035.26 116.92V119.06H2040.2V116.92H2035.26ZM2046.12 121.96H2048.04L2048.46 114.58L2048.54 111.8H2045.6L2045.68 114.58L2046.12 121.96ZM2047.06 127.28C2048.12 127.28 2048.9 126.46 2048.9 125.36C2048.9 124.26 2048.12 123.46 2047.06 123.46C2046.02 123.46 2045.24 124.26 2045.24 125.36C2045.24 126.46 2046.02 127.28 2047.06 127.28Z" fill="#111111"/>
<defs>
<filter id="filter0_d_215_1106" x="0" y="0" width="442" height="231.056" filterUnits="userSpaceOnUse" color-interpolation-filters="sRGB">
<feFlood flood-opacity="0" result="BackgroundImageFix"/>
<feColorMatrix in="SourceAlpha" type="matrix" values="0 0 0 0 0 0 0 0 0 0 0 0 0 0 0 0 0 0 127 0" result="hardAlpha"/>
<feOffset dy="2"/>
<feGaussianBlur stdDeviation="15"/>
<feComposite in2="hardAlpha" operator="out"/>
<feColorMatrix type="matrix" values="0 0 0 0 0.165747 0 0 0 0 0.2439 0 0 0 0 0.520987 0 0 0 0.1 0"/>
<feBlend mode="normal" in2="BackgroundImageFix" result="effect1_dropShadow_215_1106"/>
<feBlend mode="normal" in="SourceGraphic" in2="effect1_dropShadow_215_1106" result="shape"/>
</filter>
<filter id="filter1_d_215_1106" x="522" y="0" width="291" height="231.056" filterUnits="userSpaceOnUse" color-interpolation-filters="sRGB">
<feFlood flood-opacity="0" result="BackgroundImageFix"/>
<feColorMatrix in="SourceAlpha" type="matrix" values="0 0 0 0 0 0 0 0 0 0 0 0 0 0 0 0 0 0 127 0" result="hardAlpha"/>
<feOffset dy="2"/>
<feGaussianBlur stdDeviation="15"/>
<feComposite in2="hardAlpha" operator="out"/>
<feColorMatrix type="matrix" values="0 0 0 0 0.165747 0 0 0 0 0.2439 0 0 0 0 0.520987 0 0 0 0.1 0"/>
<feBlend mode="normal" in2="BackgroundImageFix" result="effect1_dropShadow_215_1106"/>
<feBlend mode="normal" in="SourceGraphic" in2="effect1_dropShadow_215_1106" result="shape"/>
</filter>
<filter id="filter2_d_215_1106" x="893" y="0" width="407" height="231.056" filterUnits="userSpaceOnUse" color-interpolation-filters="sRGB">
<feFlood flood-opacity="0" result="BackgroundImageFix"/>
<feColorMatrix in="SourceAlpha" type="matrix" values="0 0 0 0 0 0 0 0 0 0 0 0 0 0 0 0 0 0 127 0" result="hardAlpha"/>
<feOffset dy="2"/>
<feGaussianBlur stdDeviation="15"/>
<feComposite in2="hardAlpha" operator="out"/>
<feColorMatrix type="matrix" values="0 0 0 0 0.165747 0 0 0 0 0.2439 0 0 0 0 0.520987 0 0 0 0.1 0"/>
<feBlend mode="normal" in2="BackgroundImageFix" result="effect1_dropShadow_215_1106"/>
<feBlend mode="normal" in="SourceGraphic" in2="effect1_dropShadow_215_1106" result="shape"/>
</filter>
<filter id="filter3_d_215_1106" x="1380" y="0" width="325" height="231.056" filterUnits="userSpaceOnUse" color-interpolation-filters="sRGB">
<feFlood flood-opacity="0" result="BackgroundImageFix"/>
<feColorMatrix in="SourceAlpha" type="matrix" values="0 0 0 0 0 0 0 0 0 0 0 0 0 0 0 0 0 0 127 0" result="hardAlpha"/>
<feOffset dy="2"/>
<feGaussianBlur stdDeviation="15"/>
<feComposite in2="hardAlpha" operator="out"/>
<feColorMatrix type="matrix" values="0 0 0 0 0.165747 0 0 0 0 0.2439 0 0 0 0 0.520987 0 0 0 0.1 0"/>
<feBlend mode="normal" in2="BackgroundImageFix" result="effect1_dropShadow_215_1106"/>
<feBlend mode="normal" in="SourceGraphic" in2="effect1_dropShadow_215_1106" result="shape"/>
</filter>
<filter id="filter4_d_215_1106" x="1785" y="0" width="361" height="231.056" filterUnits="userSpaceOnUse" color-interpolation-filters="sRGB">
<feFlood flood-opacity="0" result="BackgroundImageFix"/>
<feColorMatrix in="SourceAlpha" type="matrix" values="0 0 0 0 0 0 0 0 0 0 0 0 0 0 0 0 0 0 127 0" result="hardAlpha"/>
<feOffset dy="2"/>
<feGaussianBlur stdDeviation="15"/>
<feComposite in2="hardAlpha" operator="out"/>
<feColorMatrix type="matrix" values="0 0 0 0 0.165747 0 0 0 0 0.2439 0 0 0 0 0.520987 0 0 0 0.1 0"/>
<feBlend mode="normal" in2="BackgroundImageFix" result="effect1_dropShadow_215_1106"/>
<feBlend mode="normal" in="SourceGraphic" in2="effect1_dropShadow_215_1106" result="shape"/>
</filter>
</defs>
</svg>
