<svg width="2020" height="232" viewBox="0 0 2020 232" fill="none" xmlns="http://www.w3.org/2000/svg">
<g filter="url(#filter0_d_215_1080)">
<mask id="path-1-inside-1_215_1080" fill="white">
<path fill-rule="evenodd" clip-rule="evenodd" d="M70 28C47.9086 28 30 45.9086 30 68V132C30 154.091 47.9086 172 70 172H248.531L294.454 198.514C297.121 200.054 300.454 198.129 300.454 195.05V171.482C319.477 168.396 334 151.894 334 132V68C334 45.9086 316.091 28 294 28H70Z"/>
</mask>
<path fill-rule="evenodd" clip-rule="evenodd" d="M70 28C47.9086 28 30 45.9086 30 68V132C30 154.091 47.9086 172 70 172H248.531L294.454 198.514C297.121 200.054 300.454 198.129 300.454 195.05V171.482C319.477 168.396 334 151.894 334 132V68C334 45.9086 316.091 28 294 28H70Z" fill="white"/>
<path fill-rule="evenodd" clip-rule="evenodd" d="M70 28C47.9086 28 30 45.9086 30 68V132C30 154.091 47.9086 172 70 172H248.531L294.454 198.514C297.121 200.054 300.454 198.129 300.454 195.05V171.482C319.477 168.396 334 151.894 334 132V68C334 45.9086 316.091 28 294 28H70Z" fill="url(#paint0_linear_215_1080)"/>
<path d="M248.531 172L249.031 171.134L248.799 171H248.531V172ZM294.454 198.514L294.954 197.648L294.454 198.514ZM300.454 171.482L300.294 170.495L299.454 170.631V171.482H300.454ZM31 68C31 46.4609 48.4609 29 70 29V27C47.3563 27 29 45.3563 29 68H31ZM31 132V68H29V132H31ZM70 171C48.4609 171 31 153.539 31 132H29C29 154.644 47.3563 173 70 173V171ZM248.531 171H70V173H248.531V171ZM294.954 197.648L249.031 171.134L248.031 172.866L293.954 199.38L294.954 197.648ZM299.454 195.05C299.454 197.359 296.954 198.803 294.954 197.648L293.954 199.38C297.287 201.304 301.454 198.899 301.454 195.05H299.454ZM299.454 171.482V195.05H301.454V171.482H299.454ZM333 132C333 151.396 318.84 167.486 300.294 170.495L300.614 172.469C320.113 169.306 335 152.392 335 132H333ZM333 68V132H335V68H333ZM294 29C315.539 29 333 46.4609 333 68H335C335 45.3563 316.644 27 294 27V29ZM70 29H294V27H70V29Z" fill="#D2D7DC" mask="url(#path-1-inside-1_215_1080)"/>
</g>
<path d="M73.5 91.28C77.12 91.28 79.22 89.26 79.22 84.36V76.2H76.38V84.62C76.38 87.68 75.24 88.72 73.5 88.72C71.76 88.72 70.68 87.68 70.68 84.62V76.2H67.74V84.36C67.74 89.26 69.88 91.28 73.5 91.28ZM85.3209 91H88.2809V78.66H92.4609V76.2H81.1409V78.66H85.3209V91Z" fill="#12DF00"/>
<path d="M93.4609 82.56V84.5H110.241V82.56H93.4609ZM95.3409 85.42V87.22H105.621V88.14H95.3809V91.4H98.0209V89.82H108.241V85.42H95.3409ZM95.3809 90.84V92.64H108.761V90.84H95.3809ZM95.5209 74.58V76.36H105.581V77.28H95.5409V80.46H98.1809V78.94H108.201V74.58H95.5209ZM95.5409 79.9V81.7H108.541V79.9H95.5409ZM115.571 77.04V79.16H124.431V77.04H115.571ZM120.031 79.98C117.691 79.98 115.971 81.8 115.971 84.4C115.971 86.98 117.691 88.8 120.031 88.8C122.391 88.8 124.091 86.98 124.091 84.4C124.091 81.8 122.391 79.98 120.031 79.98ZM120.031 82.2C121.031 82.2 121.751 83 121.751 84.4C121.751 85.8 121.031 86.58 120.031 86.58C119.031 86.58 118.331 85.8 118.331 84.4C118.331 83 119.031 82.2 120.031 82.2ZM128.971 74.26V92.78H131.511V74.26H128.971ZM126.751 81.78V83.92H129.811V81.78H126.751ZM125.091 74.6V92H127.571V74.6H125.091ZM118.731 74.76V78.38H121.351V74.76H118.731ZM133.609 88.48V90.64H150.369V88.48H133.609ZM140.629 84.52V89H143.289V84.52H140.629ZM135.369 75.44V85.08H148.549V75.44H145.909V78.28H138.009V75.44H135.369ZM138.009 80.36H145.909V82.96H138.009V80.36ZM153.307 75.82V77.96H165.047V75.82H153.307ZM151.607 88.4V90.56H168.347V88.4H151.607ZM157.527 82.04V89.46H160.187V82.04H157.527ZM164.087 75.82V77.6C164.087 79.82 164.087 82.5 163.347 86.18L166.007 86.48C166.747 82.52 166.747 79.92 166.747 77.6V75.82H164.087ZM186.437 74.28V84.52H189.117V74.28H186.437ZM178.057 74.9V76.68C178.057 78.94 176.737 81.26 173.617 82.2L174.917 84.28C178.537 83.18 180.257 80.1 180.257 76.68V74.9H178.057ZM178.597 74.9V76.68C178.597 80.04 180.257 82.92 183.817 83.98L185.097 81.88C182.077 81.02 180.777 78.88 180.777 76.68V74.9H178.597ZM176.597 85.36V87.46H189.197V85.36H176.597ZM176.417 90.48V92.58H189.377V90.48H176.417ZM178.777 86.14V91.72H181.377V86.14H178.777ZM184.417 86.14V91.72H187.037V86.14H184.417ZM191.716 83.7V85.82H208.456V83.7H191.716ZM193.736 90.34V92.46H206.576V90.34H193.736ZM193.736 87.06V91.02H196.396V87.06H193.736ZM200.096 74.8C196.056 74.8 193.396 76.26 193.396 78.62C193.396 80.98 196.056 82.44 200.096 82.44C204.116 82.44 206.796 80.98 206.796 78.62C206.796 76.26 204.116 74.8 200.096 74.8ZM200.096 76.92C202.596 76.92 204.056 77.5 204.056 78.62C204.056 79.76 202.596 80.32 200.096 80.32C197.596 80.32 196.136 79.76 196.136 78.62C196.136 77.5 197.596 76.92 200.096 76.92ZM223.094 74.26V92.78H225.634V74.26H223.094ZM216.054 81.02V83.16H220.354V81.02H216.054ZM219.274 74.58V91.96H221.754V74.58H219.274ZM210.254 86.48V88.68H211.534C214.234 88.68 216.074 88.6 218.134 88.18L217.934 86.02C215.894 86.42 214.154 86.48 211.534 86.48H210.254ZM210.254 76.34V87.4H212.874V78.46H217.314V76.34H210.254ZM71.88 111.54C69.1 111.54 67.1 114.1 67.1 118.14C67.1 122.22 69.1 124.78 71.88 124.78C74.64 124.78 76.66 122.22 76.66 118.14C76.66 114.1 74.64 111.54 71.88 111.54ZM71.88 113.96C73.24 113.96 74.12 115.42 74.12 118.14C74.12 120.9 73.24 122.38 71.88 122.38C70.54 122.38 69.64 120.9 69.64 118.14C69.64 115.42 70.54 113.96 71.88 113.96ZM79.7 110.24V128.82H82.34V110.24H79.7ZM75.88 116.92V119.06H80.82V116.92H75.88ZM87.1184 121.04V123.04H100.718V121.04H87.1184ZM93.8984 123.6C90.5184 123.6 88.4784 124.54 88.4784 126.22C88.4784 127.88 90.5184 128.8 93.8984 128.8C97.2984 128.8 99.3184 127.88 99.3184 126.22C99.3184 124.54 97.2984 123.6 93.8984 123.6ZM93.8984 125.42C95.5584 125.42 96.4584 125.64 96.4584 126.22C96.4584 126.78 95.5584 127.02 93.8984 127.02C92.2384 127.02 91.3184 126.78 91.3184 126.22C91.3184 125.64 92.2384 125.42 93.8984 125.42ZM92.5984 119.6V122.34H95.2584V119.6H92.5984ZM85.0584 116.92V118.98H85.9984C87.5984 118.98 88.7584 118.96 90.2784 118.66L90.0784 116.6C88.6584 116.88 87.5184 116.92 85.9984 116.92H85.0584ZM85.0584 111V118.4H87.6784V113.04H89.8984V111H85.0584ZM90.7584 116.92V118.98H91.7584C94.1984 118.98 95.2784 118.94 96.5384 118.64L96.3584 116.58C95.1184 116.88 94.0984 116.92 91.7584 116.92H90.7584ZM90.7584 111V118.4H93.3784V113.04H95.9184V111H90.7584ZM97.8384 110.26V120.12H100.478V110.26H97.8384ZM95.4384 113.84V115.82H99.3384V113.84H95.4384ZM116.217 110.26V128.78H118.757V110.26H116.217ZM108.877 117.36V119.46H112.837V117.36H108.877ZM112.317 110.66V127.96H114.797V110.66H112.317ZM108.277 112.44V112.98C108.277 117.46 106.777 120.54 102.557 123.08L104.057 124.94C109.257 121.92 110.837 117.72 110.837 112.44H108.277ZM103.597 112.44V114.56H109.117V112.44H103.597ZM129.427 112.32V113.88C129.427 116.22 128.087 118.62 125.007 119.62L126.367 121.7C129.927 120.54 131.627 117.38 131.627 113.88V112.32H129.427ZM129.967 112.32V113.88C129.967 117.24 131.647 120.26 135.127 121.36L136.487 119.3C133.467 118.34 132.147 116.08 132.147 113.88V112.32H129.967ZM125.707 111.58V113.68H135.787V111.58H125.707ZM137.647 110.28V123.64H140.327V110.28H137.647ZM127.987 126.34V128.46H140.787V126.34H127.987ZM127.987 122.44V127.4H130.647V122.44H127.987ZM156.185 110.26V121.86H158.705V110.26H156.185ZM153.925 114.82V116.98H156.885V114.82H153.925ZM152.345 110.62V121.26H154.825V110.62H152.345ZM142.845 112.16V114.2H151.825V112.16H142.845ZM147.365 114.8C145.045 114.8 143.365 116.12 143.365 118.04C143.365 119.96 145.045 121.26 147.365 121.26C149.685 121.26 151.365 119.96 151.365 118.04C151.365 116.12 149.685 114.8 147.365 114.8ZM147.365 116.7C148.325 116.7 148.985 117.18 148.985 118.04C148.985 118.9 148.325 119.38 147.365 119.38C146.385 119.38 145.725 118.9 145.725 118.04C145.725 117.18 146.385 116.7 147.365 116.7ZM146.025 110.44V113.56H148.645V110.44H146.025ZM152.445 122.06C148.465 122.06 146.065 123.26 146.065 125.42C146.065 127.56 148.465 128.78 152.445 128.78C156.405 128.78 158.805 127.56 158.805 125.42C158.805 123.26 156.405 122.06 152.445 122.06ZM152.445 124.04C154.905 124.04 156.145 124.46 156.145 125.42C156.145 126.36 154.905 126.8 152.445 126.8C149.965 126.8 148.725 126.36 148.725 125.42C148.725 124.46 149.965 124.04 152.445 124.04ZM172.803 110.26V128.78H175.443V110.26H172.803ZM174.843 117.48V119.7H178.123V117.48H174.843ZM160.843 113V115.12H171.623V113H160.843ZM166.263 116.16C163.563 116.16 161.563 118 161.563 120.58C161.563 123.16 163.563 125 166.263 125C168.963 125 170.963 123.16 170.963 120.58C170.963 118 168.963 116.16 166.263 116.16ZM166.263 118.32C167.523 118.32 168.423 119.16 168.423 120.58C168.423 122 167.523 122.84 166.263 122.84C165.003 122.84 164.103 122 164.103 120.58C164.103 119.16 165.003 118.32 166.263 118.32ZM164.923 110.56V113.8H167.583V110.56H164.923ZM181.002 115.26V117.36H193.842V115.26H181.002ZM178.922 119.28V121.4H195.702V119.28H178.922ZM181.002 110.92V116.3H183.642V110.92H181.002ZM180.822 126.26V128.38H193.942V126.26H180.822ZM180.822 122.88V126.82H183.482V122.88H180.822ZM201.38 113.18V115.26C201.38 118.4 199.88 121.82 196.78 123.2L198.28 125.3C201.76 123.72 203.5 119.54 203.5 115.26V113.18H201.38ZM201.98 113.18V115.26C201.98 119.38 203.7 123.32 207.22 124.84L208.66 122.74C205.56 121.46 204.08 118.26 204.08 115.26V113.18H201.98ZM197.52 112.04V114.22H207.9V112.04H197.52ZM209.62 110.26V128.78H212.3V110.26H209.62ZM219.07 124.48V126.64H235.83V124.48H219.07ZM226.09 120.38V124.98H228.75V120.38H226.09ZM220.81 111.62V120.72H233.99V111.62H220.81ZM231.39 113.74V118.62H223.43V113.74H231.39ZM237.068 124.52V126.7H253.828V124.52H237.068ZM238.948 111.5V113.62H249.308V115.6H238.988V120.78H241.628V117.68H251.948V111.5H238.948ZM238.988 119.74V121.86H252.368V119.74H238.988ZM260.487 111.52V112.48C260.487 115.62 258.907 117.86 255.047 119.38L256.347 121.32C261.087 119.36 263.167 116.2 263.167 111.52H260.487ZM256.007 111.52V113.66H261.527V111.52H256.007ZM268.307 110.26V120.78H270.827V110.26H268.307ZM261.007 115.08V117.18H264.927V115.08H261.007ZM264.547 110.62V120.54H267.027V110.62H264.547ZM259.327 121.36V122.18C259.327 124 258.287 125.86 255.867 126.7L257.167 128.64C260.067 127.58 261.307 125 261.307 122.18V121.36H259.327ZM259.987 121.36V122.18C259.987 124.92 261.047 127.7 263.987 128.8L265.067 126.86C262.787 125.9 261.887 124 261.887 122.18V121.36H259.987ZM266.047 121.36V122.18C266.047 123.82 265.147 125.82 262.867 126.86L263.987 128.8C266.867 127.66 267.947 124.76 267.947 122.18V121.36H266.047ZM266.667 121.36V122.18C266.667 125.12 267.887 127.62 270.827 128.64L272.107 126.7C269.687 125.94 268.667 124.12 268.667 122.18V121.36H266.667ZM278.125 111.54C275.345 111.54 273.345 114.1 273.345 118.14C273.345 122.22 275.345 124.78 278.125 124.78C280.885 124.78 282.905 122.22 282.905 118.14C282.905 114.1 280.885 111.54 278.125 111.54ZM278.125 113.96C279.485 113.96 280.365 115.42 280.365 118.14C280.365 120.9 279.485 122.38 278.125 122.38C276.785 122.38 275.885 120.9 275.885 118.14C275.885 115.42 276.785 113.96 278.125 113.96ZM285.945 110.24V128.82H288.585V110.24H285.945ZM282.125 116.92V119.06H287.065V116.92H282.125ZM292.984 121.96H294.904L295.324 114.58L295.404 111.8H292.464L292.544 114.58L292.984 121.96ZM293.924 127.28C294.984 127.28 295.764 126.46 295.764 125.36C295.764 124.26 294.984 123.46 293.924 123.46C292.884 123.46 292.104 124.26 292.104 125.36C292.104 126.46 292.884 127.28 293.924 127.28Z" fill="#111111"/>
<g filter="url(#filter1_d_215_1080)">
<mask id="path-4-inside-2_215_1080" fill="white">
<path fill-rule="evenodd" clip-rule="evenodd" d="M514 28C491.909 28 474 45.9086 474 68V132C474 154.091 491.909 172 514 172H623.531L669.454 198.514C672.121 200.054 675.454 198.129 675.454 195.05V171.482C694.477 168.396 709 151.894 709 132V68C709 45.9086 691.091 28 669 28H514Z"/>
</mask>
<path fill-rule="evenodd" clip-rule="evenodd" d="M514 28C491.909 28 474 45.9086 474 68V132C474 154.091 491.909 172 514 172H623.531L669.454 198.514C672.121 200.054 675.454 198.129 675.454 195.05V171.482C694.477 168.396 709 151.894 709 132V68C709 45.9086 691.091 28 669 28H514Z" fill="white"/>
<path fill-rule="evenodd" clip-rule="evenodd" d="M514 28C491.909 28 474 45.9086 474 68V132C474 154.091 491.909 172 514 172H623.531L669.454 198.514C672.121 200.054 675.454 198.129 675.454 195.05V171.482C694.477 168.396 709 151.894 709 132V68C709 45.9086 691.091 28 669 28H514Z" fill="url(#paint1_linear_215_1080)"/>
<path d="M623.531 172L624.031 171.134L623.799 171H623.531V172ZM669.454 198.514L668.954 199.38L669.454 198.514ZM675.454 171.482L675.294 170.495L674.454 170.631V171.482H675.454ZM475 68C475 46.4609 492.461 29 514 29V27C491.356 27 473 45.3563 473 68H475ZM475 132V68H473V132H475ZM514 171C492.461 171 475 153.539 475 132H473C473 154.644 491.356 173 514 173V171ZM623.531 171H514V173H623.531V171ZM669.954 197.648L624.031 171.134L623.031 172.866L668.954 199.38L669.954 197.648ZM674.454 195.05C674.454 197.359 671.954 198.803 669.954 197.648L668.954 199.38C672.287 201.304 676.454 198.899 676.454 195.05H674.454ZM674.454 171.482V195.05H676.454V171.482H674.454ZM708 132C708 151.396 693.84 167.486 675.294 170.495L675.614 172.469C695.113 169.306 710 152.392 710 132H708ZM708 68V132H710V68H708ZM669 29C690.539 29 708 46.4609 708 68H710C710 45.3563 691.644 27 669 27V29ZM514 29H669V27H514V29Z" fill="#D2D7DC" mask="url(#path-4-inside-2_215_1080)"/>
</g>
<path d="M514 83.48V87.22H516.48V83.48H514ZM510.88 88.82C513.18 88.82 516.96 88.74 519.86 88.16L519.68 86.24C516.88 86.64 512.96 86.68 510.56 86.68L510.88 88.82ZM524.28 74.26V92.78H526.8V74.26H524.28ZM522.04 81.62V83.78H525.02V81.62H522.04ZM520.44 74.56V91.94H522.92V74.56H520.44ZM515.24 75.88C512.74 75.88 510.96 77.52 510.96 79.94C510.96 82.36 512.74 84.02 515.24 84.02C517.74 84.02 519.52 82.36 519.52 79.94C519.52 77.52 517.74 75.88 515.24 75.88ZM515.24 78C516.32 78 517.08 78.72 517.08 79.94C517.08 81.2 516.32 81.86 515.24 81.86C514.14 81.86 513.38 81.2 513.38 79.94C513.38 78.72 514.14 78 515.24 78ZM532.93 84.62V86.76H549.71V84.62H532.93ZM539.93 86V92.8H542.57V86H539.93ZM541.27 74.88C537.33 74.88 534.59 76.52 534.59 79.06C534.59 81.58 537.33 83.2 541.27 83.2C545.23 83.2 547.97 81.58 547.97 79.06C547.97 76.52 545.23 74.88 541.27 74.88ZM541.27 77C543.71 77 545.23 77.72 545.23 79.06C545.23 80.38 543.71 81.1 541.27 81.1C538.85 81.1 537.31 80.38 537.31 79.06C537.31 77.72 538.85 77 541.27 77ZM563.688 74.24V92.82H566.348V74.24H563.688ZM551.928 86.34V88.5H553.568C556.948 88.5 559.668 88.4 562.668 87.86L562.408 85.72C559.468 86.22 556.848 86.34 553.568 86.34H551.928ZM551.908 75.82V77.94H557.928V80.88H551.928V87.14H554.628V82.98H560.648V75.82H551.908ZM582.398 80.04V82.18H587.278V80.04H582.398ZM577.358 75.68V78.36C577.358 81.88 575.958 85.46 572.798 86.92L574.458 89.06C577.938 87.32 579.518 83.02 579.518 78.36V75.68H577.358ZM577.918 75.68V78.36C577.918 82.98 579.378 87.06 582.858 88.74L584.438 86.62C581.378 85.26 580.038 81.88 580.038 78.36V75.68H577.918ZM585.958 74.24V92.82H588.598V74.24H585.958ZM603.756 74.24V92.82H606.436V74.24H603.756ZM591.976 75.72V88.5H601.076V75.72H598.436V80.22H594.616V75.72H591.976ZM594.616 82.28H598.436V86.36H594.616V82.28ZM615.935 75.32V76.66C615.935 79.32 613.635 82.26 609.455 82.98L610.595 85.18C615.395 84.24 618.255 80.68 618.255 76.66V75.32H615.935ZM616.475 75.32V76.66C616.475 80.74 619.315 84.24 624.115 85.18L625.255 82.98C621.055 82.26 618.775 79.38 618.775 76.66V75.32H616.475ZM609.075 88.36V90.52H625.835V88.36H609.075ZM629.133 79.26V81.36H641.973V79.26H629.133ZM627.053 83.28V85.4H643.833V83.28H627.053ZM629.133 74.92V80.3H631.773V74.92H629.133ZM628.953 90.26V92.38H642.073V90.26H628.953ZM628.953 86.88V90.82H631.613V86.88H628.953ZM512.52 111.82V113.96H524.26V111.82H512.52ZM510.82 124.4V126.56H527.56V124.4H510.82ZM516.74 118.04V125.46H519.4V118.04H516.74ZM523.3 111.82V113.6C523.3 115.82 523.3 118.5 522.56 122.18L525.22 122.48C525.96 118.52 525.96 115.92 525.96 113.6V111.82H523.3ZM542.058 110.26V121.1H544.578V110.26H542.058ZM539.798 114.52V116.68H542.758V114.52H539.798ZM538.018 110.6V121.04H540.498V110.6H538.018ZM531.738 121.86V123.98H541.938V128.78H544.578V121.86H531.738ZM534.158 111.54V112.54C534.158 115.58 532.538 117.82 528.598 119.28L529.838 121.22C534.638 119.34 536.818 116.22 536.818 111.54H534.158ZM529.478 111.54V113.66H535.018V111.54H529.478ZM559.497 110.24V128.82H562.177V110.24H559.497ZM552.197 111.54C549.397 111.54 547.337 114.1 547.337 118.14C547.337 122.22 549.397 124.78 552.197 124.78C554.997 124.78 557.057 122.22 557.057 118.14C557.057 114.1 554.997 111.54 552.197 111.54ZM552.197 113.96C553.577 113.96 554.497 115.42 554.497 118.14C554.497 120.9 553.577 122.38 552.197 122.38C550.817 122.38 549.877 120.9 549.877 118.14C549.877 115.42 550.817 113.96 552.197 113.96ZM571.007 113.96V116.06H583.787V113.96H571.007ZM568.927 117.26V119.36H585.707V117.26H568.927ZM571.007 110.46V115.08H573.647V110.46H571.007ZM570.827 120.48V122.48H581.067V123.52H570.847V127.04H573.507V125.4H583.727V120.48H570.827ZM570.847 126.56V128.58H584.267V126.56H570.847ZM591.385 113.18V115.26C591.385 118.4 589.885 121.82 586.785 123.2L588.285 125.3C591.765 123.72 593.505 119.54 593.505 115.26V113.18H591.385ZM591.985 113.18V115.26C591.985 119.38 593.705 123.32 597.225 124.84L598.665 122.74C595.565 121.46 594.085 118.26 594.085 115.26V113.18H591.985ZM587.525 112.04V114.22H597.905V112.04H587.525ZM599.625 110.26V128.78H602.305V110.26H599.625ZM614.115 111.14C611.295 111.14 609.175 112.94 609.175 115.46C609.175 118 611.295 119.8 614.115 119.8C616.955 119.8 619.055 118 619.055 115.46C619.055 112.94 616.955 111.14 614.115 111.14ZM614.115 113.3C615.475 113.3 616.495 114.12 616.495 115.46C616.495 116.82 615.475 117.64 614.115 117.64C612.775 117.64 611.755 116.82 611.755 115.46C611.755 114.12 612.775 113.3 614.115 113.3ZM620.975 110.26V119.38H623.635V110.26H620.975ZM622.575 114.1V116.26H626.095V114.1H622.575ZM610.695 126.18V128.3H611.715C613.535 128.3 614.975 128.22 616.515 127.68L616.115 125.6C614.755 126.06 613.335 126.18 611.715 126.18H610.695ZM610.695 121.16V126.82H613.275V121.16H610.695ZM615.855 121.22V123.12H625.115V121.22H615.855ZM620.495 123.58C618.375 123.58 616.915 124.6 616.915 126.2C616.915 127.8 618.375 128.8 620.495 128.8C622.595 128.8 624.055 127.8 624.055 126.2C624.055 124.6 622.595 123.58 620.495 123.58ZM620.495 125.4C621.175 125.4 621.695 125.66 621.695 126.2C621.695 126.74 621.175 127 620.495 127C619.775 127 619.275 126.74 619.275 126.2C619.275 125.66 619.775 125.4 620.495 125.4ZM619.215 119.9V122.64H621.795V119.9H619.215ZM635.433 110.52C631.193 110.52 628.733 111.64 628.733 113.68C628.733 115.72 631.193 116.84 635.433 116.84C639.653 116.84 642.133 115.72 642.133 113.68C642.133 111.64 639.653 110.52 635.433 110.52ZM635.433 112.46C638.113 112.46 639.373 112.86 639.373 113.68C639.373 114.54 638.113 114.9 635.433 114.9C632.753 114.9 631.493 114.54 631.493 113.68C631.493 112.86 632.753 112.46 635.433 112.46ZM627.053 117.7V119.8H643.793V117.7H627.053ZM628.973 120.84V122.82H639.153V123.76H628.993V127.24H631.613V125.6H641.773V120.84H628.973ZM628.993 126.66V128.66H642.253V126.66H628.993ZM657.112 110.26V128.78H659.772V110.26H657.112ZM658.952 117.5V119.7H662.172V117.5H658.952ZM648.032 112.14V112.46C648.032 117.16 647.532 120.24 644.672 123.4L646.752 124.9C650.032 121.22 650.512 117.28 650.512 112.14H648.032ZM645.492 112.14V114.3H649.072V112.14H645.492ZM653.132 112.14V112.44C653.132 117.5 652.672 121.06 649.872 124.6L651.952 126.08C655.172 122.06 655.612 117.52 655.612 112.14H653.132ZM651.132 112.14V114.3H654.232V112.14H651.132ZM665.77 121.96H668.35C668.05 119.14 671.53 118.2 671.53 115.36C671.53 112.78 669.77 111.54 667.35 111.54C665.61 111.54 664.19 112.36 663.15 113.54L664.77 115.04C665.43 114.36 666.13 113.92 667.01 113.92C668.05 113.92 668.71 114.54 668.71 115.56C668.71 117.46 665.29 118.74 665.77 121.96ZM667.07 127.28C668.11 127.28 668.91 126.46 668.91 125.36C668.91 124.26 668.11 123.46 667.07 123.46C666.01 123.46 665.25 124.26 665.25 125.36C665.25 126.46 666.01 127.28 667.07 127.28Z" fill="#111111"/>
<g filter="url(#filter2_d_215_1080)">
<mask id="path-7-inside-3_215_1080" fill="white">
<path fill-rule="evenodd" clip-rule="evenodd" d="M889 28C866.909 28 849 45.9086 849 68V132C849 154.091 866.909 172 889 172H1034.53L1080.45 198.514C1083.12 200.054 1086.45 198.129 1086.45 195.05V171.482C1105.48 168.396 1120 151.894 1120 132V68C1120 45.9086 1102.09 28 1080 28H889Z"/>
</mask>
<path fill-rule="evenodd" clip-rule="evenodd" d="M889 28C866.909 28 849 45.9086 849 68V132C849 154.091 866.909 172 889 172H1034.53L1080.45 198.514C1083.12 200.054 1086.45 198.129 1086.45 195.05V171.482C1105.48 168.396 1120 151.894 1120 132V68C1120 45.9086 1102.09 28 1080 28H889Z" fill="white"/>
<path fill-rule="evenodd" clip-rule="evenodd" d="M889 28C866.909 28 849 45.9086 849 68V132C849 154.091 866.909 172 889 172H1034.53L1080.45 198.514C1083.12 200.054 1086.45 198.129 1086.45 195.05V171.482C1105.48 168.396 1120 151.894 1120 132V68C1120 45.9086 1102.09 28 1080 28H889Z" fill="url(#paint2_linear_215_1080)"/>
<path d="M1034.53 172L1035.03 171.134L1034.8 171H1034.53V172ZM1080.45 198.514L1079.95 199.38L1080.45 198.514ZM1086.45 171.482L1086.29 170.495L1085.45 170.631V171.482H1086.45ZM850 68C850 46.4609 867.461 29 889 29V27C866.356 27 848 45.3563 848 68H850ZM850 132V68H848V132H850ZM889 171C867.461 171 850 153.539 850 132H848C848 154.644 866.356 173 889 173V171ZM1034.53 171H889V173H1034.53V171ZM1080.95 197.648L1035.03 171.134L1034.03 172.866L1079.95 199.38L1080.95 197.648ZM1085.45 195.05C1085.45 197.359 1082.95 198.803 1080.95 197.648L1079.95 199.38C1083.29 201.304 1087.45 198.899 1087.45 195.05H1085.45ZM1085.45 171.482V195.05H1087.45V171.482H1085.45ZM1119 132C1119 151.396 1104.84 167.486 1086.29 170.495L1086.61 172.469C1106.11 169.306 1121 152.392 1121 132H1119ZM1119 68V132H1121V68H1119ZM1080 29C1101.54 29 1119 46.4609 1119 68H1121C1121 45.3563 1102.64 27 1080 27V29ZM889 29H1080V27H889V29Z" fill="#D2D7DC" mask="url(#path-7-inside-3_215_1080)"/>
</g>
<path d="M890.88 75.54C888.1 75.54 886.1 78.1 886.1 82.14C886.1 86.22 888.1 88.78 890.88 88.78C893.64 88.78 895.66 86.22 895.66 82.14C895.66 78.1 893.64 75.54 890.88 75.54ZM890.88 77.96C892.24 77.96 893.12 79.42 893.12 82.14C893.12 84.9 892.24 86.38 890.88 86.38C889.54 86.38 888.64 84.9 888.64 82.14C888.64 79.42 889.54 77.96 890.88 77.96ZM898.7 74.24V92.82H901.34V74.24H898.7ZM894.88 80.92V83.06H899.82V80.92H894.88ZM906.638 90.34V92.46H919.938V90.34H906.638ZM906.638 86.54V91.66H909.318V86.54H906.638ZM916.838 74.28V87.68H919.478V74.28H916.838ZM914.398 79.14V81.26H919.118V79.14H914.398ZM904.058 82.96V85.08H904.998C906.658 85.08 907.778 85.08 909.218 84.78L909.018 82.64C907.658 82.92 906.558 82.96 904.998 82.96H904.058ZM904.058 75.66V83.36H906.678V77.78H908.918V75.66H904.058ZM909.798 82.96V85.08H910.798C913.238 85.08 914.298 85.04 915.578 84.76L915.358 82.62C914.158 82.92 913.138 82.96 910.798 82.96H909.798ZM909.798 75.66V83.34H912.398V77.78H914.938V75.66H909.798ZM961.545 81.44V83.54H978.305V81.44H961.545ZM963.605 78.36V80.44H976.325V78.36H963.605ZM963.605 74.6V80.16H966.245V76.72H976.165V74.6H963.605ZM963.445 84.58V86.58H973.625V87.6H963.465V91.08H966.085V89.48H976.245V84.58H963.445ZM963.465 90.6V92.64H976.725V90.6H963.465ZM992.223 74.24V92.82H994.903V74.24H992.223ZM984.923 75.54C982.123 75.54 980.063 78.1 980.063 82.14C980.063 86.22 982.123 88.78 984.923 88.78C987.723 88.78 989.783 86.22 989.783 82.14C989.783 78.1 987.723 75.54 984.923 75.54ZM984.923 77.96C986.303 77.96 987.223 79.42 987.223 82.14C987.223 84.9 986.303 86.38 984.923 86.38C983.543 86.38 982.603 84.9 982.603 82.14C982.603 79.42 983.543 77.96 984.923 77.96ZM885.8 120.62V122.76H902.58V120.62H885.8ZM892.8 122V128.8H895.44V122H892.8ZM894.14 110.88C890.2 110.88 887.46 112.52 887.46 115.06C887.46 117.58 890.2 119.2 894.14 119.2C898.1 119.2 900.84 117.58 900.84 115.06C900.84 112.52 898.1 110.88 894.14 110.88ZM894.14 113C896.58 113 898.1 113.72 898.1 115.06C898.1 116.38 896.58 117.1 894.14 117.1C891.72 117.1 890.18 116.38 890.18 115.06C890.18 113.72 891.72 113 894.14 113ZM916.558 110.24V128.82H919.218V110.24H916.558ZM904.798 122.34V124.5H906.438C909.818 124.5 912.538 124.4 915.538 123.86L915.278 121.72C912.338 122.22 909.718 122.34 906.438 122.34H904.798ZM904.778 111.82V113.94H910.798V116.88H904.798V123.14H907.498V118.98H913.518V111.82H904.778ZM935.268 116.04V118.18H940.148V116.04H935.268ZM930.228 111.68V114.36C930.228 117.88 928.828 121.46 925.668 122.92L927.328 125.06C930.808 123.32 932.388 119.02 932.388 114.36V111.68H930.228ZM930.788 111.68V114.36C930.788 118.98 932.248 123.06 935.728 124.74L937.308 122.62C934.248 121.26 932.908 117.88 932.908 114.36V111.68H930.788ZM938.828 110.24V128.82H941.468V110.24H938.828ZM956.627 110.24V128.82H959.307V110.24H956.627ZM944.847 111.72V124.5H953.947V111.72H951.307V116.22H947.487V111.72H944.847ZM947.487 118.28H951.307V122.36H947.487V118.28ZM968.805 111.32V112.66C968.805 115.32 966.505 118.26 962.325 118.98L963.465 121.18C968.265 120.24 971.125 116.68 971.125 112.66V111.32H968.805ZM969.345 111.32V112.66C969.345 116.74 972.185 120.24 976.985 121.18L978.125 118.98C973.925 118.26 971.645 115.38 971.645 112.66V111.32H969.345ZM961.945 124.36V126.52H978.705V124.36H961.945ZM979.923 118.56V120.5H996.703V118.56H979.923ZM981.803 121.42V123.22H992.083V124.14H981.843V127.4H984.483V125.82H994.703V121.42H981.803ZM981.843 126.84V128.64H995.223V126.84H981.843ZM981.983 110.58V112.36H992.043V113.28H982.003V116.46H984.643V114.94H994.663V110.58H981.983ZM982.003 115.9V117.7H995.003V115.9H982.003ZM1006.21 111.56C1003.77 111.56 1002.21 114.1 1002.21 118.28C1002.21 122.48 1003.77 125.02 1006.21 125.02C1008.67 125.02 1010.25 122.48 1010.25 118.28C1010.25 114.1 1008.67 111.56 1006.21 111.56ZM1006.21 114.06C1007.23 114.06 1007.81 115.46 1007.81 118.28C1007.81 121.12 1007.23 122.5 1006.21 122.5C1005.21 122.5 1004.63 121.12 1004.63 118.28C1004.63 115.46 1005.21 114.06 1006.21 114.06ZM1015.43 110.26V128.78H1017.97V110.26H1015.43ZM1013.21 117.32V119.46H1016.27V117.32H1013.21ZM1011.37 110.54V127.94H1013.87V110.54H1011.37ZM1023.81 116.46V119.86H1026.47V116.46H1023.81ZM1030.33 116.46V119.86H1032.97V116.46H1030.33ZM1020.05 119.04V121.14H1036.79V119.04H1020.05ZM1028.39 122.08C1024.37 122.08 1021.95 123.28 1021.95 125.42C1021.95 127.58 1024.37 128.78 1028.39 128.78C1032.39 128.78 1034.81 127.58 1034.81 125.42C1034.81 123.28 1032.39 122.08 1028.39 122.08ZM1028.39 124.08C1030.87 124.08 1032.13 124.5 1032.13 125.42C1032.13 126.36 1030.87 126.78 1028.39 126.78C1025.91 126.78 1024.65 126.36 1024.65 125.42C1024.65 124.5 1025.91 124.08 1028.39 124.08ZM1028.43 110.52C1024.33 110.52 1021.73 111.88 1021.73 114.1C1021.73 116.3 1024.33 117.62 1028.43 117.62C1032.51 117.62 1035.13 116.3 1035.13 114.1C1035.13 111.88 1032.51 110.52 1028.43 110.52ZM1028.43 112.56C1030.97 112.56 1032.39 113.06 1032.39 114.1C1032.39 115.12 1030.97 115.62 1028.43 115.62C1025.89 115.62 1024.47 115.12 1024.47 114.1C1024.47 113.06 1025.89 112.56 1028.43 112.56ZM1049.97 110.24V120.24H1052.63V110.24H1049.97ZM1051.57 114.2V116.36H1055.09V114.2H1051.57ZM1040.39 120.98V122.9H1050.01V123.88H1040.43V127.36H1043.07V125.68H1052.63V120.98H1040.39ZM1040.43 126.7V128.66H1053.17V126.7H1040.43ZM1038.05 111.62V113.62H1048.95V111.62H1038.05ZM1043.51 114.06C1040.75 114.06 1038.95 115.24 1038.95 117.1C1038.95 118.96 1040.75 120.1 1043.51 120.1C1046.25 120.1 1048.05 118.96 1048.05 117.1C1048.05 115.24 1046.25 114.06 1043.51 114.06ZM1043.51 115.92C1044.75 115.92 1045.51 116.32 1045.51 117.1C1045.51 117.84 1044.75 118.24 1043.51 118.24C1042.27 118.24 1041.51 117.84 1041.51 117.1C1041.51 116.32 1042.27 115.92 1043.51 115.92ZM1042.17 110.12V113.04H1044.83V110.12H1042.17ZM1068.11 110.26V128.78H1070.77V110.26H1068.11ZM1069.95 117.5V119.7H1073.17V117.5H1069.95ZM1059.03 112.14V112.46C1059.03 117.16 1058.53 120.24 1055.67 123.4L1057.75 124.9C1061.03 121.22 1061.51 117.28 1061.51 112.14H1059.03ZM1056.49 112.14V114.3H1060.07V112.14H1056.49ZM1064.13 112.14V112.44C1064.13 117.5 1063.67 121.06 1060.87 124.6L1062.95 126.08C1066.17 122.06 1066.61 117.52 1066.61 112.14H1064.13ZM1062.13 112.14V114.3H1065.23V112.14H1062.13ZM1076.77 121.96H1079.35C1079.05 119.14 1082.53 118.2 1082.53 115.36C1082.53 112.78 1080.77 111.54 1078.35 111.54C1076.61 111.54 1075.19 112.36 1074.15 113.54L1075.77 115.04C1076.43 114.36 1077.13 113.92 1078.01 113.92C1079.05 113.92 1079.71 114.54 1079.71 115.56C1079.71 117.46 1076.29 118.74 1076.77 121.96ZM1078.07 127.28C1079.11 127.28 1079.91 126.46 1079.91 125.36C1079.91 124.26 1079.11 123.46 1078.07 123.46C1077.01 123.46 1076.25 124.26 1076.25 125.36C1076.25 126.46 1077.01 127.28 1078.07 127.28Z" fill="#111111"/>
<path d="M929.708 85.96V92.78H932.428V85.96H929.708ZM936.108 85.96V92.78H938.828V85.96H936.108ZM925.928 84.56V86.7H942.708V84.56H925.928ZM934.268 74.88C930.328 74.88 927.588 76.5 927.588 79.04C927.588 81.54 930.328 83.16 934.268 83.16C938.228 83.16 940.968 81.54 940.968 79.04C940.968 76.5 938.228 74.88 934.268 74.88ZM934.268 77C936.708 77 938.228 77.72 938.228 79.04C938.228 80.34 936.708 81.06 934.268 81.06C931.848 81.06 930.308 80.34 930.308 79.04C930.308 77.72 931.848 77 934.268 77ZM956.807 74.24V92.82H959.467V74.24H956.807ZM953.567 80.72V82.86H957.427V80.72H953.567ZM948.207 77.18V78.82C948.207 82.26 946.747 85.8 943.647 87.26L945.207 89.36C948.667 87.66 950.307 83.34 950.307 78.82V77.18H948.207ZM948.827 77.18V78.82C948.827 83.2 950.427 87.34 953.907 88.98L955.447 86.9C952.347 85.5 950.907 82.08 950.907 78.82V77.18H948.827ZM944.407 76.04V78.18H954.707V76.04H944.407Z" fill="#12E300"/>
<g filter="url(#filter3_d_215_1080)">
<mask id="path-10-inside-4_215_1080" fill="white">
<path fill-rule="evenodd" clip-rule="evenodd" d="M1300 28C1277.91 28 1260 45.9086 1260 68V132C1260 154.091 1277.91 172 1300 172H1529.53L1575.45 198.514C1578.12 200.054 1581.45 198.129 1581.45 195.05V171.482C1600.48 168.396 1615 151.894 1615 132V68C1615 45.9086 1597.09 28 1575 28H1300Z"/>
</mask>
<path fill-rule="evenodd" clip-rule="evenodd" d="M1300 28C1277.91 28 1260 45.9086 1260 68V132C1260 154.091 1277.91 172 1300 172H1529.53L1575.45 198.514C1578.12 200.054 1581.45 198.129 1581.45 195.05V171.482C1600.48 168.396 1615 151.894 1615 132V68C1615 45.9086 1597.09 28 1575 28H1300Z" fill="white"/>
<path fill-rule="evenodd" clip-rule="evenodd" d="M1300 28C1277.91 28 1260 45.9086 1260 68V132C1260 154.091 1277.91 172 1300 172H1529.53L1575.45 198.514C1578.12 200.054 1581.45 198.129 1581.45 195.05V171.482C1600.48 168.396 1615 151.894 1615 132V68C1615 45.9086 1597.09 28 1575 28H1300Z" fill="url(#paint3_linear_215_1080)"/>
<path d="M1529.53 172L1530.03 171.134L1529.8 171H1529.53V172ZM1575.45 198.514L1575.95 197.648L1575.45 198.514ZM1581.45 171.482L1581.29 170.495L1580.45 170.631V171.482H1581.45ZM1261 68C1261 46.4609 1278.46 29 1300 29V27C1277.36 27 1259 45.3563 1259 68H1261ZM1261 132V68H1259V132H1261ZM1300 171C1278.46 171 1261 153.539 1261 132H1259C1259 154.644 1277.36 173 1300 173V171ZM1529.53 171H1300V173H1529.53V171ZM1575.95 197.648L1530.03 171.134L1529.03 172.866L1574.95 199.38L1575.95 197.648ZM1580.45 195.05C1580.45 197.359 1577.95 198.803 1575.95 197.648L1574.95 199.38C1578.29 201.304 1582.45 198.899 1582.45 195.05H1580.45ZM1580.45 171.482V195.05H1582.45V171.482H1580.45ZM1614 132C1614 151.396 1599.84 167.486 1581.29 170.495L1581.61 172.469C1601.11 169.306 1616 152.392 1616 132H1614ZM1614 68V132H1616V68H1614ZM1575 29C1596.54 29 1614 46.4609 1614 68H1616C1616 45.3563 1597.64 27 1575 27V29ZM1300 29H1575V27H1300V29Z" fill="#D2D7DC" mask="url(#path-10-inside-4_215_1080)"/>
</g>
<path d="M1297.5 83.4V85.52H1299.02C1302.54 85.52 1304.78 85.46 1307.3 85.06L1307.1 82.94C1304.64 83.34 1302.48 83.4 1299.02 83.4H1297.5ZM1297.48 75.48V77.6H1303.22V79.42H1297.5V84.78H1300.14V81.42H1305.84V75.48H1297.48ZM1309.64 74.28V87.9H1312.3V74.28H1309.64ZM1299.98 90.34V92.46H1312.76V90.34H1299.98ZM1299.98 86.82V91.02H1302.64V86.82H1299.98ZM1306.74 78.7V80.94H1310.16V78.7H1306.74ZM1319.32 77.38V78.06C1319.32 80.16 1318 82.32 1314.96 83.18L1316.2 85.24C1319.8 84.24 1321.5 81.32 1321.5 78.06V77.38H1319.32ZM1319.82 77.38V78.06C1319.82 81.16 1321.56 83.92 1325.16 84.86L1326.36 82.78C1323.34 82 1321.98 80 1321.98 78.06V77.38H1319.82ZM1315.58 76.2V78.28H1325.7V76.2H1315.58ZM1319.32 74.3V77.12H1321.98V74.3H1319.32ZM1327.52 74.28V85.42H1330.2V74.28H1327.52ZM1323.92 85.74C1320 85.74 1317.6 87.04 1317.6 89.26C1317.6 91.5 1320 92.78 1323.92 92.78C1327.84 92.78 1330.28 91.5 1330.28 89.26C1330.28 87.04 1327.84 85.74 1323.92 85.74ZM1323.92 87.78C1326.34 87.78 1327.62 88.26 1327.62 89.26C1327.62 90.28 1326.34 90.76 1323.92 90.76C1321.52 90.76 1320.26 90.28 1320.26 89.26C1320.26 88.26 1321.52 87.78 1323.92 87.78ZM1346.85 79.04V81.18H1351.17V79.04H1346.85ZM1349.77 74.28V87.78H1352.43V74.28H1349.77ZM1340.21 90.34V92.46H1352.85V90.34H1340.21ZM1340.21 86.64V91.6H1342.87V86.64H1340.21ZM1341.21 76.7V77.86C1341.21 80.2 1339.89 82.62 1336.83 83.62L1338.17 85.74C1341.73 84.56 1343.37 81.34 1343.37 77.86V76.7H1341.21ZM1341.77 76.7V77.86C1341.77 81.16 1343.35 84.24 1346.79 85.38L1348.09 83.3C1345.17 82.32 1343.91 80.02 1343.91 77.86V76.7H1341.77ZM1337.55 75.52V77.62H1347.51V75.52H1337.55ZM1497.56 74.52C1493.32 74.52 1490.86 75.64 1490.86 77.68C1490.86 79.72 1493.32 80.84 1497.56 80.84C1501.78 80.84 1504.26 79.72 1504.26 77.68C1504.26 75.64 1501.78 74.52 1497.56 74.52ZM1497.56 76.46C1500.24 76.46 1501.5 76.86 1501.5 77.68C1501.5 78.54 1500.24 78.9 1497.56 78.9C1494.88 78.9 1493.62 78.54 1493.62 77.68C1493.62 76.86 1494.88 76.46 1497.56 76.46ZM1489.18 81.7V83.8H1505.92V81.7H1489.18ZM1491.1 84.84V86.82H1501.28V87.76H1491.12V91.24H1493.74V89.6H1503.9V84.84H1491.1ZM1491.12 90.66V92.66H1504.38V90.66H1491.12ZM1297.72 111.92V124.38H1306.62V111.92H1297.72ZM1304.02 114V122.28H1300.34V114H1304.02ZM1309.5 110.24V128.82H1312.18V110.24H1309.5ZM1327.56 110.24V128.82H1330.22V110.24H1327.56ZM1315.8 122.34V124.5H1317.44C1320.82 124.5 1323.54 124.4 1326.54 123.86L1326.28 121.72C1323.34 122.22 1320.72 122.34 1317.44 122.34H1315.8ZM1315.78 111.82V113.94H1321.8V116.88H1315.8V123.14H1318.5V118.98H1324.52V111.82H1315.78ZM1348.85 110.26V119.5H1351.51V110.26H1348.85ZM1350.43 113.8V115.98H1353.95V113.8H1350.43ZM1339.27 120.24V122.28H1348.89V123.4H1339.31V127.52H1341.95V125.32H1351.51V120.24H1339.27ZM1339.31 126.5V128.58H1352.05V126.5H1339.31ZM1341.99 110.8C1339.17 110.8 1337.05 112.54 1337.05 115C1337.05 117.44 1339.17 119.2 1341.99 119.2C1344.83 119.2 1346.93 117.44 1346.93 115C1346.93 112.54 1344.83 110.8 1341.99 110.8ZM1341.99 112.94C1343.37 112.94 1344.37 113.7 1344.37 115C1344.37 116.3 1343.37 117.08 1341.99 117.08C1340.63 117.08 1339.63 116.3 1339.63 115C1339.63 113.7 1340.63 112.94 1341.99 112.94ZM1356.65 111.82V113.96H1368.39V111.82H1356.65ZM1354.95 124.4V126.56H1371.69V124.4H1354.95ZM1360.87 118.04V125.46H1363.53V118.04H1360.87ZM1367.43 111.82V113.6C1367.43 115.82 1367.43 118.5 1366.69 122.18L1369.35 122.48C1370.09 118.52 1370.09 115.92 1370.09 113.6V111.82H1367.43ZM1389.78 110.28V120.52H1392.46V110.28H1389.78ZM1381.4 110.9V112.68C1381.4 114.94 1380.08 117.26 1376.96 118.2L1378.26 120.28C1381.88 119.18 1383.6 116.1 1383.6 112.68V110.9H1381.4ZM1381.94 110.9V112.68C1381.94 116.04 1383.6 118.92 1387.16 119.98L1388.44 117.88C1385.42 117.02 1384.12 114.88 1384.12 112.68V110.9H1381.94ZM1379.94 121.36V123.46H1392.54V121.36H1379.94ZM1379.76 126.48V128.58H1392.72V126.48H1379.76ZM1382.12 122.14V127.72H1384.72V122.14H1382.12ZM1387.76 122.14V127.72H1390.38V122.14H1387.76ZM1395.05 119.7V121.82H1411.79V119.7H1395.05ZM1397.07 126.34V128.46H1409.91V126.34H1397.07ZM1397.07 123.06V127.02H1399.73V123.06H1397.07ZM1403.43 110.8C1399.39 110.8 1396.73 112.26 1396.73 114.62C1396.73 116.98 1399.39 118.44 1403.43 118.44C1407.45 118.44 1410.13 116.98 1410.13 114.62C1410.13 112.26 1407.45 110.8 1403.43 110.8ZM1403.43 112.92C1405.93 112.92 1407.39 113.5 1407.39 114.62C1407.39 115.76 1405.93 116.32 1403.43 116.32C1400.93 116.32 1399.47 115.76 1399.47 114.62C1399.47 113.5 1400.93 112.92 1403.43 112.92ZM1426.43 110.26V128.78H1428.97V110.26H1426.43ZM1419.39 117.02V119.16H1423.69V117.02H1419.39ZM1422.61 110.58V127.96H1425.09V110.58H1422.61ZM1413.59 122.48V124.68H1414.87C1417.57 124.68 1419.41 124.6 1421.47 124.18L1421.27 122.02C1419.23 122.42 1417.49 122.48 1414.87 122.48H1413.59ZM1413.59 112.34V123.4H1416.21V114.46H1420.65V112.34H1413.59ZM1442.2 115.78V118.36H1444.84V115.78H1442.2ZM1441.72 111.58V112.04C1441.72 113.28 1439.94 114.62 1435.88 114.84L1436.7 116.82C1441.5 116.5 1444.04 114.56 1444.04 112.04V111.58H1441.72ZM1443.08 111.58V112.04C1443.08 114.58 1445.62 116.5 1450.4 116.82L1451.22 114.84C1447.14 114.62 1445.38 113.28 1445.38 112.04V111.58H1443.08ZM1436.7 110.72V112.74H1450.42V110.72H1436.7ZM1436.68 121.42V123.42H1450.38V121.42H1436.68ZM1435.18 117.46V119.56H1451.96V117.46H1435.18ZM1443.52 123.96C1439.94 123.96 1437.86 124.82 1437.86 126.4C1437.86 128 1439.94 128.84 1443.52 128.84C1447.1 128.84 1449.18 128 1449.18 126.4C1449.18 124.82 1447.1 123.96 1443.52 123.96ZM1443.52 125.7C1445.46 125.7 1446.42 125.88 1446.42 126.4C1446.42 126.9 1445.46 127.1 1443.52 127.1C1441.58 127.1 1440.62 126.9 1440.62 126.4C1440.62 125.88 1441.58 125.7 1443.52 125.7ZM1442.2 120.12V122.62H1444.86V120.12H1442.2ZM1453.18 119.7V121.82H1469.92V119.7H1453.18ZM1455.2 126.34V128.46H1468.04V126.34H1455.2ZM1455.2 123.06V127.02H1457.86V123.06H1455.2ZM1461.56 110.8C1457.52 110.8 1454.86 112.26 1454.86 114.62C1454.86 116.98 1457.52 118.44 1461.56 118.44C1465.58 118.44 1468.26 116.98 1468.26 114.62C1468.26 112.26 1465.58 110.8 1461.56 110.8ZM1461.56 112.92C1464.06 112.92 1465.52 113.5 1465.52 114.62C1465.52 115.76 1464.06 116.32 1461.56 116.32C1459.06 116.32 1457.6 115.76 1457.6 114.62C1457.6 113.5 1459.06 112.92 1461.56 112.92ZM1483.85 121.58C1479.99 121.58 1477.57 122.92 1477.57 125.18C1477.57 127.46 1479.99 128.8 1483.85 128.8C1487.69 128.8 1490.11 127.46 1490.11 125.18C1490.11 122.92 1487.69 121.58 1483.85 121.58ZM1483.85 123.66C1486.21 123.66 1487.47 124.14 1487.47 125.18C1487.47 126.24 1486.21 126.74 1483.85 126.74C1481.49 126.74 1480.21 126.24 1480.21 125.18C1480.21 124.14 1481.49 123.66 1483.85 123.66ZM1487.23 110.26V121.16H1489.89V110.26H1487.23ZM1489.15 114.56V116.76H1492.35V114.56H1489.15ZM1475.85 111.44V120.14H1484.75V111.44H1482.11V113.72H1478.49V111.44H1475.85ZM1478.49 115.78H1482.11V118.06H1478.49V115.78ZM1494.09 111.2V119.86H1502.85V111.2H1500.25V113.54H1496.73V111.2H1494.09ZM1496.73 115.56H1500.25V117.74H1496.73V115.56ZM1502.25 114.48V116.62H1506.75V114.48H1502.25ZM1506.15 110.26V120.4H1508.81V110.26H1506.15ZM1496.51 121.18V128.56H1508.81V121.18H1506.17V122.84H1499.15V121.18H1496.51ZM1499.15 124.88H1506.17V126.44H1499.15V124.88ZM1517.48 121.1V128.58H1524.24V121.1H1521.78V122.92H1519.94V121.1H1517.48ZM1519.94 124.84H1521.78V126.58H1519.94V124.84ZM1527.1 120.96V122.34C1527.1 124.08 1526.2 125.86 1523.98 126.78L1525.28 128.76C1528.02 127.7 1529.12 125.06 1529.12 122.34V120.96H1527.1ZM1527.72 120.96V122.34C1527.72 125.26 1528.76 127.76 1531.56 128.76L1532.88 126.78C1530.62 126.02 1529.74 124.26 1529.74 122.34V120.96H1527.72ZM1524.8 114.22V116.38H1529.44V114.22H1524.8ZM1520.56 110.96C1517.76 110.96 1515.66 112.76 1515.66 115.32C1515.66 117.88 1517.76 119.7 1520.56 119.7C1523.34 119.7 1525.44 117.88 1525.44 115.32C1525.44 112.76 1523.34 110.96 1520.56 110.96ZM1520.56 113.14C1521.92 113.14 1522.9 113.96 1522.9 115.32C1522.9 116.68 1521.92 117.52 1520.56 117.52C1519.2 117.52 1518.2 116.68 1518.2 115.32C1518.2 113.96 1519.2 113.14 1520.56 113.14ZM1528.28 110.26V120.06H1530.94V110.26H1528.28ZM1541.82 110.52C1537.58 110.52 1535.12 111.64 1535.12 113.68C1535.12 115.72 1537.58 116.84 1541.82 116.84C1546.04 116.84 1548.52 115.72 1548.52 113.68C1548.52 111.64 1546.04 110.52 1541.82 110.52ZM1541.82 112.46C1544.5 112.46 1545.76 112.86 1545.76 113.68C1545.76 114.54 1544.5 114.9 1541.82 114.9C1539.14 114.9 1537.88 114.54 1537.88 113.68C1537.88 112.86 1539.14 112.46 1541.82 112.46ZM1533.44 117.7V119.8H1550.18V117.7H1533.44ZM1535.36 120.84V122.82H1545.54V123.76H1535.38V127.24H1538V125.6H1548.16V120.84H1535.36ZM1535.38 126.66V128.66H1548.64V126.66H1535.38ZM1563.5 110.26V128.78H1566.16V110.26H1563.5ZM1565.34 117.5V119.7H1568.56V117.5H1565.34ZM1554.42 112.14V112.46C1554.42 117.16 1553.92 120.24 1551.06 123.4L1553.14 124.9C1556.42 121.22 1556.9 117.28 1556.9 112.14H1554.42ZM1551.88 112.14V114.3H1555.46V112.14H1551.88ZM1559.52 112.14V112.44C1559.52 117.5 1559.06 121.06 1556.26 124.6L1558.34 126.08C1561.56 122.06 1562 117.52 1562 112.14H1559.52ZM1557.52 112.14V114.3H1560.62V112.14H1557.52ZM1572.15 121.96H1574.73C1574.43 119.14 1577.91 118.2 1577.91 115.36C1577.91 112.78 1576.15 111.54 1573.73 111.54C1571.99 111.54 1570.57 112.36 1569.53 113.54L1571.15 115.04C1571.81 114.36 1572.51 113.92 1573.39 113.92C1574.43 113.92 1575.09 114.54 1575.09 115.56C1575.09 117.46 1571.67 118.74 1572.15 121.96ZM1573.45 127.28C1574.49 127.28 1575.29 126.46 1575.29 125.36C1575.29 124.26 1574.49 123.46 1573.45 123.46C1572.39 123.46 1571.63 124.26 1571.63 125.36C1571.63 126.46 1572.39 127.28 1573.45 127.28Z" fill="#111111"/>
<path d="M1363.22 75.68V78.38C1363.22 81.82 1361.8 85.38 1358.68 86.84L1360.28 88.98C1363.78 87.26 1365.38 82.96 1365.38 78.38V75.68H1363.22ZM1363.76 75.68V78.38C1363.76 82.82 1365.22 86.94 1368.56 88.64L1370.16 86.52C1367.2 85.08 1365.88 81.7 1365.88 78.38V75.68H1363.76ZM1370.9 74.26V92.78H1373.58V74.26H1370.9ZM1372.98 81.38V83.6H1376.26V81.38H1372.98ZM1380.82 80.46V83.86H1383.48V80.46H1380.82ZM1387.34 80.46V83.86H1389.98V80.46H1387.34ZM1377.06 83.04V85.14H1393.8V83.04H1377.06ZM1385.4 86.08C1381.38 86.08 1378.96 87.28 1378.96 89.42C1378.96 91.58 1381.38 92.78 1385.4 92.78C1389.4 92.78 1391.82 91.58 1391.82 89.42C1391.82 87.28 1389.4 86.08 1385.4 86.08ZM1385.4 88.08C1387.88 88.08 1389.14 88.5 1389.14 89.42C1389.14 90.36 1387.88 90.78 1385.4 90.78C1382.92 90.78 1381.66 90.36 1381.66 89.42C1381.66 88.5 1382.92 88.08 1385.4 88.08ZM1385.44 74.52C1381.34 74.52 1378.74 75.88 1378.74 78.1C1378.74 80.3 1381.34 81.62 1385.44 81.62C1389.52 81.62 1392.14 80.3 1392.14 78.1C1392.14 75.88 1389.52 74.52 1385.44 74.52ZM1385.44 76.56C1387.98 76.56 1389.4 77.06 1389.4 78.1C1389.4 79.12 1387.98 79.62 1385.44 79.62C1382.9 79.62 1381.48 79.12 1381.48 78.1C1381.48 77.06 1382.9 76.56 1385.44 76.56ZM1399.21 77.18V79.26C1399.21 82.3 1397.71 85.76 1394.65 87.2L1396.15 89.3C1399.55 87.7 1401.31 83.44 1401.31 79.26V77.18H1399.21ZM1399.77 77.18V79.26C1399.77 83.2 1401.49 87.26 1404.89 88.84L1406.35 86.74C1403.31 85.34 1401.87 82.06 1401.87 79.26V77.18H1399.77ZM1395.37 76.04V78.22H1405.53V76.04H1395.37ZM1406.89 74.26V92.78H1409.57V74.26H1406.89ZM1408.97 81.32V83.52H1412.25V81.32H1408.97ZM1413.07 81.44V83.54H1429.83V81.44H1413.07ZM1415.13 78.36V80.44H1427.85V78.36H1415.13ZM1415.13 74.6V80.16H1417.77V76.72H1427.69V74.6H1415.13ZM1414.97 84.58V86.58H1425.15V87.6H1414.99V91.08H1417.61V89.48H1427.77V84.58H1414.97ZM1414.99 90.6V92.64H1428.25V90.6H1414.99ZM1437.01 75.48C1434.11 75.48 1431.89 77.38 1431.89 80.04C1431.89 82.72 1434.11 84.62 1437.01 84.62C1439.93 84.62 1442.11 82.72 1442.11 80.04C1442.11 77.38 1439.93 75.48 1437.01 75.48ZM1437.01 77.76C1438.43 77.76 1439.51 78.6 1439.51 80.04C1439.51 81.5 1438.43 82.34 1437.01 82.34C1435.59 82.34 1434.51 81.5 1434.51 80.04C1434.51 78.6 1435.59 77.76 1437.01 77.76ZM1443.85 74.24V92.82H1446.51V74.24H1443.85ZM1431.45 89.06C1434.65 89.06 1439.01 89.02 1443.03 88.22L1442.83 86.3C1438.93 86.88 1434.39 86.92 1431.13 86.92L1431.45 89.06ZM1465.1 74.28V87.9H1467.76V74.28H1465.1ZM1467 79.48V81.66H1470.22V79.48H1467ZM1455.82 90.34V92.46H1468.42V90.34H1455.82ZM1455.82 86.52V90.8H1458.48V86.52H1455.82ZM1453.72 75.58V84.98H1462.62V75.58H1459.98V78.24H1456.36V75.58H1453.72ZM1456.36 80.26H1459.98V82.9H1456.36V80.26ZM1471.18 82.9V85H1487.92V82.9H1471.18ZM1479.52 86C1475.5 86 1473.08 87.22 1473.08 89.4C1473.08 91.58 1475.5 92.8 1479.52 92.8C1483.52 92.8 1485.94 91.58 1485.94 89.4C1485.94 87.22 1483.52 86 1479.52 86ZM1479.52 88.02C1482 88.02 1483.26 88.46 1483.26 89.4C1483.26 90.36 1482 90.78 1479.52 90.78C1477.04 90.78 1475.78 90.36 1475.78 89.4C1475.78 88.46 1477.04 88.02 1479.52 88.02ZM1479.56 74.64C1475.48 74.64 1472.86 76.04 1472.86 78.28C1472.86 80.54 1475.48 81.92 1479.56 81.92C1483.62 81.92 1486.26 80.54 1486.26 78.28C1486.26 76.04 1483.62 74.64 1479.56 74.64ZM1479.56 76.7C1482.08 76.7 1483.52 77.22 1483.52 78.28C1483.52 79.36 1482.08 79.86 1479.56 79.86C1477.02 79.86 1475.6 79.36 1475.6 78.28C1475.6 77.22 1477.02 76.7 1479.56 76.7Z" fill="#12E300"/>
<g filter="url(#filter4_d_215_1080)">
<mask id="path-13-inside-5_215_1080" fill="white">
<path fill-rule="evenodd" clip-rule="evenodd" d="M1795 28C1772.91 28 1755 45.9086 1755 68V132C1755 154.091 1772.91 172 1795 172H1904.53L1950.45 198.514C1953.12 200.054 1956.45 198.129 1956.45 195.05V171.482C1975.48 168.396 1990 151.894 1990 132V68C1990 45.9086 1972.09 28 1950 28H1795Z"/>
</mask>
<path fill-rule="evenodd" clip-rule="evenodd" d="M1795 28C1772.91 28 1755 45.9086 1755 68V132C1755 154.091 1772.91 172 1795 172H1904.53L1950.45 198.514C1953.12 200.054 1956.45 198.129 1956.45 195.05V171.482C1975.48 168.396 1990 151.894 1990 132V68C1990 45.9086 1972.09 28 1950 28H1795Z" fill="white"/>
<path fill-rule="evenodd" clip-rule="evenodd" d="M1795 28C1772.91 28 1755 45.9086 1755 68V132C1755 154.091 1772.91 172 1795 172H1904.53L1950.45 198.514C1953.12 200.054 1956.45 198.129 1956.45 195.05V171.482C1975.48 168.396 1990 151.894 1990 132V68C1990 45.9086 1972.09 28 1950 28H1795Z" fill="url(#paint4_linear_215_1080)"/>
<path d="M1904.53 172L1905.03 171.134L1904.8 171H1904.53V172ZM1950.45 198.514L1949.95 199.38L1950.45 198.514ZM1956.45 171.482L1956.29 170.495L1955.45 170.631V171.482H1956.45ZM1756 68C1756 46.4609 1773.46 29 1795 29V27C1772.36 27 1754 45.3563 1754 68H1756ZM1756 132V68H1754V132H1756ZM1795 171C1773.46 171 1756 153.539 1756 132H1754C1754 154.644 1772.36 173 1795 173V171ZM1904.53 171H1795V173H1904.53V171ZM1950.95 197.648L1905.03 171.134L1904.03 172.866L1949.95 199.38L1950.95 197.648ZM1955.45 195.05C1955.45 197.359 1952.95 198.803 1950.95 197.648L1949.95 199.38C1953.29 201.304 1957.45 198.899 1957.45 195.05H1955.45ZM1955.45 171.482V195.05H1957.45V171.482H1955.45ZM1989 132C1989 151.396 1974.84 167.486 1956.29 170.495L1956.61 172.469C1976.11 169.306 1991 152.392 1991 132H1989ZM1989 68V132H1991V68H1989ZM1950 29C1971.54 29 1989 46.4609 1989 68H1991C1991 45.3563 1972.64 27 1950 27V29ZM1795 29H1950V27H1795V29Z" fill="#D2D7DC" mask="url(#path-13-inside-5_215_1080)"/>
</g>
<path d="M1791.8 84.62V86.76H1808.58V84.62H1791.8ZM1798.8 86V92.8H1801.44V86H1798.8ZM1800.14 74.88C1796.2 74.88 1793.46 76.52 1793.46 79.06C1793.46 81.58 1796.2 83.2 1800.14 83.2C1804.1 83.2 1806.84 81.58 1806.84 79.06C1806.84 76.52 1804.1 74.88 1800.14 74.88ZM1800.14 77C1802.58 77 1804.1 77.72 1804.1 79.06C1804.1 80.38 1802.58 81.1 1800.14 81.1C1797.72 81.1 1796.18 80.38 1796.18 79.06C1796.18 77.72 1797.72 77 1800.14 77ZM1822.56 74.24V92.82H1825.22V74.24H1822.56ZM1810.8 86.34V88.5H1812.44C1815.82 88.5 1818.54 88.4 1821.54 87.86L1821.28 85.72C1818.34 86.22 1815.72 86.34 1812.44 86.34H1810.8ZM1810.78 75.82V77.94H1816.8V80.88H1810.8V87.14H1813.5V82.98H1819.52V75.82H1810.78ZM1841.27 80.04V82.18H1846.15V80.04H1841.27ZM1836.23 75.68V78.36C1836.23 81.88 1834.83 85.46 1831.67 86.92L1833.33 89.06C1836.81 87.32 1838.39 83.02 1838.39 78.36V75.68H1836.23ZM1836.79 75.68V78.36C1836.79 82.98 1838.25 87.06 1841.73 88.74L1843.31 86.62C1840.25 85.26 1838.91 81.88 1838.91 78.36V75.68H1836.79ZM1844.83 74.24V92.82H1847.47V74.24H1844.83ZM1862.63 74.24V92.82H1865.31V74.24H1862.63ZM1850.85 75.72V88.5H1859.95V75.72H1857.31V80.22H1853.49V75.72H1850.85ZM1853.49 82.28H1857.31V86.36H1853.49V82.28ZM1874.81 75.32V76.66C1874.81 79.32 1872.51 82.26 1868.33 82.98L1869.47 85.18C1874.27 84.24 1877.12 80.68 1877.12 76.66V75.32H1874.81ZM1875.35 75.32V76.66C1875.35 80.74 1878.19 84.24 1882.99 85.18L1884.13 82.98C1879.93 82.26 1877.65 79.38 1877.65 76.66V75.32H1875.35ZM1867.95 88.36V90.52H1884.71V88.36H1867.95ZM1891.88 75.48C1888.98 75.48 1886.76 77.38 1886.76 80.04C1886.76 82.72 1888.98 84.62 1891.88 84.62C1894.8 84.62 1896.98 82.72 1896.98 80.04C1896.98 77.38 1894.8 75.48 1891.88 75.48ZM1891.88 77.76C1893.3 77.76 1894.38 78.6 1894.38 80.04C1894.38 81.5 1893.3 82.34 1891.88 82.34C1890.46 82.34 1889.38 81.5 1889.38 80.04C1889.38 78.6 1890.46 77.76 1891.88 77.76ZM1898.72 74.24V92.82H1901.38V74.24H1898.72ZM1886.32 89.06C1889.52 89.06 1893.88 89.02 1897.9 88.22L1897.7 86.3C1893.8 86.88 1889.26 86.92 1886 86.92L1886.32 89.06ZM1792.6 112.18V114.28H1807.68V112.18H1792.6ZM1791.82 122.24V124.38H1808.58V122.24H1791.82ZM1798.84 124.12V128.8H1801.5V124.12H1798.84ZM1800.18 115C1796.18 115 1793.82 116.12 1793.82 118.18C1793.82 120.22 1796.18 121.36 1800.18 121.36C1804.16 121.36 1806.52 120.22 1806.52 118.18C1806.52 116.12 1804.16 115 1800.18 115ZM1800.18 116.98C1802.6 116.98 1803.78 117.34 1803.78 118.18C1803.78 119.02 1802.6 119.38 1800.18 119.38C1797.76 119.38 1796.58 119.02 1796.58 118.18C1796.58 117.34 1797.76 116.98 1800.18 116.98ZM1798.84 110.24V113.58H1801.5V110.24H1798.84ZM1816.96 111.36V112.52C1816.96 115.7 1815.34 118.16 1810.1 119.58L1811.1 121.68C1817.32 119.9 1819.72 116.52 1819.72 111.36H1816.96ZM1811.04 111.36V113.46H1818.52V111.36H1811.04ZM1817.08 114.82L1810.1 115.06L1810.48 117.12L1817.08 116.64V114.82ZM1822.52 110.28V121.18H1825.2V110.28H1822.52ZM1818.94 121.48C1815.04 121.48 1812.6 122.84 1812.6 125.14C1812.6 127.44 1815.04 128.78 1818.94 128.78C1822.82 128.78 1825.28 127.44 1825.28 125.14C1825.28 122.84 1822.82 121.48 1818.94 121.48ZM1818.94 123.56C1821.34 123.56 1822.62 124.06 1822.62 125.14C1822.62 126.2 1821.34 126.74 1818.94 126.74C1816.52 126.74 1815.26 126.2 1815.26 125.14C1815.26 124.06 1816.52 123.56 1818.94 123.56ZM1831.95 124.54V126.72H1848.71V124.54H1831.95ZM1838.95 120.36V125.52H1841.61V120.36H1838.95ZM1833.23 111.78V113.9H1847.33V111.78H1833.23ZM1833.31 119.16V121.24H1847.27V119.16H1833.31ZM1835.75 113.54V119.4H1838.41V113.54H1835.75ZM1842.17 113.54V119.4H1844.81V113.54H1842.17ZM1862.65 110.28V123.58H1865.33V110.28H1862.65ZM1852.99 126.34V128.46H1865.79V126.34H1852.99ZM1852.99 122.24V127.2H1855.65V122.24H1852.99ZM1855.25 111.44C1852.41 111.44 1850.21 113.4 1850.21 116.14C1850.21 118.86 1852.41 120.84 1855.25 120.84C1858.09 120.84 1860.27 118.86 1860.27 116.14C1860.27 113.4 1858.09 111.44 1855.25 111.44ZM1855.25 113.74C1856.61 113.74 1857.67 114.62 1857.67 116.14C1857.67 117.64 1856.61 118.52 1855.25 118.52C1853.87 118.52 1852.81 117.64 1852.81 116.14C1852.81 114.62 1853.87 113.74 1855.25 113.74ZM1869.91 119.8V121.88H1882.93V119.8H1869.91ZM1867.95 124.5V126.66H1884.71V124.5H1867.95ZM1869.91 111.6V120.38H1872.61V113.74H1882.77V111.6H1869.91ZM1871.79 115.68V117.74H1882.35V115.68H1871.79ZM1897.76 110.24V128.76H1900.44V110.24H1897.76ZM1899.74 117.32V119.5H1903V117.32H1899.74ZM1892.9 112.16V112.62C1892.9 117.64 1890.6 121.04 1885.74 123.56L1887.22 125.58C1893.38 122.48 1895.5 117.72 1895.5 112.16H1892.9ZM1886.76 112.16V114.3H1894.26V112.16H1886.76ZM1912.53 120.7V128.22H1915.19V120.7H1912.53ZM1921.07 110.26V128.78H1923.75V110.26H1921.07ZM1908.31 121.84C1911.83 121.84 1916.03 121.8 1920.05 121.2L1919.91 119.26C1916.01 119.68 1911.61 119.68 1907.99 119.7L1908.31 121.84ZM1917.37 122.74V124.74H1921.61V122.74H1917.37ZM1909.47 111.14V118.18H1918.75V111.14H1909.47ZM1916.15 113.24V116.08H1912.09V113.24H1916.15ZM1930.51 113.18V115.26C1930.51 118.4 1929.01 121.82 1925.91 123.2L1927.41 125.3C1930.89 123.72 1932.63 119.54 1932.63 115.26V113.18H1930.51ZM1931.11 113.18V115.26C1931.11 119.38 1932.83 123.32 1936.35 124.84L1937.79 122.74C1934.69 121.46 1933.21 118.26 1933.21 115.26V113.18H1931.11ZM1926.65 112.04V114.22H1937.03V112.04H1926.65ZM1938.75 110.26V128.78H1941.43V110.26H1938.75ZM1946.77 121.96H1949.35C1949.05 119.14 1952.53 118.2 1952.53 115.36C1952.53 112.78 1950.77 111.54 1948.35 111.54C1946.61 111.54 1945.19 112.36 1944.15 113.54L1945.77 115.04C1946.43 114.36 1947.13 113.92 1948.01 113.92C1949.05 113.92 1949.71 114.54 1949.71 115.56C1949.71 117.46 1946.29 118.74 1946.77 121.96ZM1948.07 127.28C1949.11 127.28 1949.91 126.46 1949.91 125.36C1949.91 124.26 1949.11 123.46 1948.07 123.46C1947.01 123.46 1946.25 124.26 1946.25 125.36C1946.25 126.46 1947.01 127.28 1948.07 127.28Z" fill="#111111"/>
<defs>
<filter id="filter0_d_215_1080" x="0" y="0" width="364" height="231.056" filterUnits="userSpaceOnUse" color-interpolation-filters="sRGB">
<feFlood flood-opacity="0" result="BackgroundImageFix"/>
<feColorMatrix in="SourceAlpha" type="matrix" values="0 0 0 0 0 0 0 0 0 0 0 0 0 0 0 0 0 0 127 0" result="hardAlpha"/>
<feOffset dy="2"/>
<feGaussianBlur stdDeviation="15"/>
<feComposite in2="hardAlpha" operator="out"/>
<feColorMatrix type="matrix" values="0 0 0 0 0.165747 0 0 0 0 0.2439 0 0 0 0 0.520987 0 0 0 0.1 0"/>
<feBlend mode="normal" in2="BackgroundImageFix" result="effect1_dropShadow_215_1080"/>
<feBlend mode="normal" in="SourceGraphic" in2="effect1_dropShadow_215_1080" result="shape"/>
</filter>
<filter id="filter1_d_215_1080" x="444" y="0" width="295" height="231.056" filterUnits="userSpaceOnUse" color-interpolation-filters="sRGB">
<feFlood flood-opacity="0" result="BackgroundImageFix"/>
<feColorMatrix in="SourceAlpha" type="matrix" values="0 0 0 0 0 0 0 0 0 0 0 0 0 0 0 0 0 0 127 0" result="hardAlpha"/>
<feOffset dy="2"/>
<feGaussianBlur stdDeviation="15"/>
<feComposite in2="hardAlpha" operator="out"/>
<feColorMatrix type="matrix" values="0 0 0 0 0.165747 0 0 0 0 0.2439 0 0 0 0 0.520987 0 0 0 0.1 0"/>
<feBlend mode="normal" in2="BackgroundImageFix" result="effect1_dropShadow_215_1080"/>
<feBlend mode="normal" in="SourceGraphic" in2="effect1_dropShadow_215_1080" result="shape"/>
</filter>
<filter id="filter2_d_215_1080" x="819" y="0" width="331" height="231.056" filterUnits="userSpaceOnUse" color-interpolation-filters="sRGB">
<feFlood flood-opacity="0" result="BackgroundImageFix"/>
<feColorMatrix in="SourceAlpha" type="matrix" values="0 0 0 0 0 0 0 0 0 0 0 0 0 0 0 0 0 0 127 0" result="hardAlpha"/>
<feOffset dy="2"/>
<feGaussianBlur stdDeviation="15"/>
<feComposite in2="hardAlpha" operator="out"/>
<feColorMatrix type="matrix" values="0 0 0 0 0.165747 0 0 0 0 0.2439 0 0 0 0 0.520987 0 0 0 0.1 0"/>
<feBlend mode="normal" in2="BackgroundImageFix" result="effect1_dropShadow_215_1080"/>
<feBlend mode="normal" in="SourceGraphic" in2="effect1_dropShadow_215_1080" result="shape"/>
</filter>
<filter id="filter3_d_215_1080" x="1230" y="0" width="415" height="231.056" filterUnits="userSpaceOnUse" color-interpolation-filters="sRGB">
<feFlood flood-opacity="0" result="BackgroundImageFix"/>
<feColorMatrix in="SourceAlpha" type="matrix" values="0 0 0 0 0 0 0 0 0 0 0 0 0 0 0 0 0 0 127 0" result="hardAlpha"/>
<feOffset dy="2"/>
<feGaussianBlur stdDeviation="15"/>
<feComposite in2="hardAlpha" operator="out"/>
<feColorMatrix type="matrix" values="0 0 0 0 0.165747 0 0 0 0 0.2439 0 0 0 0 0.520987 0 0 0 0.1 0"/>
<feBlend mode="normal" in2="BackgroundImageFix" result="effect1_dropShadow_215_1080"/>
<feBlend mode="normal" in="SourceGraphic" in2="effect1_dropShadow_215_1080" result="shape"/>
</filter>
<filter id="filter4_d_215_1080" x="1725" y="0" width="295" height="231.056" filterUnits="userSpaceOnUse" color-interpolation-filters="sRGB">
<feFlood flood-opacity="0" result="BackgroundImageFix"/>
<feColorMatrix in="SourceAlpha" type="matrix" values="0 0 0 0 0 0 0 0 0 0 0 0 0 0 0 0 0 0 127 0" result="hardAlpha"/>
<feOffset dy="2"/>
<feGaussianBlur stdDeviation="15"/>
<feComposite in2="hardAlpha" operator="out"/>
<feColorMatrix type="matrix" values="0 0 0 0 0.165747 0 0 0 0 0.2439 0 0 0 0 0.520987 0 0 0 0.1 0"/>
<feBlend mode="normal" in2="BackgroundImageFix" result="effect1_dropShadow_215_1080"/>
<feBlend mode="normal" in="SourceGraphic" in2="effect1_dropShadow_215_1080" result="shape"/>
</filter>
<linearGradient id="paint0_linear_215_1080" x1="293.616" y1="208" x2="-189.007" y2="-232.416" gradientUnits="userSpaceOnUse">
<stop offset="0.0671826" stop-color="white" stop-opacity="0.5"/>
<stop offset="1" stop-color="white" stop-opacity="0"/>
</linearGradient>
<linearGradient id="paint1_linear_215_1080" x1="677.782" y1="208" x2="221.218" y2="-114.071" gradientUnits="userSpaceOnUse">
<stop offset="0.0671826" stop-color="white" stop-opacity="0.5"/>
<stop offset="1" stop-color="white" stop-opacity="0"/>
</linearGradient>
<linearGradient id="paint2_linear_215_1080" x1="1084" y1="208" x2="609.5" y2="-178" gradientUnits="userSpaceOnUse">
<stop offset="0.0671826" stop-color="white" stop-opacity="0.5"/>
<stop offset="1" stop-color="white" stop-opacity="0"/>
</linearGradient>
<linearGradient id="paint3_linear_215_1080" x1="1567.84" y1="208" x2="1084.17" y2="-307.415" gradientUnits="userSpaceOnUse">
<stop offset="0.0671826" stop-color="white" stop-opacity="0.5"/>
<stop offset="1" stop-color="white" stop-opacity="0"/>
</linearGradient>
<linearGradient id="paint4_linear_215_1080" x1="1958.78" y1="208" x2="1502.22" y2="-114.071" gradientUnits="userSpaceOnUse">
<stop offset="0.0671826" stop-color="white" stop-opacity="0.5"/>
<stop offset="1" stop-color="white" stop-opacity="0"/>
</linearGradient>
</defs>
</svg>
