<svg width="105" height="23" viewBox="0 0 105 23" fill="none" xmlns="http://www.w3.org/2000/svg">
<path d="M0 4.44519H3.41425V6.12596C3.60893 5.87532 3.81857 5.63942 4.0432 5.41827C4.28279 5.18237 4.54485 4.97596 4.82937 4.79904C5.1139 4.62212 5.42837 4.48205 5.77279 4.37885C6.13218 4.27564 6.52901 4.22404 6.96328 4.22404C7.75695 4.22404 8.4383 4.38622 9.00734 4.71058C9.59136 5.03494 10.0406 5.49936 10.3551 6.10385C10.8792 5.48462 11.4632 5.02019 12.1071 4.71058C12.751 4.38622 13.4848 4.22404 14.3084 4.22404C15.5813 4.22404 16.5771 4.59263 17.2959 5.32981C18.0147 6.06699 18.3741 7.15064 18.3741 8.58077V16.299H14.9598V9.68654C14.9598 8.89039 14.7876 8.29327 14.4432 7.89519C14.0988 7.48237 13.6046 7.27596 12.9607 7.27596C12.3168 7.27596 11.8076 7.48237 11.4333 7.89519C11.0739 8.29327 10.8942 8.89039 10.8942 9.68654V16.299H7.47991V9.68654C7.47991 8.89039 7.3077 8.29327 6.96328 7.89519C6.61886 7.48237 6.12469 7.27596 5.48078 7.27596C4.83686 7.27596 4.32772 7.48237 3.95335 7.89519C3.59395 8.29327 3.41425 8.89039 3.41425 9.68654V16.299H0V4.44519Z" fill="white"/>
<path d="M57.9764 9.44327C57.8715 8.69135 57.602 8.08686 57.1677 7.62981C56.7334 7.15801 56.1569 6.92212 55.4381 6.92212C54.7193 6.92212 54.1353 7.15064 53.6861 7.60769C53.2518 8.06474 52.9673 8.6766 52.8325 9.44327H57.9764ZM55.7751 16.5644C54.8766 16.5644 54.038 16.417 53.2593 16.1221C52.4956 15.8272 51.8292 15.4071 51.2602 14.8615C50.7061 14.316 50.2718 13.6747 49.9573 12.9375C49.6429 12.1856 49.4856 11.3526 49.4856 10.4385V10.3942C49.4856 9.55385 49.6279 8.75769 49.9124 8.00577C50.2119 7.25385 50.6237 6.59776 51.1478 6.0375C51.672 5.47724 52.2934 5.03494 53.0122 4.71058C53.746 4.38622 54.5546 4.22404 55.4381 4.22404C56.4414 4.22404 57.31 4.40096 58.0437 4.75481C58.7775 5.10865 59.384 5.58782 59.8632 6.19231C60.3573 6.78205 60.7167 7.46763 60.9414 8.24904C61.181 9.01571 61.3008 9.81923 61.3008 10.6596C61.3008 10.7923 61.2933 10.9324 61.2783 11.0798C61.2783 11.2272 61.2708 11.3821 61.2558 11.5442H52.8774C53.0422 12.3109 53.3791 12.8933 53.8882 13.2913C54.4123 13.6747 55.0563 13.8663 55.82 13.8663C56.389 13.8663 56.8982 13.7705 57.3474 13.5788C57.7967 13.3872 58.2609 13.0776 58.7401 12.65L60.6943 14.3529C60.1252 15.0458 59.4364 15.5913 58.6278 15.9894C57.8191 16.3728 56.8682 16.5644 55.7751 16.5644Z" fill="white"/>
<path d="M64.2047 7.32019H62.7896V4.55577H64.2047V3.80385C64.2047 2.52115 64.5267 1.56282 65.1706 0.928846C65.7995 0.309616 66.7205 0 67.9334 0C68.4725 0 68.9293 0.0294874 69.3036 0.0884619C69.693 0.147436 70.0449 0.228526 70.3593 0.331731V3.11827C70.1048 3.02981 69.8577 2.96346 69.6181 2.91923C69.3785 2.86026 69.1089 2.83077 68.8094 2.83077C67.9858 2.83077 67.574 3.25833 67.574 4.11346V4.57789H70.3369V7.32019H67.619V16.299H64.2047V7.32019Z" fill="white"/>
<path d="M76.057 19.9038C75.4281 19.9038 74.874 19.8301 74.3948 19.6827C73.9156 19.5353 73.4589 19.3362 73.0246 19.0856L74.1702 16.6529C74.3948 16.7856 74.6344 16.8962 74.889 16.9846C75.1585 17.0731 75.4056 17.1173 75.6302 17.1173C75.9297 17.1173 76.1618 17.0583 76.3266 16.9404C76.5063 16.8372 76.671 16.6381 76.8207 16.3433L72.1037 4.44519H75.7201L78.4605 12.5173L81.0886 4.44519H84.6376L80.0104 16.5865C79.7857 17.191 79.5461 17.6997 79.2916 18.1125C79.037 18.5401 78.7525 18.8865 78.438 19.1519C78.1385 19.4173 77.7941 19.609 77.4048 19.7269C77.0154 19.8449 76.5662 19.9038 76.057 19.9038Z" fill="white"/>
<path d="M86.583 4.44519H89.9973V16.299H86.583V4.44519Z" fill="white"/>
<path d="M92.9793 4.44519H96.3936V6.12596C96.5882 5.87532 96.7979 5.63942 97.0225 5.41827C97.2621 5.18237 97.5242 4.97596 97.8087 4.79904C98.0932 4.62212 98.4077 4.48205 98.7521 4.37885C99.0965 4.27564 99.4859 4.22404 99.9201 4.22404C101.223 4.22404 102.226 4.61474 102.93 5.39615C103.649 6.17756 104.008 7.25385 104.008 8.625V16.299H100.594V9.68654C100.594 8.89039 100.414 8.29327 100.055 7.89519C99.6955 7.48237 99.1864 7.27596 98.5275 7.27596C97.8686 7.27596 97.3445 7.48237 96.9551 7.89519C96.5807 8.29327 96.3936 8.89039 96.3936 9.68654V16.299H92.9793V4.44519Z" fill="white"/>
<path d="M0 4.44519H3.41425V6.12596C3.60893 5.87532 3.81857 5.63942 4.0432 5.41827C4.28279 5.18237 4.54485 4.97596 4.82937 4.79904C5.1139 4.62212 5.42837 4.48205 5.77279 4.37885C6.13218 4.27564 6.52901 4.22404 6.96328 4.22404C7.75695 4.22404 8.4383 4.38622 9.00734 4.71058C9.59136 5.03494 10.0406 5.49936 10.3551 6.10385C10.8792 5.48462 11.4632 5.02019 12.1071 4.71058C12.751 4.38622 13.4848 4.22404 14.3084 4.22404C15.5813 4.22404 16.5771 4.59263 17.2959 5.32981C18.0147 6.06699 18.3741 7.15064 18.3741 8.58077V16.299H14.9598V9.68654C14.9598 8.89039 14.7876 8.29327 14.4432 7.89519C14.0988 7.48237 13.6046 7.27596 12.9607 7.27596C12.3168 7.27596 11.8076 7.48237 11.4333 7.89519C11.0739 8.29327 10.8942 8.89039 10.8942 9.68654V16.299H7.47991V9.68654C7.47991 8.89039 7.3077 8.29327 6.96328 7.89519C6.61886 7.48237 6.12469 7.27596 5.48078 7.27596C4.83686 7.27596 4.32772 7.48237 3.95335 7.89519C3.59395 8.29327 3.41425 8.89039 3.41425 9.68654V16.299H0V4.44519Z" fill="white"/>
<path d="M90.5227 20.7887C90.5227 22.0101 89.517 23.0002 88.2765 23.0002C87.0359 23.0002 86.0303 22.0101 86.0303 20.7887C86.0303 19.5673 87.0359 18.5771 88.2765 18.5771C89.517 18.5771 90.5227 19.5673 90.5227 20.7887Z" fill="white"/>
<path fill-rule="evenodd" clip-rule="evenodd" d="M26.7748 4.13574C30.2483 4.13574 33.0642 6.90813 33.0642 10.328C33.0642 13.748 30.2483 16.5204 26.7748 16.5204C23.3012 16.5204 20.4854 13.748 20.4854 10.328C20.4854 6.90813 23.3012 4.13574 26.7748 4.13574ZM26.7748 7.45305C28.3875 7.45305 29.6949 8.74023 29.6949 10.328C29.6949 11.9159 28.3875 13.203 26.7748 13.203C25.162 13.203 23.8547 11.9159 23.8547 10.328C23.8547 8.74023 25.162 7.45305 26.7748 7.45305Z" fill="white"/>
<path fill-rule="evenodd" clip-rule="evenodd" d="M47.2154 0.155273H44.0707V4.96446C43.1456 4.43759 42.0716 4.13604 40.926 4.13604C37.4525 4.13604 34.6366 6.90843 34.6366 10.3284C34.6366 13.7483 37.4525 16.5207 40.926 16.5207C42.0716 16.5207 43.1456 16.2191 44.0707 15.6922V16.2995H47.2154V10.3284V0.155273ZM43.8461 10.3284C43.8461 8.74053 42.5387 7.45335 40.926 7.45335C39.3133 7.45335 38.0059 8.74053 38.0059 10.3284C38.0059 11.9162 39.3133 13.2034 40.926 13.2034C42.5387 13.2034 43.8461 11.9162 43.8461 10.3284Z" fill="white"/>
</svg>
