<svg width="121" height="27" viewBox="0 0 121 27" fill="none" xmlns="http://www.w3.org/2000/svg">
<path d="M0 5.21827H3.93953V7.19135C4.16415 6.89712 4.40605 6.62019 4.66523 6.36058C4.94168 6.08365 5.24406 5.84135 5.57236 5.63365C5.90065 5.42596 6.2635 5.26154 6.66091 5.14039C7.07559 5.01923 7.53348 4.95866 8.03456 4.95866C8.95033 4.95866 9.7365 5.14904 10.3931 5.52981C11.067 5.91058 11.5853 6.45577 11.9482 7.16538C12.5529 6.43846 13.2268 5.89327 13.9698 5.52981C14.7127 5.14904 15.5594 4.95866 16.5097 4.95866C17.9784 4.95866 19.1274 5.39135 19.9568 6.25673C20.7862 7.12212 21.2009 8.39423 21.2009 10.0731V19.1337H17.2613V11.3712C17.2613 10.4365 17.0626 9.73558 16.6652 9.26827C16.2678 8.78366 15.6976 8.54135 14.9546 8.54135C14.2117 8.54135 13.6242 8.78366 13.1922 9.26827C12.7775 9.73558 12.5702 10.4365 12.5702 11.3712V19.1337H8.63067V11.3712C8.63067 10.4365 8.43197 9.73558 8.03456 9.26827C7.63715 8.78366 7.06696 8.54135 6.32397 8.54135C5.58099 8.54135 4.99352 8.78366 4.56156 9.26827C4.14687 9.73558 3.93953 10.4365 3.93953 11.3712V19.1337H0V5.21827Z" fill="#48F30C"/>
<path d="M66.8958 11.0856C66.7748 10.2029 66.4638 9.49327 65.9627 8.95673C65.4617 8.40288 64.7964 8.12596 63.9671 8.12596C63.1377 8.12596 62.4638 8.39423 61.9455 8.93077C61.4444 9.46731 61.1161 10.1856 60.9606 11.0856H66.8958ZM64.3558 19.4452C63.3191 19.4452 62.3515 19.2721 61.453 18.926C60.5718 18.5798 59.8029 18.0865 59.1463 17.4462C58.507 16.8058 58.0059 16.0529 57.6431 15.1875C57.2802 14.3048 57.0988 13.3269 57.0988 12.2538V12.2019C57.0988 11.2154 57.263 10.2808 57.5913 9.39808C57.9368 8.51539 58.412 7.74519 59.0167 7.0875C59.6215 6.42981 60.3386 5.91058 61.1679 5.52981C62.0146 5.14904 62.9476 4.95866 63.9671 4.95866C65.1247 4.95866 66.1269 5.16635 66.9735 5.58173C67.8202 5.99712 68.52 6.55962 69.0729 7.26923C69.6431 7.96154 70.0578 8.76635 70.317 9.68365C70.5934 10.5837 70.7316 11.5269 70.7316 12.5135C70.7316 12.6692 70.723 12.8337 70.7057 13.0067C70.7057 13.1798 70.6971 13.3615 70.6798 13.5519H61.0124C61.2025 14.4519 61.5913 15.1356 62.1787 15.6029C62.7835 16.0529 63.5265 16.2779 64.4077 16.2779C65.0643 16.2779 65.6517 16.1654 66.1701 15.9404C66.6885 15.7154 67.2241 15.3519 67.777 14.85L70.0319 16.849C69.3753 17.6625 68.5805 18.3029 67.6474 18.7702C66.7144 19.2202 65.6172 19.4452 64.3558 19.4452Z" fill="#48F30C"/>
<path d="M74.0823 8.59327H72.4495V5.34808H74.0823V4.46539C74.0823 2.95962 74.4538 1.83462 75.1968 1.09038C75.9225 0.363462 76.9852 0 78.3847 0C79.0068 0 79.5338 0.0346156 79.9657 0.103847C80.415 0.173077 80.821 0.26827 81.1839 0.389423V3.66058C80.8901 3.55673 80.605 3.47885 80.3286 3.42692C80.0521 3.35769 79.7411 3.32308 79.3955 3.32308C78.4452 3.32308 77.97 3.825 77.97 4.82885V5.37404H81.1579V8.59327H78.0219V19.1337H74.0823V8.59327Z" fill="#48F30C"/>
<path d="M87.7581 23.3654C87.0324 23.3654 86.3931 23.2788 85.8402 23.1058C85.2873 22.9327 84.7603 22.699 84.2592 22.4048L85.581 19.549C85.8402 19.7048 86.1166 19.8346 86.4104 19.9385C86.7214 20.0423 87.0065 20.0942 87.2657 20.0942C87.6112 20.0942 87.879 20.025 88.0691 19.8865C88.2765 19.7654 88.4665 19.5317 88.6393 19.1856L83.1965 5.21827H87.3693L90.5313 14.6942L93.5637 5.21827H97.6587L92.3197 19.4712C92.0605 20.1808 91.784 20.7779 91.4903 21.2625C91.1965 21.7644 90.8683 22.1712 90.5054 22.4827C90.1598 22.7942 89.7624 23.0192 89.3132 23.1577C88.8639 23.2962 88.3456 23.3654 87.7581 23.3654Z" fill="#48F30C"/>
<path d="M99.9035 5.21827H103.843V19.1337H99.9035V5.21827Z" fill="#48F30C"/>
<path d="M107.284 5.21827H111.223V7.19135C111.448 6.89712 111.69 6.62019 111.949 6.36058C112.225 6.08365 112.528 5.84135 112.856 5.63365C113.184 5.42596 113.547 5.26154 113.945 5.14039C114.342 5.01923 114.791 4.95866 115.292 4.95866C116.796 4.95866 117.953 5.41731 118.765 6.33462C119.595 7.25192 120.01 8.51539 120.01 10.125V19.1337H116.07V11.3712C116.07 10.4365 115.863 9.73558 115.448 9.26827C115.033 8.78366 114.446 8.54135 113.686 8.54135C112.925 8.54135 112.321 8.78366 111.871 9.26827C111.439 9.73558 111.223 10.4365 111.223 11.3712V19.1337H107.284V5.21827Z" fill="#48F30C"/>
<path d="M0 5.21827H3.93953V7.19135C4.16415 6.89712 4.40605 6.62019 4.66523 6.36058C4.94168 6.08365 5.24406 5.84135 5.57236 5.63365C5.90065 5.42596 6.2635 5.26154 6.66091 5.14039C7.07559 5.01923 7.53348 4.95866 8.03456 4.95866C8.95033 4.95866 9.7365 5.14904 10.3931 5.52981C11.067 5.91058 11.5853 6.45577 11.9482 7.16538C12.5529 6.43846 13.2268 5.89327 13.9698 5.52981C14.7127 5.14904 15.5594 4.95866 16.5097 4.95866C17.9784 4.95866 19.1274 5.39135 19.9568 6.25673C20.7862 7.12212 21.2009 8.39423 21.2009 10.0731V19.1337H17.2613V11.3712C17.2613 10.4365 17.0626 9.73558 16.6652 9.26827C16.2678 8.78366 15.6976 8.54135 14.9546 8.54135C14.2117 8.54135 13.6242 8.78366 13.1922 9.26827C12.7775 9.73558 12.5702 10.4365 12.5702 11.3712V19.1337H8.63067V11.3712C8.63067 10.4365 8.43197 9.73558 8.03456 9.26827C7.63715 8.78366 7.06696 8.54135 6.32397 8.54135C5.58099 8.54135 4.99352 8.78366 4.56156 9.26827C4.14687 9.73558 3.93953 10.4365 3.93953 11.3712V19.1337H0V5.21827Z" fill="#48F30C"/>
<path d="M104.449 24.4038C104.449 25.8376 103.289 26.9999 101.857 26.9999C100.426 26.9999 99.2656 25.8376 99.2656 24.4038C99.2656 22.97 100.426 21.8076 101.857 21.8076C103.289 21.8076 104.449 22.97 104.449 24.4038Z" fill="#48F30C"/>
<path fill-rule="evenodd" clip-rule="evenodd" d="M30.894 4.85449C34.9019 4.85449 38.151 8.10904 38.151 12.1237C38.151 16.1384 34.9019 19.393 30.894 19.393C26.886 19.393 23.637 16.1384 23.637 12.1237C23.637 8.10904 26.886 4.85449 30.894 4.85449ZM30.894 8.74872C32.7548 8.74872 34.2633 10.2598 34.2633 12.1237C34.2633 13.9877 32.7548 15.4987 30.894 15.4987C29.0332 15.4987 27.5247 13.9877 27.5247 12.1237C27.5247 10.2598 29.0332 8.74872 30.894 8.74872Z" fill="#48F30C"/>
<path fill-rule="evenodd" clip-rule="evenodd" d="M54.4792 0.181641H50.8507V5.82721C49.7833 5.20871 48.544 4.85472 47.2222 4.85472C43.2143 4.85472 39.9652 8.10926 39.9652 12.1239C39.9652 16.1386 43.2143 19.3932 47.2222 19.3932C48.544 19.3932 49.7833 19.0392 50.8507 18.4207V19.1336H54.4792V12.1277C54.4792 12.1265 54.4792 12.1252 54.4792 12.1239C54.4792 12.1227 54.4792 12.1214 54.4792 12.1202V0.181641ZM50.5916 12.1239C50.5916 10.26 49.0831 8.74895 47.2222 8.74895C45.3614 8.74895 43.8529 10.26 43.8529 12.1239C43.8529 13.9879 45.3614 15.4989 47.2222 15.4989C49.0831 15.4989 50.5916 13.9879 50.5916 12.1239Z" fill="#48F30C"/>
</svg>
