<svg width="60" height="60" viewBox="0 0 60 60" fill="none" xmlns="http://www.w3.org/2000/svg">
<path fill-rule="evenodd" clip-rule="evenodd" d="M56 16.4C56 15.5354 55.5278 14.7375 54.7634 14.3115C53.9993 13.8855 53.0614 13.8972 52.3083 14.342L39.75 21.7612V19.6C39.75 16.5072 37.2036 14 34.0625 14H9.6875C6.54638 14 4 16.5072 4 19.6V40.4C4 43.4928 6.54638 46 9.6875 46H34.0625C37.2036 46 39.75 43.4928 39.75 40.4V38.2387L52.3083 45.6579C53.0614 46.1027 53.9993 46.1146 54.7634 45.6883C55.5278 45.2624 56 44.4646 56 43.6V16.4ZM39.75 32.6412L51.125 39.3613V20.6389L39.75 27.3589V32.6412ZM34.875 26V19.6C34.875 19.1582 34.5112 18.8 34.0625 18.8H9.6875C9.23877 18.8 8.875 19.1582 8.875 19.6V40.4C8.875 40.8419 9.23877 41.2 9.6875 41.2H34.0625C34.5112 41.2 34.875 40.8419 34.875 40.4V34V26Z" fill="#48F30C"/>
</svg>
