<svg width="633" height="631" viewBox="0 0 633 631" fill="none" xmlns="http://www.w3.org/2000/svg">
<path d="M316.5 338.702V100.75" stroke="#CFD3DC"/>
<path d="M316.5 338.701L542.921 265.324" stroke="#CFD3DC"/>
<path d="M316.5 338.702L455.917 530.531" stroke="#CFD3DC"/>
<path d="M316.499 338.702L177.082 530.531" stroke="#CFD3DC"/>
<path d="M316.499 338.701L90.0781 265.324" stroke="#CFD3DC"/>
<path d="M89.8731 265.527L316 101.236L542.127 265.527L455.754 531.355H176.246L89.8731 265.527Z" stroke="#E0E0E0" stroke-width="2"/>
<path d="M136.838 280.787L316 150.618L495.162 280.787L426.728 491.404H205.272L136.838 280.787Z" stroke="#E0E0E0"/>
<path d="M231.944 311.688L316 250.618L400.056 311.688L367.95 410.503H264.05L231.944 311.688Z" stroke="#E0E0E0"/>
<path d="M279.497 327.139L316 300.618L352.503 327.139L338.56 370.052H293.44L279.497 327.139Z" stroke="#E0E0E0"/>
<path d="M184.391 296.238L316 200.618L447.609 296.238L397.339 450.953H234.661L184.391 296.238Z" stroke="#E0E0E0"/>
<path d="M235.785 449.816L427 490.5L519 273L316.499 151.066L163.5 290L235.785 449.816Z" fill="#62F72E" fill-opacity="0.2" stroke="#48F30C" stroke-width="3"/>
<path d="M574.587 255.56C571.203 255.56 568.659 257.672 568.659 260.648C568.659 263.6 571.203 265.712 574.587 265.712C577.971 265.712 580.515 263.6 580.515 260.648C580.515 257.672 577.971 255.56 574.587 255.56ZM574.587 258.152C576.219 258.152 577.419 259.064 577.419 260.648C577.419 262.232 576.219 263.144 574.587 263.144C572.955 263.144 571.731 262.232 571.731 260.648C571.731 259.064 572.955 258.152 574.587 258.152ZM583.587 254.912V266.024H586.803V254.912H583.587ZM571.971 266.936V269.408H583.635V270.728H572.019V275.72H575.139V273.032H586.803V266.936H571.971ZM572.019 274.424V276.896H587.355V274.424H572.019ZM590.905 256.52V259.088H600.409V256.52H590.905ZM593.641 261.704V267.272H596.809V261.704H593.641ZM599.161 256.52V257.912C599.161 259.448 599.161 261.368 598.681 264.104L601.777 264.44C602.305 261.68 602.305 259.472 602.305 257.912V256.52H599.161ZM604.465 254.912V271.544H607.681V254.912H604.465ZM606.409 261.68V264.296H610.321V261.68H606.409ZM592.849 274.208V276.752H608.377V274.208H592.849ZM592.849 270.056V275H596.041V270.056H592.849ZM589.897 268.568C593.713 268.568 598.873 268.472 603.457 267.608L603.265 265.352C598.801 265.976 593.449 266.048 589.609 266.048L589.897 268.568ZM616.679 256.064V258.056C616.679 261.104 615.119 264.104 611.327 265.328L612.983 267.896C617.351 266.432 619.343 262.52 619.343 258.056V256.064H616.679ZM617.351 256.064V257.912C617.351 262.232 619.127 265.808 623.231 267.224L624.887 264.728C621.359 263.6 619.919 260.864 619.919 257.912V256.064H617.351ZM626.927 254.912V267.92H630.119V254.912H626.927ZM622.583 268.496C617.879 268.496 614.975 270.104 614.975 272.816C614.975 275.552 617.879 277.136 622.583 277.136C627.287 277.136 630.191 275.552 630.191 272.816C630.191 270.104 627.287 268.496 622.583 268.496ZM622.583 270.968C625.487 270.968 627.023 271.568 627.023 272.816C627.023 274.064 625.487 274.688 622.583 274.688C619.703 274.688 618.167 274.064 618.167 272.816C618.167 271.568 619.703 270.968 622.583 270.968ZM622.871 258.944V261.536H627.383V258.944H622.871Z" fill="#222222"/>
<path d="M473.925 561.096V563.664H477.573V561.096H473.925ZM481.101 552.912V575.136H484.149V552.912H481.101ZM476.565 553.248V574.128H479.565V553.248H476.565ZM470.037 554.472C467.109 554.472 465.237 557.52 465.237 562.536C465.237 567.576 467.109 570.624 470.037 570.624C472.989 570.624 474.885 567.576 474.885 562.536C474.885 557.52 472.989 554.472 470.037 554.472ZM470.037 557.472C471.285 557.472 471.981 559.152 471.981 562.536C471.981 565.944 471.285 567.6 470.037 567.6C468.837 567.6 468.141 565.944 468.141 562.536C468.141 559.152 468.837 557.472 470.037 557.472ZM502.051 552.888V575.184H505.243V552.888H502.051ZM498.571 560.904V563.472H502.699V560.904H498.571ZM487.411 567.408V570.048H489.235C492.931 570.048 495.907 569.928 499.195 569.376L498.907 566.784C495.691 567.336 492.835 567.408 489.235 567.408H487.411ZM487.363 554.784V557.328H494.227V560.616H487.411V568.2H490.579V563.136H497.371V554.784H487.363ZM523.447 566.496C518.815 566.496 515.911 568.104 515.911 570.816C515.911 573.552 518.815 575.16 523.447 575.16C528.055 575.16 530.959 573.552 530.959 570.816C530.959 568.104 528.055 566.496 523.447 566.496ZM523.447 568.992C526.279 568.992 527.791 569.568 527.791 570.816C527.791 572.088 526.279 572.688 523.447 572.688C520.615 572.688 519.079 572.088 519.079 570.816C519.079 569.568 520.615 568.992 523.447 568.992ZM527.503 552.912V565.992H530.695V552.912H527.503ZM529.807 558.072V560.712H533.647V558.072H529.807ZM513.847 554.328V564.768H524.527V554.328H521.359V557.064H517.015V554.328H513.847ZM517.015 559.536H521.359V562.272H517.015V559.536ZM540.149 556.416V558.912C540.149 562.68 538.349 566.784 534.629 568.44L536.429 570.96C540.605 569.064 542.693 564.048 542.693 558.912V556.416H540.149ZM540.869 556.416V558.912C540.869 563.856 542.933 568.584 547.157 570.408L548.885 567.888C545.165 566.352 543.389 562.512 543.389 558.912V556.416H540.869ZM535.517 555.048V557.664H547.973V555.048H535.517ZM550.037 552.912V575.136H553.253V552.912H550.037Z" fill="#222222"/>
<path d="M102.76 566.544V572.136H105.928V566.544H102.76ZM110.056 566.544V572.136H113.2V566.544H110.056ZM98.824 555.696V558.24H117.16V555.696H98.824ZM97.984 570.384V572.952H118.096V570.384H97.984ZM107.968 559.152C103.312 559.152 100.432 560.736 100.432 563.448C100.432 566.136 103.312 567.696 107.968 567.696C112.624 567.696 115.504 566.136 115.504 563.448C115.504 560.736 112.624 559.152 107.968 559.152ZM107.968 561.6C110.752 561.6 112.24 562.2 112.24 563.448C112.24 564.672 110.752 565.248 107.968 565.248C105.16 565.248 103.696 564.672 103.696 563.448C103.696 562.2 105.16 561.6 107.968 561.6ZM106.408 553.152V557.28H109.576V553.152H106.408ZM124.574 562.752V567.024H127.742V562.752H124.574ZM131.51 562.752V567.024H134.678V562.752H131.51ZM129.614 553.128C124.526 553.128 121.574 554.448 121.574 556.896C121.574 559.344 124.526 560.688 129.614 560.688C134.678 560.688 137.654 559.344 137.654 556.896C137.654 554.448 134.678 553.128 129.614 553.128ZM129.614 555.456C132.83 555.456 134.342 555.912 134.342 556.896C134.342 557.928 132.83 558.36 129.614 558.36C126.398 558.36 124.886 557.928 124.886 556.896C124.886 555.912 126.398 555.456 129.614 555.456ZM119.558 561.576V564.072H139.646V561.576H119.558ZM121.862 565.608V567.984H134.078V569.112H121.886V573.288H125.03V571.32H137.222V565.608H121.862ZM121.886 572.592V574.992H137.798V572.592H121.886ZM146.316 554.064V556.056C146.316 559.104 144.756 562.104 140.964 563.328L142.62 565.896C146.988 564.432 148.98 560.52 148.98 556.056V554.064H146.316ZM146.988 554.064V555.912C146.988 560.232 148.764 563.808 152.868 565.224L154.524 562.728C150.996 561.6 149.556 558.864 149.556 555.912V554.064H146.988ZM156.564 552.912V565.92H159.756V552.912H156.564ZM152.22 566.496C147.516 566.496 144.612 568.104 144.612 570.816C144.612 573.552 147.516 575.136 152.22 575.136C156.924 575.136 159.828 573.552 159.828 570.816C159.828 568.104 156.924 566.496 152.22 566.496ZM152.22 568.968C155.124 568.968 156.66 569.568 156.66 570.816C156.66 572.064 155.124 572.688 152.22 572.688C149.34 572.688 147.804 572.064 147.804 570.816C147.804 569.568 149.34 568.968 152.22 568.968ZM152.508 556.944V559.536H157.02V556.944H152.508Z" fill="#222222"/>
<path d="M256.391 51.936V64.464H259.607V51.936H256.391ZM244.823 65.496V73.896H259.607V65.496H244.823ZM256.463 67.992V71.376H247.943V67.992H256.463ZM246.335 52.728V54.864C246.335 57.6 244.751 60.432 241.031 61.584L242.567 64.104C246.911 62.736 248.975 58.992 248.975 54.864V52.728H246.335ZM246.983 52.728V54.864C246.983 58.944 248.975 62.424 253.223 63.696L254.759 61.224C251.159 60.144 249.599 57.552 249.599 54.864V52.728H246.983ZM263.829 53.904V68.856H274.509V53.904H263.829ZM271.389 56.4V66.336H266.973V56.4H271.389ZM277.965 51.888V74.184H281.181V51.888H277.965ZM289.483 53.064V55.056C289.483 58.104 287.923 61.104 284.131 62.328L285.787 64.896C290.155 63.432 292.147 59.52 292.147 55.056V53.064H289.483ZM290.155 53.064V54.912C290.155 59.232 291.931 62.808 296.035 64.224L297.691 61.728C294.163 60.6 292.723 57.864 292.723 54.912V53.064H290.155ZM299.731 51.912V64.92H302.923V51.912H299.731ZM295.387 65.496C290.683 65.496 287.779 67.104 287.779 69.816C287.779 72.552 290.683 74.136 295.387 74.136C300.091 74.136 302.995 72.552 302.995 69.816C302.995 67.104 300.091 65.496 295.387 65.496ZM295.387 67.968C298.291 67.968 299.827 68.568 299.827 69.816C299.827 71.064 298.291 71.688 295.387 71.688C292.507 71.688 290.971 71.064 290.971 69.816C290.971 68.568 292.507 67.968 295.387 67.968ZM295.675 55.944V58.536H300.187V55.944H295.675ZM313.985 63.096C313.985 64.224 314.969 65.208 316.097 65.208C317.273 65.208 318.209 64.224 318.209 63.096C318.209 61.992 317.273 60.96 316.097 60.96C314.969 60.96 313.985 61.992 313.985 63.096ZM341.799 51.912V67.824H345.015V51.912H341.799ZM344.103 58.104V60.72H347.967V58.104H344.103ZM335.607 53.568V55.152C335.607 58.68 332.799 61.656 327.351 63.144L328.695 65.688C335.319 63.768 339.015 59.616 339.015 53.568H335.607ZM328.311 53.568V56.136H337.335V53.568H328.311ZM330.639 71.208V73.752H345.759V71.208H330.639ZM330.639 66.216V72.336H333.855V66.216H330.639ZM364.525 51.912V63.072H367.717V51.912H364.525ZM357.109 52.752V54.48C357.109 57.456 354.949 59.904 349.381 61.008L350.437 63.576C357.181 62.112 360.589 58.656 360.589 52.752H357.109ZM350.653 52.752V55.296H358.453V52.752H350.653ZM359.725 54.672V57.096H364.933V54.672H359.725ZM359.581 58.992V61.392H364.813V58.992H359.581ZM353.029 63.888V66.384H364.525V67.656H353.077V72.768H356.269V70.008H367.717V63.888H353.029ZM353.077 71.424V73.92H368.173V71.424H353.077ZM375.875 53.064V55.056C375.875 58.104 374.315 61.104 370.523 62.328L372.179 64.896C376.547 63.432 378.539 59.52 378.539 55.056V53.064H375.875ZM376.547 53.064V54.912C376.547 59.232 378.323 62.808 382.427 64.224L384.083 61.728C380.555 60.6 379.115 57.864 379.115 54.912V53.064H376.547ZM386.123 51.912V64.92H389.315V51.912H386.123ZM381.779 65.496C377.075 65.496 374.171 67.104 374.171 69.816C374.171 72.552 377.075 74.136 381.779 74.136C386.483 74.136 389.387 72.552 389.387 69.816C389.387 67.104 386.483 65.496 381.779 65.496ZM381.779 67.968C384.683 67.968 386.219 68.568 386.219 69.816C386.219 71.064 384.683 71.688 381.779 71.688C378.899 71.688 377.363 71.064 377.363 69.816C377.363 68.568 378.899 67.968 381.779 67.968ZM382.067 55.944V58.536H386.579V55.944H382.067Z" fill="#222222"/>
<path d="M15.5108 254.888V277.112H18.7268V254.888H15.5108ZM17.8868 263.384V266H21.7988V263.384H17.8868ZM9.67881 257.192V257.744C9.67881 263.768 6.91881 267.848 1.08681 270.872L2.86281 273.296C10.2548 269.576 12.7988 263.864 12.7988 257.192H9.67881ZM2.31081 257.192V259.76H11.3108V257.192H2.31081ZM27.8449 256.616V259.856C27.8449 264.176 26.0209 268.448 22.1569 270.128L24.0529 272.768C28.4689 270.728 30.4369 265.568 30.4369 259.856V256.616H27.8449ZM28.4689 256.616V259.856C28.4689 265.328 30.4369 270.272 34.7329 272.24L36.6049 269.672C32.8129 268.04 31.0609 263.96 31.0609 259.856V256.616H28.4689ZM37.6609 254.888V277.184H40.8769V254.888H37.6609ZM48.6991 256.064V258.056C48.6991 261.104 47.1391 264.104 43.3471 265.328L45.0031 267.896C49.3711 266.432 51.3631 262.52 51.3631 258.056V256.064H48.6991ZM49.3711 256.064V257.912C49.3711 262.232 51.1471 265.808 55.2511 267.224L56.9071 264.728C53.3791 263.6 51.9391 260.864 51.9391 257.912V256.064H49.3711ZM58.9471 254.912V267.92H62.1391V254.912H58.9471ZM54.6031 268.496C49.8991 268.496 46.9951 270.104 46.9951 272.816C46.9951 275.552 49.8991 277.136 54.6031 277.136C59.3071 277.136 62.2111 275.552 62.2111 272.816C62.2111 270.104 59.3071 268.496 54.6031 268.496ZM54.6031 270.968C57.5071 270.968 59.0431 271.568 59.0431 272.816C59.0431 274.064 57.5071 274.688 54.6031 274.688C51.7231 274.688 50.1871 274.064 50.1871 272.816C50.1871 271.568 51.7231 270.968 54.6031 270.968ZM54.8911 258.944V261.536H59.4031V258.944H54.8911Z" fill="#222222"/>
<path d="M307.039 20.376V15.144L302.575 20.376H307.039ZM307.039 23.376H298.831L298.231 20.76L307.447 10.08H310.567V20.376H312.823V23.376H310.567V27H307.039V23.376ZM314.562 23.16H318.45V27H314.562V23.16ZM327.765 23.952C328.325 23.952 328.829 23.824 329.277 23.568C329.725 23.296 330.109 22.928 330.429 22.464C330.749 21.984 330.989 21.424 331.149 20.784C331.325 20.128 331.413 19.416 331.413 18.648V18.6C331.413 17.832 331.325 17.128 331.149 16.488C330.973 15.832 330.717 15.264 330.381 14.784C330.061 14.304 329.669 13.928 329.205 13.656C328.757 13.384 328.261 13.248 327.717 13.248C327.157 13.248 326.653 13.384 326.205 13.656C325.757 13.912 325.373 14.28 325.053 14.76C324.749 15.224 324.509 15.784 324.333 16.44C324.157 17.08 324.069 17.784 324.069 18.552V18.6C324.069 19.368 324.157 20.08 324.333 20.736C324.509 21.392 324.757 21.96 325.077 22.44C325.397 22.904 325.781 23.272 326.229 23.544C326.693 23.816 327.205 23.952 327.765 23.952ZM327.717 27.288C326.597 27.288 325.573 27.072 324.645 26.64C323.733 26.192 322.949 25.584 322.293 24.816C321.653 24.032 321.157 23.112 320.805 22.056C320.453 21 320.277 19.864 320.277 18.648V18.6C320.277 17.384 320.453 16.248 320.805 15.192C321.173 14.136 321.685 13.216 322.341 12.432C322.997 11.648 323.781 11.032 324.693 10.584C325.621 10.136 326.645 9.912 327.765 9.912C328.869 9.912 329.877 10.136 330.789 10.584C331.717 11.016 332.501 11.624 333.141 12.408C333.797 13.176 334.301 14.088 334.653 15.144C335.021 16.2 335.205 17.336 335.205 18.552V18.6C335.205 19.816 335.021 20.952 334.653 22.008C334.301 23.064 333.797 23.984 333.141 24.768C332.485 25.552 331.693 26.168 330.765 26.616C329.853 27.064 328.837 27.288 327.717 27.288Z" fill="url(#paint0_linear_208_2120)"/>
<path d="M591.746 313.376V308.144L587.282 313.376H591.746ZM591.746 316.376H583.538L582.938 313.76L592.154 303.08H595.274V313.376H597.53V316.376H595.274V320H591.746V316.376ZM599.269 316.16H603.157V320H599.269V316.16ZM611.008 320.288C609.648 320.288 608.464 320.064 607.456 319.616C606.448 319.168 605.536 318.552 604.72 317.768L606.952 315.104C607.592 315.68 608.232 316.128 608.872 316.448C609.512 316.768 610.208 316.928 610.96 316.928C611.824 316.928 612.504 316.728 613 316.328C613.512 315.928 613.768 315.352 613.768 314.6V314.552C613.768 313.832 613.488 313.272 612.928 312.872C612.384 312.472 611.672 312.272 610.792 312.272C610.264 312.272 609.76 312.336 609.28 312.464C608.816 312.576 608.384 312.72 607.984 312.896L605.848 311.48L606.328 303.2H616.648V306.44H609.496L609.304 309.344C609.64 309.264 609.976 309.2 610.312 309.152C610.648 309.088 611.048 309.056 611.512 309.056C612.328 309.056 613.088 309.16 613.792 309.368C614.512 309.576 615.136 309.896 615.664 310.328C616.208 310.76 616.632 311.32 616.936 312.008C617.24 312.68 617.392 313.488 617.392 314.432V314.48C617.392 315.376 617.24 316.184 616.936 316.904C616.632 317.608 616.2 318.216 615.64 318.728C615.096 319.224 614.424 319.608 613.624 319.88C612.84 320.152 611.968 320.288 611.008 320.288Z" fill="url(#paint1_linear_208_2120)"/>
<path d="M500.039 611.376V606.144L495.575 611.376H500.039ZM500.039 614.376H491.831L491.231 611.76L500.447 601.08H503.567V611.376H505.823V614.376H503.567V618H500.039V614.376ZM507.562 614.16H511.45V618H507.562V614.16ZM520.765 614.952C521.325 614.952 521.829 614.824 522.277 614.568C522.725 614.296 523.109 613.928 523.429 613.464C523.749 612.984 523.989 612.424 524.149 611.784C524.325 611.128 524.413 610.416 524.413 609.648V609.6C524.413 608.832 524.325 608.128 524.149 607.488C523.973 606.832 523.717 606.264 523.381 605.784C523.061 605.304 522.669 604.928 522.205 604.656C521.757 604.384 521.261 604.248 520.717 604.248C520.157 604.248 519.653 604.384 519.205 604.656C518.757 604.912 518.373 605.28 518.053 605.76C517.749 606.224 517.509 606.784 517.333 607.44C517.157 608.08 517.069 608.784 517.069 609.552V609.6C517.069 610.368 517.157 611.08 517.333 611.736C517.509 612.392 517.757 612.96 518.077 613.44C518.397 613.904 518.781 614.272 519.229 614.544C519.693 614.816 520.205 614.952 520.765 614.952ZM520.717 618.288C519.597 618.288 518.573 618.072 517.645 617.64C516.733 617.192 515.949 616.584 515.293 615.816C514.653 615.032 514.157 614.112 513.805 613.056C513.453 612 513.277 610.864 513.277 609.648V609.6C513.277 608.384 513.453 607.248 513.805 606.192C514.173 605.136 514.685 604.216 515.341 603.432C515.997 602.648 516.781 602.032 517.693 601.584C518.621 601.136 519.645 600.912 520.765 600.912C521.869 600.912 522.877 601.136 523.789 601.584C524.717 602.016 525.501 602.624 526.141 603.408C526.797 604.176 527.301 605.088 527.653 606.144C528.021 607.2 528.205 608.336 528.205 609.552V609.6C528.205 610.816 528.021 611.952 527.653 613.008C527.301 614.064 526.797 614.984 526.141 615.768C525.485 616.552 524.693 617.168 523.765 617.616C522.853 618.064 521.837 618.288 520.717 618.288Z" fill="url(#paint2_linear_208_2120)"/>
<path d="M118.772 618.288C117.252 618.288 115.956 618.024 114.884 617.496C113.828 616.952 112.94 616.248 112.22 615.384L114.764 612.96C115.34 613.616 115.94 614.12 116.564 614.472C117.204 614.808 117.956 614.976 118.82 614.976C119.524 614.976 120.092 614.792 120.524 614.424C120.972 614.056 121.196 613.56 121.196 612.936V612.888C121.196 612.2 120.908 611.672 120.332 611.304C119.756 610.936 118.948 610.752 117.908 610.752H116.372L115.796 608.4L119.804 604.368H113.204V601.2H124.556V603.984L120.308 608.04C120.884 608.136 121.436 608.288 121.964 608.496C122.508 608.704 122.988 608.992 123.404 609.36C123.836 609.728 124.18 610.192 124.436 610.752C124.692 611.296 124.82 611.96 124.82 612.744V612.792C124.82 613.592 124.676 614.328 124.388 615C124.116 615.656 123.716 616.232 123.188 616.728C122.676 617.224 122.044 617.608 121.292 617.88C120.54 618.152 119.7 618.288 118.772 618.288ZM126.742 614.16H130.63V618H126.742V614.16ZM139.945 614.952C140.505 614.952 141.009 614.824 141.457 614.568C141.905 614.296 142.289 613.928 142.609 613.464C142.929 612.984 143.169 612.424 143.329 611.784C143.505 611.128 143.593 610.416 143.593 609.648V609.6C143.593 608.832 143.505 608.128 143.329 607.488C143.153 606.832 142.897 606.264 142.561 605.784C142.241 605.304 141.849 604.928 141.385 604.656C140.937 604.384 140.441 604.248 139.897 604.248C139.337 604.248 138.833 604.384 138.385 604.656C137.937 604.912 137.553 605.28 137.233 605.76C136.929 606.224 136.689 606.784 136.513 607.44C136.337 608.08 136.249 608.784 136.249 609.552V609.6C136.249 610.368 136.337 611.08 136.513 611.736C136.689 612.392 136.937 612.96 137.257 613.44C137.577 613.904 137.961 614.272 138.409 614.544C138.873 614.816 139.385 614.952 139.945 614.952ZM139.897 618.288C138.777 618.288 137.753 618.072 136.825 617.64C135.913 617.192 135.129 616.584 134.473 615.816C133.833 615.032 133.337 614.112 132.985 613.056C132.633 612 132.457 610.864 132.457 609.648V609.6C132.457 608.384 132.633 607.248 132.985 606.192C133.353 605.136 133.865 604.216 134.521 603.432C135.177 602.648 135.961 602.032 136.873 601.584C137.801 601.136 138.825 600.912 139.945 600.912C141.049 600.912 142.057 601.136 142.969 601.584C143.897 602.016 144.681 602.624 145.321 603.408C145.977 604.176 146.481 605.088 146.833 606.144C147.201 607.2 147.385 608.336 147.385 609.552V609.6C147.385 610.816 147.201 611.952 146.833 613.008C146.481 614.064 145.977 614.984 145.321 615.768C144.665 616.552 143.873 617.168 142.945 617.616C142.033 618.064 141.017 618.288 139.897 618.288Z" fill="url(#paint3_linear_208_2120)"/>
<path d="M23.4787 320.288C21.9587 320.288 20.6627 320.024 19.5907 319.496C18.5347 318.952 17.6467 318.248 16.9267 317.384L19.4707 314.96C20.0467 315.616 20.6467 316.12 21.2707 316.472C21.9107 316.808 22.6627 316.976 23.5267 316.976C24.2307 316.976 24.7987 316.792 25.2307 316.424C25.6787 316.056 25.9027 315.56 25.9027 314.936V314.888C25.9027 314.2 25.6147 313.672 25.0387 313.304C24.4627 312.936 23.6547 312.752 22.6147 312.752H21.0787L20.5027 310.4L24.5107 306.368H17.9107V303.2H29.2627V305.984L25.0147 310.04C25.5907 310.136 26.1427 310.288 26.6707 310.496C27.2147 310.704 27.6947 310.992 28.1107 311.36C28.5427 311.728 28.8867 312.192 29.1427 312.752C29.3987 313.296 29.5267 313.96 29.5267 314.744V314.792C29.5267 315.592 29.3827 316.328 29.0947 317C28.8227 317.656 28.4227 318.232 27.8947 318.728C27.3827 319.224 26.7507 319.608 25.9987 319.88C25.2467 320.152 24.4067 320.288 23.4787 320.288ZM31.4489 316.16H35.3369V320H31.4489V316.16ZM43.1881 320.288C41.8281 320.288 40.6441 320.064 39.6361 319.616C38.6281 319.168 37.7161 318.552 36.9001 317.768L39.1321 315.104C39.7721 315.68 40.4121 316.128 41.0521 316.448C41.6921 316.768 42.3881 316.928 43.1401 316.928C44.0041 316.928 44.6841 316.728 45.1801 316.328C45.6921 315.928 45.9481 315.352 45.9481 314.6V314.552C45.9481 313.832 45.6681 313.272 45.1081 312.872C44.5641 312.472 43.8521 312.272 42.9721 312.272C42.4441 312.272 41.9401 312.336 41.4601 312.464C40.9961 312.576 40.5641 312.72 40.1641 312.896L38.0281 311.48L38.5081 303.2H48.8281V306.44H41.6761L41.4841 309.344C41.8201 309.264 42.1561 309.2 42.4921 309.152C42.8281 309.088 43.2281 309.056 43.6921 309.056C44.5081 309.056 45.2681 309.16 45.9721 309.368C46.6921 309.576 47.3161 309.896 47.8441 310.328C48.3881 310.76 48.8121 311.32 49.1161 312.008C49.4201 312.68 49.5721 313.488 49.5721 314.432V314.48C49.5721 315.376 49.4201 316.184 49.1161 316.904C48.8121 317.608 48.3801 318.216 47.8201 318.728C47.2761 319.224 46.6041 319.608 45.8041 319.88C45.0201 320.152 44.1481 320.288 43.1881 320.288Z" fill="url(#paint4_linear_208_2120)"/>
<defs>
<linearGradient id="paint0_linear_208_2120" x1="298.157" y1="22.5688" x2="337.032" y2="22.01" gradientUnits="userSpaceOnUse">
<stop stop-color="#1ED30E"/>
<stop offset="1" stop-color="#06B4DA"/>
</linearGradient>
<linearGradient id="paint1_linear_208_2120" x1="583.07" y1="315.569" x2="619.03" y2="315.091" gradientUnits="userSpaceOnUse">
<stop stop-color="#1ED30E"/>
<stop offset="1" stop-color="#06B4DA"/>
</linearGradient>
<linearGradient id="paint2_linear_208_2120" x1="491.157" y1="613.569" x2="530.032" y2="613.01" gradientUnits="userSpaceOnUse">
<stop stop-color="#1ED30E"/>
<stop offset="1" stop-color="#06B4DA"/>
</linearGradient>
<linearGradient id="paint3_linear_208_2120" x1="112.099" y1="613.569" x2="149.031" y2="613.064" gradientUnits="userSpaceOnUse">
<stop stop-color="#1ED30E"/>
<stop offset="1" stop-color="#06B4DA"/>
</linearGradient>
<linearGradient id="paint4_linear_208_2120" x1="17.0124" y1="315.569" x2="51.0292" y2="315.141" gradientUnits="userSpaceOnUse">
<stop stop-color="#1ED30E"/>
<stop offset="1" stop-color="#06B4DA"/>
</linearGradient>
</defs>
</svg>
